<?xml version="1.0" encoding="UTF-8"?>
<svg version="1.1" xmlns="http://www.w3.org/2000/svg" width="512" height="512">
<path d="M0 0 C4.17520257 1.96446784 8.17234328 4.2264529 12.17578125 6.515625 C13.53535398 7.26892371 14.89602745 8.02023931 16.2578125 8.76953125 C19.62572862 10.63305734 22.9713065 12.53304047 26.31005859 14.44824219 C28.00677002 15.41893341 29.71007057 16.37808437 31.4140625 17.3359375 C40.39289927 22.40092234 49.21599238 27.71699693 58.03100586 33.06103516 C63.84617104 36.57316916 69.71027087 39.93538744 75.69067383 43.15771484 C79.08205019 45.01082766 82.38110814 46.99716382 85.67578125 49.015625 C89.85764438 51.55249233 94.04402408 54.02949363 98.36328125 56.328125 C103.77150713 59.25656104 109.11171839 62.29528316 114.42578125 65.390625 C115.27809326 65.87249268 116.13040527 66.35436035 117.00854492 66.85083008 C124.65265806 71.35233844 130.43364241 76.42164969 133.53317833 84.94059753 C134.90605289 90.44195706 134.60014312 96.13872121 134.57983398 101.77514648 C134.58554426 103.20998667 134.59251105 104.64482231 134.60063171 106.07965088 C134.61850562 109.95782299 134.61740572 113.83576813 134.61168933 117.71396899 C134.60858916 120.95937719 134.6146991 124.2047423 134.62072808 127.45014435 C134.63475269 135.11011022 134.63322919 142.76996451 134.62182617 150.42993164 C134.6103462 158.31554067 134.62442315 166.20080953 134.65122265 174.08637375 C134.67341851 180.8730557 134.68000832 187.65963117 134.67414623 194.44634682 C134.67078482 198.49257277 134.67313721 202.53858072 134.69039726 206.58477592 C134.70592665 210.39102127 134.70184522 214.19676477 134.68309212 218.00299072 C134.67942275 219.39407827 134.68246623 220.78520351 134.69297791 222.17625618 C134.75820567 231.52709813 134.06606376 238.86889867 127.92578125 246.203125 C121.49553561 251.61037702 114.90955789 255.95696238 107.48828125 259.890625 C100.68548752 263.56021012 94.06780425 267.36807313 87.5234375 271.48046875 C82.63780624 274.45061331 77.62950871 277.18707821 72.62109375 279.94335938 C67.94310849 282.52143132 63.33774074 285.1831583 58.77734375 287.96484375 C55.36069416 290.00149523 51.89567287 291.94644052 48.42578125 293.890625 C47.73653564 294.27686035 47.04729004 294.6630957 46.3371582 295.06103516 C45.648396 295.44694824 44.95963379 295.83286133 44.25 296.23046875 C36.02903505 300.83676065 27.84990856 305.50840983 19.75488281 310.33276367 C16.88904333 312.03328451 14.00960954 313.70961387 11.12548828 315.37890625 C9.38046643 316.39628939 7.65010567 317.43872283 5.921875 318.484375 C-1.52331076 322.68778214 -8.33167715 323.92799153 -16.82421875 322.515625 C-23.84968998 320.30482779 -29.842701 316.87581468 -35.94921875 312.828125 C-42.72090835 308.43494926 -49.55471501 304.28894411 -56.66064453 300.45825195 C-60.3576812 298.4422652 -63.61789209 296.24648877 -66.82421875 293.515625 C-66.1796875 291.640625 -66.1796875 291.640625 -64.82421875 289.515625 C-62.25 288.390625 -62.25 288.390625 -59.13671875 287.515625 C-55.40099075 286.39401289 -52.16931409 285.31647731 -48.88671875 283.203125 C-45.82421875 281.515625 -45.82421875 281.515625 -43.6015625 281.65625 C-39.88667081 282.80572422 -36.66797757 284.63627636 -33.32421875 286.578125 C-32.62514404 286.97499512 -31.92606934 287.37186523 -31.20581055 287.78076172 C-27.7686838 289.74762054 -24.38533325 291.77112464 -21.0625 293.92578125 C-20.48242188 294.29888428 -19.90234375 294.6719873 -19.3046875 295.05639648 C-17.72501225 296.08323164 -16.15892358 297.13088056 -14.59375 298.1796875 C-11.98711841 299.67648766 -11.98711841 299.67648766 -9.49609375 299.55078125 C-5.43550066 297.97759825 -1.91994525 295.67007911 1.73828125 293.328125 C7.81123875 289.52023962 13.8767051 286.06227442 20.34375 282.95703125 C24.57545705 280.80323828 28.53326406 278.24809073 32.55078125 275.72265625 C36.71546602 273.14546509 41.0065679 270.80577732 45.30078125 268.453125 C50.32417089 265.70018215 55.25459265 262.90532649 60.05078125 259.765625 C63.60068467 257.44224833 67.16480682 255.4795102 70.98828125 253.640625 C76.27350307 251.08348016 81.06675719 248.07489321 85.94873047 244.84130859 C90.57311801 241.81348156 95.33469576 239.31578389 100.359375 237 C101.28878906 236.51015625 102.21820313 236.0203125 103.17578125 235.515625 C103.76263734 235.26253476 104.34949343 235.00944452 104.95413303 234.74868488 C107.19575019 233.55129907 108.5761033 232.50688505 110.17578125 230.515625 C111.22692042 226.05719387 111.05936092 221.65732913 110.97045898 217.09643555 C110.96848344 215.71640626 110.96959482 214.33636962 110.97355652 212.9563446 C110.97556312 209.2164436 110.93444329 205.47811761 110.88553882 201.73858237 C110.8417463 197.82822922 110.83766515 193.91783898 110.82936096 190.00727844 C110.80761357 182.60515992 110.75018412 175.20376606 110.67991453 167.80196649 C110.6016423 159.37406026 110.56317749 150.94611921 110.52804649 142.51793993 C110.45489998 125.18341595 110.33179495 107.84959712 110.17578125 90.515625 C109.11141846 89.92031982 108.04705566 89.32501465 106.95043945 88.71166992 C105.52161292 87.91070556 104.09282254 87.10967671 102.6640625 86.30859375 C101.96639771 85.91861206 101.26873291 85.52863037 100.54992676 85.12683105 C95.76881962 82.44393746 91.0498135 79.67271411 86.36328125 76.828125 C81.32719202 73.77950694 76.24132899 70.89002557 71.05078125 68.109375 C66.87420207 65.79409741 62.8061598 63.3066344 58.72265625 60.83203125 C55.08431013 58.63571256 51.42314303 56.52314024 47.67578125 54.515625 C43.36382693 52.20360223 39.17088569 49.73823275 34.98828125 47.203125 C27.82764293 42.86787805 20.56053995 38.74575679 13.24902344 34.67138672 C9.61690354 32.64660391 5.98980473 30.61290898 2.36328125 28.578125 C1.68724854 28.20042969 1.01121582 27.82273437 0.31469727 27.43359375 C-2.4670454 25.8735119 -5.16889681 24.28583963 -7.82421875 22.515625 C-13.79786716 22.63346632 -18.57843679 25.83588377 -23.63671875 28.703125 C-24.48814453 29.17298828 -25.33957031 29.64285156 -26.21679688 30.12695312 C-31.25498665 32.93959068 -36.06116233 35.97522625 -40.83422852 39.21411133 C-43.25932118 40.80019512 -45.75475925 42.05751244 -48.38671875 43.265625 C-54.21866523 46.08849564 -59.58941922 49.43418944 -65.04125977 52.91308594 C-68.56387285 55.14658867 -72.04749163 57.22899146 -75.82421875 59.015625 C-80.36030011 61.16510031 -84.52979012 63.768506 -88.76171875 66.453125 C-93.94021247 69.73611711 -99.12856502 72.86477133 -104.55078125 75.734375 C-107.42599333 77.29892954 -110.26318138 78.91019115 -113.09765625 80.546875 C-114.04745361 81.0948877 -114.99725098 81.64290039 -115.97583008 82.20751953 C-117.89945456 83.31977879 -119.82120664 84.43528333 -121.7409668 85.55419922 C-122.6256665 86.0648291 -123.51036621 86.57545898 -124.421875 87.1015625 C-125.22117432 87.5661084 -126.02047363 88.0306543 -126.84399414 88.50927734 C-128.82421875 89.515625 -128.82421875 89.515625 -130.82421875 89.515625 C-131.17506071 107.74371543 -131.4393389 125.97092675 -131.60140133 144.20166683 C-131.67866114 152.66725135 -131.78392294 161.13073509 -131.95581055 169.5949707 C-132.10560993 176.97505548 -132.20215531 184.35361906 -132.23554617 191.73518187 C-132.25506106 195.64251428 -132.3006824 199.54549644 -132.4101696 203.45142937 C-133.59657238 218.69833139 -133.59657238 218.69833139 -129.39818192 232.66005325 C-125.98740726 235.89002775 -122.24658624 237.50170476 -117.79670906 238.83995247 C-114.41395694 239.9987073 -111.55375044 241.90085555 -108.51171875 243.765625 C-106.28355096 245.01740466 -104.05446633 246.26755458 -101.82421875 247.515625 C-100.92960937 248.04671875 -100.035 248.5778125 -99.11328125 249.125 C-93.01301735 252.55038478 -87.79176311 253.53031593 -80.82421875 252.515625 C-77.11919458 251.09667957 -74.83610454 248.96634368 -72.67638016 245.61888885 C-70.69074333 240.7180354 -71.27720326 235.12401555 -71.31005859 229.92285156 C-71.30459409 228.53605878 -71.2973505 227.14927204 -71.28846741 225.76249695 C-71.27316255 222.78481005 -71.27031449 219.80746753 -71.27723312 216.82975006 C-71.28803249 212.12389178 -71.27062471 207.41839282 -71.24942017 202.71258545 C-71.21919327 195.27425635 -71.20746796 187.83603401 -71.20384371 180.39764857 C-71.19718582 167.06285318 -71.16826371 153.72813098 -71.11874735 140.39342666 C-71.10222087 135.71239086 -71.09683791 131.0315103 -71.10033774 126.35044813 C-71.10077364 123.44516779 -71.09322798 120.53994653 -71.08366203 117.63468361 C-71.07968466 115.63841065 -71.08576297 113.64212567 -71.09208679 111.64585876 C-71.08670395 110.46538467 -71.08132111 109.28491058 -71.07577515 108.06866455 C-71.07527192 106.52344557 -71.07527192 106.52344557 -71.07475853 104.94701004 C-70.82421875 102.515625 -70.82421875 102.515625 -68.82421875 100.515625 C-66.79296875 100.25683594 -66.79296875 100.25683594 -64.32421875 100.25 C-63.43734375 100.24742187 -62.55046875 100.24484375 -61.63671875 100.2421875 C-60.70859375 100.24992187 -59.78046875 100.25765625 -58.82421875 100.265625 C-57.89609375 100.25789063 -56.96796875 100.25015625 -56.01171875 100.2421875 C-54.68140625 100.24605469 -54.68140625 100.24605469 -53.32421875 100.25 C-52.50953125 100.25225586 -51.69484375 100.25451172 -50.85546875 100.25683594 C-48.82421875 100.515625 -48.82421875 100.515625 -46.82421875 102.515625 C-46.57532978 104.90180874 -46.57532978 104.90180874 -46.57698059 107.95909119 C-46.5727861 109.11551117 -46.56859161 110.27193115 -46.56427002 111.46339417 C-46.56988953 112.73867477 -46.57550903 114.01395538 -46.58129883 115.32788086 C-46.58022623 116.67976981 -46.57828789 118.03165832 -46.57554626 119.38354492 C-46.570687 123.06384489 -46.57837032 126.74402411 -46.58849931 130.42430949 C-46.59727852 134.28023184 -46.59552228 138.13615038 -46.59513855 141.99208069 C-46.59607631 148.47789528 -46.60476935 154.96366322 -46.6184082 161.44946289 C-46.63407533 168.92693989 -46.63940838 176.40436557 -46.63867265 183.88185781 C-46.6379941 191.8572667 -46.64495941 199.83265603 -46.65411925 207.80805898 C-46.6562411 210.09587063 -46.65695918 212.38367908 -46.65735817 214.67149162 C-46.65837157 218.28708868 -46.66454853 221.90264355 -46.67452431 225.51822662 C-46.67878556 227.46151293 -46.67828237 229.4048079 -46.67758179 231.34809875 C-46.73388916 246.9504922 -47.43888161 258.05212765 -58.82421875 269.515625 C-59.56671875 270.27875 -60.30921875 271.041875 -61.07421875 271.828125 C-71.14827407 278.00993167 -84.12917363 277.75409793 -95.46484375 275.9296875 C-104.52438401 273.67514437 -112.18112636 269.3001773 -120.11035156 264.53613281 C-122.21376939 263.28367034 -124.35644277 262.11365822 -126.51171875 260.953125 C-150.74429875 247.41822907 -150.74429875 247.41822907 -154.38575363 235.71016979 C-154.93385959 232.96686589 -154.95676127 230.38910533 -154.96466064 227.59040833 C-154.97037079 226.37786377 -154.97608093 225.16531921 -154.98196411 223.91603088 C-154.98320939 222.57528697 -154.9843345 221.23454294 -154.98535156 219.89379883 C-154.98998189 218.47925691 -154.99500684 217.06471623 -155.00039673 215.650177 C-155.01350417 211.80902345 -155.01996273 207.96788736 -155.02440739 204.12671494 C-155.02734146 201.7245315 -155.03144695 199.32235279 -155.03591156 196.92017174 C-155.04958362 189.39754312 -155.05925107 181.87492538 -155.06311345 174.35228521 C-155.06759028 165.68143892 -155.08512191 157.01075057 -155.11411405 148.33995229 C-155.13576795 141.62980448 -155.14581975 134.91970098 -155.14715457 128.20951861 C-155.14820017 124.20573168 -155.15405519 120.20209328 -155.17197418 116.19834328 C-155.18851865 112.42836027 -155.1905797 108.65863641 -155.18183517 104.88862991 C-155.18070428 102.856688 -155.19437323 100.82475445 -155.20858765 98.79286194 C-155.16189785 88.50911685 -153.86340781 80.47107071 -146.640625 72.8359375 C-141.01611871 68.20215562 -134.46764008 65.02769587 -128.02832031 61.67382812 C-125.00225837 60.0837043 -122.03974836 58.40383837 -119.07421875 56.703125 C-117.96304688 56.06632812 -116.851875 55.42953125 -115.70703125 54.7734375 C-109.80416185 51.35665099 -103.94864788 47.85856487 -98.08374023 44.37719727 C-91.8329984 40.67586629 -85.53353804 37.08006907 -79.18164062 33.5559082 C-74.43290377 30.9042007 -69.87225955 28.01631376 -65.3125 25.05078125 C-62.96774687 23.60417531 -60.62259144 22.38628497 -58.13671875 21.203125 C-53.47493623 18.96517199 -49.17936427 16.28804567 -44.82421875 13.515625 C-39.69973793 10.25994649 -34.61482312 7.177949 -29.1015625 4.609375 C-26.77221139 3.53150104 -26.77221139 3.53150104 -24.453125 2.109375 C-16.52600183 -2.45664794 -8.60054833 -3.64543755 0 0 Z " fill="#83CD28" transform="translate(265.82421875,99.484375)"/>
<path d="M0 0 C8.95905876 7.12585201 13.86884172 16.96601972 15.2890625 28.30859375 C15.49239511 33.34569711 15.49239511 33.34569711 13.72070312 35.69995117 C10.73063032 37.9590513 7.09398387 37.38749966 3.5 37.3125 C2.34177734 37.31733398 2.34177734 37.31733398 1.16015625 37.32226562 C-2.72431666 37.28523859 -4.70317851 37.19788099 -8 35 C-8.9921875 32.609375 -8.9921875 32.609375 -9.875 29.75 C-11.92337194 23.90296816 -13.57127563 19.75396791 -19.3671875 16.7890625 C-27.43406817 13.41389878 -34.58478644 12.81800522 -43.25 12.8125 C-44.74853516 12.79413086 -44.74853516 12.79413086 -46.27734375 12.77539062 C-54.50898391 12.75925015 -62.96568313 13.31045542 -70 18 C-73.27187493 22.68968739 -73.62432075 26.47030196 -73 32 C-67.99176014 38.59235466 -57.97385852 39.28347881 -50.21044922 40.40185547 C-46.17244021 40.91879053 -42.13002206 41.39123604 -38.0859375 41.85791016 C3.25496332 46.73807022 3.25496332 46.73807022 15.5 62 C21.2081818 69.69940801 20.86071556 79.85749313 20 89 C18.14679862 98.9749497 12.23251743 105.85527451 4.42578125 112.0390625 C-14.63936864 125.12026023 -44.03940262 124.79372847 -66.0546875 120.73828125 C-78.10251717 117.71833456 -89.5995794 112.17849254 -97.23046875 102.03515625 C-101.95819341 93.92601262 -104.70011381 84.40423314 -103 75 C-99.15057491 72.43371661 -95.95702113 72.70535538 -91.5 72.75 C-90.72785156 72.74226563 -89.95570313 72.73453125 -89.16015625 72.7265625 C-85.26368532 72.74006847 -83.31012753 72.79324831 -80 75 C-79.0078125 77.828125 -79.0078125 77.828125 -78.125 81.25 C-76.48432442 86.80258491 -75.43495876 90.23992627 -71 94 C-61.67729332 98.80970462 -52.661957 99.21014996 -42.33422852 99.24023438 C-40.33532739 99.24988974 -38.33656798 99.28107117 -36.33789062 99.3125 C-27.47059459 99.34791606 -17.99023506 99.14387816 -10.4375 93.875 C-6.30634622 89.00235708 -5.84028981 84.43558044 -6.25 78.1875 C-8.50871131 74.07341869 -10.50121242 73.31474489 -14.87182617 71.90332031 C-25.38692362 68.86688384 -36.09558399 67.36104986 -46.9375 66.0625 C-57.21169124 64.77306567 -67.17782195 63.40412472 -77 60 C-78.28777344 59.55720703 -78.28777344 59.55720703 -79.6015625 59.10546875 C-88.4907535 55.6122248 -94.04662486 50.00953504 -98.08984375 41.4296875 C-101.49429988 32.34139688 -100.48736371 23.23406767 -97.44921875 14.18359375 C-93.40491746 5.29921221 -85.82680932 -1.09465718 -77 -5 C-53.3835586 -13.11570528 -21.66382331 -14.37629865 0 0 Z " fill="#83CD28" transform="translate(332,206)"/>
</svg>
