<?xml version="1.0" encoding="UTF-8"?>
<svg version="1.1" xmlns="http://www.w3.org/2000/svg" width="450" height="450">
<path d="M0 0 C5.90944903 0.01139367 11.81871797 0.00461665 17.72816086 -0.00687218 C47.58357482 -0.05630473 77.24465428 0.0277559 106.84667969 4.38574219 C114.98534873 5.56030957 122.86206309 6.58259315 131.09667969 6.26074219 C131.09667969 6.92074219 131.09667969 7.58074219 131.09667969 8.26074219 C131.66515625 8.32132813 132.23363281 8.38191406 132.81933594 8.44433594 C137.59449005 8.96250792 142.34591019 9.55318077 147.09667969 10.26074219 C147.09667969 10.92074219 147.09667969 11.58074219 147.09667969 12.26074219 C149.07667969 12.26074219 151.05667969 12.26074219 153.09667969 12.26074219 C153.09667969 12.92074219 153.09667969 13.58074219 153.09667969 14.26074219 C154.51980469 14.19886719 154.51980469 14.19886719 155.97167969 14.13574219 C159.09667969 14.26074219 159.09667969 14.26074219 161.09667969 16.26074219 C163.01390716 17.34717109 164.67955049 18.177875 166.84667969 18.60839844 C169.93229339 19.50301213 172.44874063 21.0210332 175.22167969 22.63574219 C176.80335938 23.54453125 176.80335938 23.54453125 178.41699219 24.47167969 C181.09667969 26.26074219 181.09667969 26.26074219 183.09667969 29.26074219 C183.73605469 29.54949219 184.37542969 29.83824219 185.03417969 30.13574219 C187.8054382 31.64733774 188.50633197 33.54711489 190.09667969 36.26074219 C191.35429271 37.95811754 192.62593884 39.645158 193.90917969 41.32324219 C210.89307314 64.65276617 213.65985755 94.7653808 215.20605469 122.76074219 C215.24792656 123.51117798 215.28979843 124.26161377 215.33293915 125.03479004 C216.71464136 150.899293 216.39678007 176.83985713 216.35381842 202.73337173 C216.34627286 207.80892844 216.34899914 212.88440709 216.35742188 217.95996094 C216.57264543 351.07461088 216.57264543 351.07461088 189.09667969 383.26074219 C188.74605469 384.00324219 188.39542969 384.74574219 188.03417969 385.51074219 C186.79188873 387.82968531 185.44432675 388.12045647 183.09667969 389.26074219 C182.39542969 390.00324219 181.69417969 390.74574219 180.97167969 391.51074219 C175.29030324 396.94510227 169.05854715 400.91457404 161.09667969 401.26074219 C161.09667969 401.92074219 161.09667969 402.58074219 161.09667969 403.26074219 C160.33355469 403.40511719 159.57042969 403.54949219 158.78417969 403.69824219 C156.01495061 404.22400159 156.01495061 404.22400159 153.09667969 405.26074219 C151.09667969 405.92740885 149.09667969 406.59407552 147.09667969 407.26074219 C146.10667969 407.92074219 145.11667969 408.58074219 144.09667969 409.26074219 C142.09954319 409.29295407 140.10112396 409.31990577 138.10449219 409.26464844 C135.67314814 409.2599182 133.45065311 409.67224883 131.09667969 410.26074219 C131.09667969 410.92074219 131.09667969 411.58074219 131.09667969 412.26074219 C130.54012695 412.23898926 129.98357422 412.21723633 129.41015625 412.19482422 C120.56369271 412.00762578 111.99736484 413.37746248 103.26464844 414.66308594 C73.68921394 418.7581461 43.98590521 418.57940549 14.19335938 418.52148438 C8.28391034 418.5100907 2.37464141 418.51686772 -3.53480148 418.52835655 C-33.39021544 418.5777891 -63.0512949 418.49372848 -92.65332031 414.13574219 C-100.79198935 412.9611748 -108.66870372 411.93889122 -116.90332031 412.26074219 C-116.90332031 411.60074219 -116.90332031 410.94074219 -116.90332031 410.26074219 C-117.47179687 410.20015625 -118.04027344 410.13957031 -118.62597656 410.07714844 C-123.40113068 409.55897645 -128.15255081 408.9683036 -132.90332031 408.26074219 C-132.90332031 407.60074219 -132.90332031 406.94074219 -132.90332031 406.26074219 C-134.88332031 406.26074219 -136.86332031 406.26074219 -138.90332031 406.26074219 C-138.90332031 405.60074219 -138.90332031 404.94074219 -138.90332031 404.26074219 C-140.26457031 404.35355469 -140.26457031 404.35355469 -141.65332031 404.44824219 C-145.24528885 404.24101323 -146.28685609 403.59687095 -148.90332031 401.26074219 C-150.80295103 400.20198781 -150.80295103 400.20198781 -152.64550781 399.90917969 C-155.73761048 399.02113636 -158.25162266 397.50263984 -161.02832031 395.88574219 C-162.08277344 395.27988281 -163.13722656 394.67402344 -164.22363281 394.04980469 C-166.90332031 392.26074219 -166.90332031 392.26074219 -168.90332031 389.26074219 C-169.54269531 388.97199219 -170.18207031 388.68324219 -170.84082031 388.38574219 C-173.61207882 386.87414664 -174.31297259 384.97436949 -175.90332031 382.26074219 C-177.16093333 380.56336683 -178.43257946 378.87632637 -179.71582031 377.19824219 C-196.69971377 353.86871821 -199.46649817 323.75610358 -201.01269531 295.76074219 C-201.05456718 295.0103064 -201.09643906 294.25987061 -201.13957977 293.48669434 C-202.52128198 267.62219138 -202.2034207 241.68162724 -202.16045904 215.78811264 C-202.15291348 210.71255594 -202.15563976 205.63707729 -202.1640625 200.56152344 C-202.37928606 67.44687349 -202.37928606 67.44687349 -174.90332031 35.26074219 C-174.37738281 34.14699219 -174.37738281 34.14699219 -173.84082031 33.01074219 C-172.59852936 30.69179907 -171.25096737 30.4010279 -168.90332031 29.26074219 C-167.85144531 28.14699219 -167.85144531 28.14699219 -166.77832031 27.01074219 C-161.09694387 21.57638211 -154.86518778 17.60691034 -146.90332031 17.26074219 C-146.90332031 16.60074219 -146.90332031 15.94074219 -146.90332031 15.26074219 C-146.14019531 15.11636719 -145.37707031 14.97199219 -144.59082031 14.82324219 C-141.82159123 14.29748278 -141.82159123 14.29748278 -138.90332031 13.26074219 C-136.90332031 12.59407552 -134.90332031 11.92740885 -132.90332031 11.26074219 C-131.91332031 10.60074219 -130.92332031 9.94074219 -129.90332031 9.26074219 C-127.90618381 9.22853031 -125.90776459 9.2015786 -123.91113281 9.25683594 C-121.47978877 9.26156618 -119.25729374 8.84923554 -116.90332031 8.26074219 C-116.90332031 7.60074219 -116.90332031 6.94074219 -116.90332031 6.26074219 C-116.34676758 6.28249512 -115.79021484 6.30424805 -115.21679688 6.32666016 C-106.37033334 6.5138586 -97.80400546 5.1440219 -89.07128906 3.85839844 C-59.49585457 -0.23666172 -29.79254583 -0.05792112 0 0 Z " fill="#E7E7E7" transform="translate(217.9033203125,15.7392578125)"/>
<path d="M0 0 C0.71297241 -0.00511093 1.42594482 -0.01022186 2.16052246 -0.01548767 C4.51066566 -0.02935096 6.86051418 -0.02842814 9.21069336 -0.02612305 C10.85631925 -0.03001428 12.50194414 -0.03434983 14.14756775 -0.03910828 C17.59824881 -0.04656534 21.04882757 -0.04628478 24.49951172 -0.04101562 C28.89156112 -0.03524859 33.28318501 -0.05208701 37.67516422 -0.0753603 C41.07698459 -0.09020242 44.47870527 -0.09095475 47.88055229 -0.08785057 C49.49784621 -0.08835943 51.11514636 -0.09351413 52.73240852 -0.10366249 C70.36121293 -0.20063801 83.46797653 2.67645137 96.38755798 15.37095642 C97.14798904 16.13791336 97.9084201 16.9048703 98.69189453 17.69506836 C99.52401459 18.51857285 100.35613464 19.34207733 101.21347046 20.1905365 C103.9336832 22.888227 106.63908786 25.60020311 109.34350586 28.3137207 C110.75787538 29.7241773 112.17225106 31.13462799 113.58739358 32.54430902 C118.02172541 36.96172456 122.44580886 41.38921564 126.86328125 45.82348633 C131.41918564 50.39639013 135.99137098 54.95253753 140.57184142 59.50082362 C144.51399999 63.41633024 148.44642558 67.34142138 152.37102777 71.27452505 C154.71123951 73.61966831 157.05590604 75.96000532 159.40776634 78.2934761 C162.01982541 80.88821534 164.61555007 83.49825108 167.20751953 86.11303711 C167.99021713 86.88404251 168.77291473 87.65504791 169.57933044 88.44941711 C170.27870728 89.16144791 170.97808411 89.8734787 171.69865417 90.60708618 C172.62078343 91.5300949 172.62078343 91.5300949 173.56154156 92.47175026 C174.73803711 94.2746582 174.73803711 94.2746582 174.42799854 96.50388145 C174.08646763 97.38041595 174.08646763 97.38041595 173.73803711 98.2746582 C172.65697693 98.28274506 171.57591675 98.29083191 170.46209717 98.29916382 C160.2796657 98.37661098 150.09736809 98.46434673 139.91511154 98.56218529 C134.68016974 98.61215495 129.44524818 98.65848501 124.21020508 98.6965332 C119.15915909 98.73337742 114.10828222 98.77973518 109.05738068 98.83272171 C107.1292848 98.85127022 105.20115267 98.86637649 103.27300262 98.87800217 C100.57464743 98.8948567 97.87667993 98.92388992 95.1784668 98.95581055 C93.97976707 98.95905083 93.97976707 98.95905083 92.7568512 98.96235657 C87.40684397 98.98151812 87.40684397 98.98151812 82.73803711 101.2746582 C81.53313636 104.88936044 81.57776749 108.20762631 81.56445312 111.97143555 C81.55442261 113.14510429 81.55442261 113.14510429 81.54418945 114.34248352 C81.5301425 116.04160381 81.51824731 117.74074293 81.50824165 119.43989182 C81.49182512 122.12997014 81.46858681 124.8199091 81.44334412 127.50991821 C81.37258728 135.15831554 81.31246248 142.8067697 81.26123047 150.45532227 C81.22941457 155.13376004 81.18813262 159.81203732 81.14103508 164.490345 C81.12503111 166.27247859 81.11270213 168.05464913 81.10412788 169.83683395 C81.09195499 172.3310854 81.06779696 174.82496047 81.04101562 177.3190918 C81.04042648 178.0538121 81.03983734 178.78853241 81.03923035 179.54551697 C80.98228949 183.5536515 80.50727605 186.66287365 78.73803711 190.2746582 C75.28714455 189.69462863 73.68633179 188.57418877 71.27709961 186.0715332 C70.3219043 185.09506836 70.3219043 185.09506836 69.34741211 184.09887695 C68.69256836 183.41438477 68.03772461 182.72989258 67.36303711 182.0246582 C62.11186783 176.54954474 62.11186783 176.54954474 56.45288086 171.5090332 C54.23535917 169.68396499 52.468908 167.99153651 50.67553711 165.7746582 C48.207225 162.74113839 45.51172631 160.03241089 42.73803711 157.2746582 C17.73803711 132.2746582 17.73803711 132.2746582 15.03295898 129.53833008 C12.77767205 127.235562 12.77767205 127.235562 10.23803711 125.2746582 C6.51294111 122.2945814 3.3614195 119.0456838 0.36303711 115.3371582 C-1.4873794 113.06329215 -3.44005578 111.20427265 -5.69946289 109.3371582 C-10.08972212 105.68661442 -14.42897115 101.77363343 -16.26196289 96.2746582 C-16.37380876 93.49224144 -16.42964157 90.73422246 -16.43896484 87.95117188 C-16.44882164 86.67750008 -16.44882164 86.67750008 -16.45887756 85.37809753 C-16.47859876 82.56627311 -16.4902701 79.75450205 -16.50024414 76.94262695 C-16.50431967 75.98200159 -16.5083952 75.02137623 -16.51259422 74.03164101 C-16.53344922 68.94785401 -16.54775382 63.86409396 -16.55712891 58.78027344 C-16.56819646 53.53110308 -16.60260206 48.28235627 -16.64230061 43.03333569 C-16.6684506 38.99525669 -16.67681927 34.95727892 -16.68041039 30.9191227 C-16.68527995 28.98424733 -16.69690447 27.0493766 -16.71544838 25.11458397 C-16.73980704 22.40482406 -16.73888095 19.6961641 -16.73193359 16.98632812 C-16.74474365 16.18974792 -16.75755371 15.39316772 -16.77075195 14.57244873 C-16.72240893 9.39020939 -15.82148437 6.29783312 -12.26196289 2.2746582 C-8.2996763 -0.06847271 -4.5354432 0.01626104 0 0 Z " fill="#272727" transform="translate(144.261962890625,175.725341796875)"/>
<path d="M0 0 C0.68043198 -0.00297112 1.36086397 -0.00594224 2.0619151 -0.0090034 C4.34102779 -0.01767222 6.62008784 -0.0191971 8.8992157 -0.02069092 C10.53374849 -0.02532036 12.16828021 -0.03034519 13.80281067 -0.03573608 C18.24298444 -0.04884948 22.6831431 -0.05530291 27.12333322 -0.05974674 C29.89804236 -0.06267903 32.67274738 -0.06678412 35.44745445 -0.07125092 C44.13085578 -0.08492272 52.81424768 -0.09459107 61.49765903 -0.09845281 C71.51782813 -0.10293367 81.53786083 -0.12048423 91.55798846 -0.1494534 C99.30588794 -0.17107507 107.05374904 -0.18115734 114.80167836 -0.18249393 C119.42802277 -0.18354155 124.05423891 -0.1894405 128.68055153 -0.20731354 C133.03326874 -0.22380272 137.38576136 -0.22594563 141.73849869 -0.21717453 C143.33361221 -0.21640462 144.92873784 -0.22074077 146.52382088 -0.23063278 C148.70657624 -0.24337254 150.8885385 -0.23746523 153.07128906 -0.22705078 C154.90109046 -0.22925062 154.90109046 -0.22925062 156.76785755 -0.2314949 C160.92366003 0.21546246 163.52737404 1.20305275 167.22612 3.14044189 C169.73142938 6.89840597 169.51466834 9.85264142 169.5007782 14.20440674 C169.50588913 15.02586685 169.51100006 15.84732697 169.51626587 16.69367981 C169.53018153 19.41298685 169.52920344 22.13204095 169.52690125 24.85137939 C169.53078748 26.74083552 169.53512199 28.63029076 169.53988647 30.51974487 C169.54735321 34.48253204 169.54705441 38.44523013 169.54179382 42.40802002 C169.53600269 47.48460525 169.55291937 52.56082523 169.5761385 57.63735008 C169.59087691 61.54072194 169.59174732 65.44400591 169.58862877 69.34740067 C169.58914206 71.21888578 169.59438131 73.0903758 169.60444069 74.96183395 C169.61678801 77.58069254 169.61002347 80.19884063 169.59843445 82.81768799 C169.60607819 83.58981125 169.61372192 84.36193451 169.62159729 85.15745544 C169.57776169 89.6429417 169.17053034 92.67667492 166.22612 96.14044189 C162.04318069 98.64362398 157.59966844 98.43021952 152.85917664 98.4151001 C152.02927719 98.42021103 151.19937775 98.42532196 150.34432983 98.43058777 C147.60823807 98.44445763 144.87239893 98.44352901 142.13627625 98.44122314 C140.229654 98.4451114 138.32303262 98.44944634 136.41641235 98.45420837 C132.42269582 98.4616649 128.42906771 98.46138333 124.43534851 98.45611572 C119.32304839 98.45032073 114.21111051 98.46725559 109.09887028 98.4904604 C105.16200655 98.50520733 101.22522988 98.50606814 97.28834343 98.50295067 C95.40372945 98.50346336 93.51911053 98.5086913 91.63452339 98.51876259 C88.99693015 98.53112877 86.36004026 98.52433443 83.72245789 98.51275635 C82.94772125 98.52040009 82.17298462 98.52804382 81.37477112 98.53591919 C72.15068554 98.44663255 67.61162972 93.96537815 61.48002625 87.7666626 C60.72800934 87.01829636 59.97599243 86.26993011 59.20118713 85.49888611 C56.72287909 83.02866812 54.25557364 80.54777665 51.78862 78.06622314 C50.06330115 76.34038538 48.33746322 74.61506639 46.61112976 72.89024353 C42.99529978 69.27432388 39.3846885 65.65329712 35.77787781 62.02838135 C31.16641846 57.39427798 26.54401597 52.77128137 21.91784668 48.15186787 C18.35200966 44.58938194 14.79119836 41.02190722 11.23194885 37.45284081 C9.53011268 35.74716883 7.82694212 34.04282711 6.12239075 32.33986855 C3.73402287 29.95187385 1.35229168 27.55744751 -1.02778625 25.16119385 C-1.72614594 24.46531158 -2.42450562 23.76942932 -3.14402771 23.05245972 C-14.53017934 11.5433152 -14.53017934 11.5433152 -15.04049683 6.51161671 C-14.77388 4.14044189 -14.77388 4.14044189 -13.02388 2.39044189 C-8.73553978 0.00803066 -4.86462214 0.01187345 0 0 Z " fill="#262626" transform="translate(152.7738800048828,78.85955810546875)"/>
<path d="M0 0 C0.268125 0.639375 0.53625 1.27875 0.8125 1.9375 C1.88667752 4.33131686 1.88667752 4.33131686 5 5 C4.89300781 5.72703125 4.78601563 6.4540625 4.67578125 7.203125 C3.42188292 17.71969167 5.53016827 26.50160756 10 36 C10.52306059 37.26991824 11.04389873 38.54075417 11.5625 39.8125 C12.78171388 43.01764194 12.78171388 43.01764194 15 45 C15.268125 45.969375 15.53625 46.93875 15.8125 47.9375 C17.28694299 51.74001087 18.46380129 52.11402735 22 54 C23.14167771 54.98091641 24.26553958 55.98278685 25.375 57 C27.79262672 59.15783789 29.82759122 60.46967923 32.875 61.5625 C33.90625 62.036875 34.9375 62.51125 36 63 C36.6953125 65.58984375 36.6953125 65.58984375 37 68 C37.80824219 68.03738281 38.61648437 68.07476562 39.44921875 68.11328125 C40.51785156 68.17902344 41.58648437 68.24476563 42.6875 68.3125 C43.74324219 68.37050781 44.79898438 68.42851562 45.88671875 68.48828125 C49.30864131 69.05073025 51.28066208 69.85882762 54 72 C54.8125 74.1875 54.8125 74.1875 55 76 C55.60585937 75.95359375 56.21171875 75.9071875 56.8359375 75.859375 C62.95395754 75.59582952 67.17872244 76.61623758 72.73828125 79.12109375 C75.55714756 80.21650812 78.00633205 80.07301629 81 80 C82.02104551 80.97850195 83.0206121 81.97980427 84 83 C88.4425229 84.00399705 92.64758909 84.07404544 97.1875 84 C106.06105791 83.91226145 114.90198671 84.2734994 123.76635742 84.64892578 C129.09424333 84.86229399 134.40196177 85.03411277 139.734375 84.9609375 C140.62866211 84.94869141 141.52294922 84.93644531 142.44433594 84.92382812 C144.04169974 84.89330914 145.63892975 84.84987825 147.23535156 84.78710938 C151.87743369 84.6950284 156.14828837 85.1870795 160.70939636 86.07015991 C175.79974012 88.90360115 191.06953927 88.37593391 206.35778809 88.26428223 C209.46548883 88.24523056 212.57312918 88.24113333 215.68088055 88.2375679 C219.45785223 88.2323547 223.23477455 88.21789807 227.01171875 88.203125 C228.05063546 88.20030392 228.05063546 88.20030392 229.11054039 88.19742584 C237.96590646 88.16632147 246.74518197 87.8355705 255.57380676 87.19940186 C258.41439507 87.03408176 261.16079513 87.00102335 264 87.125 C267.64918127 87.193209 270.14318171 86.12059261 273.4921875 84.65625 C277.67781504 83.5609456 281.98543744 83.88270757 286.27758789 84.11132812 C289.53642816 84.23449689 291.558413 84.28056025 294.35400391 82.50439453 C297.52572606 80.70109578 299.41924447 80.66536735 303.04296875 80.7421875 C304.19990234 80.75636719 305.35683594 80.77054687 306.54882812 80.78515625 C307.74958984 80.81480469 308.95035156 80.84445312 310.1875 80.875 C324.92456955 81.57508092 324.92456955 81.57508092 339 78 C341.17622493 77.39534509 343.36498483 76.83450534 345.5625 76.3125 C346.67753906 76.04050781 347.79257812 75.76851563 348.94140625 75.48828125 C351.78769592 75.03389273 353.33465744 75.02900723 356 76 C357.20628008 73.66785852 358.1654738 71.50357861 359 69 C365.10639722 64.58390226 371.65566129 64 379 64 C379.20625 63.278125 379.4125 62.55625 379.625 61.8125 C381.10905615 58.7769306 382.83666132 57.30143616 385.484375 55.2578125 C387.66454718 53.44849435 389.24959096 51.21718479 391 49 C391.680625 48.525625 392.36125 48.05125 393.0625 47.5625 C395.6727847 45.4574317 396.65438567 43.02763225 398 40 C398.66 40 399.32 40 400 40 C399.79375 39.05125 399.5875 38.1025 399.375 37.125 C399.25125 36.09375 399.1275 35.0625 399 34 C401 32 401 32 404 30 C402.65886182 42.74081269 395.10277386 53.50817919 387 63 C386.649375 63.7425 386.29875 64.485 385.9375 65.25 C384.69520904 67.56894312 383.34764706 67.85971429 381 69 C380.29875 69.7425 379.5975 70.485 378.875 71.25 C373.19362355 76.68436008 366.96186746 80.65383185 359 81 C359 81.66 359 82.32 359 83 C357.8553125 83.2165625 357.8553125 83.2165625 356.6875 83.4375 C353.91827092 83.9632594 353.91827092 83.9632594 351 85 C349 85.66666667 347 86.33333333 345 87 C343.515 87.99 343.515 87.99 342 89 C340.0028635 89.03221188 338.00444427 89.05916359 336.0078125 89.00390625 C333.57646845 88.99917601 331.35397343 89.41150664 329 90 C329 90.66 329 91.32 329 92 C328.44344727 91.97824707 327.88689453 91.95649414 327.31347656 91.93408203 C318.46701302 91.74688359 309.90068515 93.11672029 301.16796875 94.40234375 C271.59253425 98.49740391 241.88922552 98.3186633 212.09667969 98.26074219 C206.18723066 98.24934852 200.27796172 98.25612553 194.36851883 98.26761436 C164.51310487 98.31704691 134.85202541 98.23298629 105.25 93.875 C97.11133096 92.70043262 89.23461659 91.67814903 81 92 C81 91.34 81 90.68 81 90 C80.43152344 89.93941406 79.86304687 89.87882812 79.27734375 89.81640625 C74.50218963 89.29823427 69.7507695 88.70756141 65 88 C65 87.34 65 86.68 65 86 C63.02 86 61.04 86 59 86 C59 85.34 59 84.68 59 84 C58.0925 84.061875 57.185 84.12375 56.25 84.1875 C52.65803146 83.98027105 51.61646422 83.33612877 49 81 C47.10036928 79.94124563 47.10036928 79.94124563 45.2578125 79.6484375 C42.16570983 78.76039417 39.65169765 77.24189765 36.875 75.625 C35.82054687 75.01914062 34.76609375 74.41328125 33.6796875 73.7890625 C31 72 31 72 29 69 C28.360625 68.71125 27.72125 68.4225 27.0625 68.125 C24.29124149 66.61340445 23.59034772 64.7136273 22 62 C20.74238698 60.30262464 19.47074085 58.61558419 18.1875 56.9375 C7.04373411 41.63012927 -1.17704003 19.22498714 0 0 Z " fill="#8A8A8A" transform="translate(20,336)"/>
<path d="M0 0 C0.79921875 0.00902344 1.5984375 0.01804687 2.421875 0.02734375 C3.02515625 0.03894531 3.6284375 0.05054688 4.25 0.0625 C4.25 1.0525 4.25 2.0425 4.25 3.0625 C3.59 3.0625 2.93 3.0625 2.25 3.0625 C2.25 3.7225 2.25 4.3825 2.25 5.0625 C0.93 5.0625 -0.39 5.0625 -1.75 5.0625 C-1.75 5.7225 -1.75 6.3825 -1.75 7.0625 C-3.07 7.3925 -4.39 7.7225 -5.75 8.0625 C-5.75 8.7225 -5.75 9.3825 -5.75 10.0625 C-12.51446083 12.99272727 -19.34489877 15.18689537 -26.453125 17.1328125 C-29.68368834 17.99865092 -29.68368834 17.99865092 -32.5 19.06958008 C-36.06331261 20.15822133 -39.33644384 20.55699561 -43.046875 20.87890625 C-43.72171936 20.94029282 -44.39656372 21.00167938 -45.09185791 21.06492615 C-47.22736515 21.25840952 -49.36353526 21.44241885 -51.5 21.625 C-53.65061517 21.81227132 -55.80098248 22.00164484 -57.95098877 22.19578552 C-59.89104705 22.37050141 -61.83174305 22.53809232 -63.77246094 22.70532227 C-66.67297775 22.88336351 -66.67297775 22.88336351 -68.75 24.0625 C-70.19282111 24.23144749 -71.64202934 24.34755731 -73.09204102 24.43554688 C-73.9895961 24.49230591 -74.88715118 24.54906494 -75.81190491 24.60754395 C-77.26819557 24.69352844 -77.26819557 24.69352844 -78.75390625 24.78125 C-79.7475267 24.84405151 -80.74114716 24.90685303 -81.76487732 24.97155762 C-86.02897087 25.24101378 -90.29366006 25.50042701 -94.55834961 25.76025391 C-97.66544875 25.95100125 -100.77216965 26.1472003 -103.87890625 26.34375 C-105.33823326 26.4297345 -105.33823326 26.4297345 -106.82704163 26.51745605 C-107.72144455 26.57421509 -108.61584747 26.63097412 -109.53735352 26.68945312 C-110.32852066 26.73751099 -111.11968781 26.78556885 -111.93482971 26.83508301 C-113.76828161 26.87620906 -113.76828161 26.87620906 -114.75 28.0625 C-117.5710222 28.17392448 -120.36776233 28.21990722 -123.18969727 28.22363281 C-124.07834473 28.22859772 -124.96699219 28.23356262 -125.88256836 28.23867798 C-128.86052215 28.25341107 -131.83842176 28.2601385 -134.81640625 28.265625 C-135.84780165 28.26845238 -136.87919704 28.27127975 -137.94184685 28.27419281 C-143.45659518 28.28926973 -148.97131705 28.29843083 -154.48608398 28.30273438 C-158.95296811 28.30702991 -163.41964927 28.32054875 -167.88647461 28.34375 C-199.29643742 28.50370586 -230.43032622 27.44634323 -261.75 25.0625 C-263.43822563 24.93602081 -265.12645795 24.80963076 -266.81469727 24.68333435 C-268.40456201 24.56333736 -269.99440683 24.44307588 -271.58422852 24.32250977 C-272.64320768 24.24242141 -272.64320768 24.24242141 -273.72358036 24.1607151 C-286.83413575 23.14994373 -299.29781965 21.43805782 -311.75 17.0625 C-311.75 16.4025 -311.75 15.7425 -311.75 15.0625 C-312.74 15.0625 -313.73 15.0625 -314.75 15.0625 C-314.75 14.4025 -314.75 13.7425 -314.75 13.0625 C-315.41 12.7325 -316.07 12.4025 -316.75 12.0625 C-310.61793683 12.41394236 -306.24787245 13.18861213 -300.75 16.0625 C-299.698125 16.0625 -298.64625 16.0625 -297.5625 16.0625 C-294.75 16.0625 -294.75 16.0625 -293.25 17.5 C-292.755 18.015625 -292.26 18.53125 -291.75 19.0625 C-287.3074771 20.06649705 -283.10241091 20.13654544 -278.5625 20.0625 C-269.68894209 19.97476145 -260.84801329 20.3359994 -251.98364258 20.71142578 C-246.65575667 20.92479399 -241.34803823 21.09661277 -236.015625 21.0234375 C-234.67419434 21.00506836 -234.67419434 21.00506836 -233.30566406 20.98632812 C-231.70830026 20.95580914 -230.11107025 20.91237825 -228.51464844 20.84960938 C-223.87256631 20.7575284 -219.60171163 21.2495795 -215.04060364 22.13265991 C-199.95025988 24.96610115 -184.68046073 24.43843391 -169.39221191 24.32678223 C-166.28451117 24.30773056 -163.17687082 24.30363333 -160.06911945 24.3000679 C-156.29214777 24.2948547 -152.51522545 24.28039807 -148.73828125 24.265625 C-148.04567011 24.26374428 -147.35305897 24.26186356 -146.63945961 24.25992584 C-137.78409354 24.22882147 -129.00481803 23.8980705 -120.17619324 23.26190186 C-117.33560493 23.09658176 -114.58920487 23.06352335 -111.75 23.1875 C-108.10081873 23.255709 -105.60681829 22.18309261 -102.2578125 20.71875 C-98.07218496 19.6234456 -93.76456256 19.94520757 -89.47241211 20.17382812 C-86.21357184 20.29699689 -84.191587 20.34306025 -81.39599609 18.56689453 C-78.22427394 16.76359578 -76.33075553 16.72786735 -72.70703125 16.8046875 C-70.97163086 16.82595703 -70.97163086 16.82595703 -69.20117188 16.84765625 C-68.00041016 16.87730469 -66.79964844 16.90695312 -65.5625 16.9375 C-50.82543045 17.63758092 -50.82543045 17.63758092 -36.75 14.0625 C-34.57377507 13.45784509 -32.38501517 12.89700534 -30.1875 12.375 C-29.07246094 12.10300781 -27.95742188 11.83101563 -26.80859375 11.55078125 C-23.96230408 11.09639273 -22.41534256 11.09150723 -19.75 12.0625 C-18.54371992 9.73035852 -17.5845262 7.56607861 -16.75 5.0625 C-15.04296875 3.9296875 -15.04296875 3.9296875 -12.9375 2.9375 C-12.25042969 2.60492188 -11.56335938 2.27234375 -10.85546875 1.9296875 C-7.14815242 0.40274089 -4.00484982 -0.05889485 0 0 Z " fill="#A2A2A2" transform="translate(395.75,399.9375)"/>
<path d="M0 0 C4.33723062 0.39429369 8.1092874 0.94795132 12.19140625 2.4765625 C16.94917569 4.10722393 21.50534076 4.67547502 26.5 5.0625 C32.11910656 5.52541171 37.46153454 6.25223546 42.95117188 7.55200195 C45.62525505 8.13671866 48.27138711 8.38033408 51 8.5625 C55.89567809 8.89567809 55.89567809 8.89567809 57 10 C85.05888564 13.29099158 113.90345916 12.187939 142.09838867 12.18530273 C146.65604609 12.18522133 151.2136033 12.19220226 155.77124023 12.20581055 C186.95212756 12.29737363 217.47890803 12.15078796 248.3125 7.015625 C257.11064737 5.60940724 265.96875045 4.78610095 274.8359375 3.95141602 C276.00382812 3.83983154 277.17171875 3.72824707 278.375 3.61328125 C279.41398437 3.51829346 280.45296875 3.42330566 281.5234375 3.32543945 C283.99714335 3.13762368 283.99714335 3.13762368 286 2 C287.99960012 1.960008 290.00047242 1.95653201 292 2 C290.06745228 4.0245738 288.36841312 5.42105792 286 7 C284.0028635 7.03221188 282.00444427 7.05916359 280.0078125 7.00390625 C277.57646845 6.99917601 275.35397343 7.41150664 273 8 C273 8.66 273 9.32 273 10 C272.44344727 9.97824707 271.88689453 9.95649414 271.31347656 9.93408203 C262.46701302 9.74688359 253.90068515 11.11672029 245.16796875 12.40234375 C215.59253425 16.49740391 185.88922552 16.3186633 156.09667969 16.26074219 C150.18723066 16.24934852 144.27796172 16.25612553 138.36851883 16.26761436 C108.51310487 16.31704691 78.85202541 16.23298629 49.25 11.875 C41.11133096 10.70043262 33.23461659 9.67814903 25 10 C25 9.34 25 8.68 25 8 C24.14728516 7.90912109 24.14728516 7.90912109 23.27734375 7.81640625 C18.50218963 7.29823427 13.7507695 6.70756141 9 6 C9 5.34 9 4.68 9 4 C7.02 4 5.04 4 3 4 C3 3.34 3 2.68 3 2 C2.01 1.34 1.02 0.68 0 0 Z " fill="#2F2F2F" transform="translate(76,418)"/>
<path d="M0 0 C3.63467274 0.2432381 5.74078117 0.91675362 8.75384521 2.98949814 C11.36891634 6.79317914 11.46006007 9.86462944 11.35694885 14.32050705 C11.35804405 15.5651825 11.35804405 15.5651825 11.35916138 16.8350029 C11.35568771 19.56806745 11.3168385 22.2994115 11.27760315 25.03217697 C11.2682742 26.93074233 11.26115848 28.82931975 11.25616455 30.72790146 C11.23710117 35.71768729 11.18800593 40.70674194 11.13264465 45.69623947 C11.08143801 50.7905399 11.05864748 55.88495882 11.03346252 60.9794426 C10.97988666 70.9699977 10.89458171 80.96001084 10.7893219 90.95014572 C9.7993219 91.28014572 8.8093219 91.61014572 7.7893219 91.95014572 C7.4593219 63.24014572 7.1293219 34.53014572 6.7893219 4.95014572 C-13.36970767 4.09665596 -13.36970767 4.09665596 -33.52122498 3.74482346 C-34.98287698 3.73518519 -36.44452655 3.72517232 -37.90617371 3.71482468 C-41.78064594 3.68841076 -45.65512958 3.6670687 -49.52963829 3.64682269 C-53.61348269 3.62455831 -57.69729467 3.59737264 -61.78111267 3.57076645 C-69.47264355 3.52137434 -77.16419293 3.47624327 -84.85575914 3.43274409 C-93.63005175 3.38290655 -102.40431177 3.32816502 -111.17857265 3.27306449 C-129.18924405 3.16006837 -147.1999464 3.05305863 -165.2106781 2.95014572 C-165.2106781 2.62014572 -165.2106781 2.29014572 -165.2106781 1.95014572 C-130.16164778 1.17713328 -95.10906308 0.75106244 -60.05360413 0.39957809 C-55.15560647 0.35044394 -50.25764478 0.29882815 -45.35969543 0.24509811 C-39.49022326 0.18098246 -33.6207205 0.12243412 -27.75115013 0.06807137 C-25.55630878 0.04693507 -23.36148393 0.02399984 -21.16668129 -0.00083351 C-18.12863609 -0.03478711 -15.09060132 -0.06195633 -12.05247498 -0.08745193 C-10.72663155 -0.10451769 -10.72663155 -0.10451769 -9.37400341 -0.12192822 C-6.24648065 -0.14299291 -3.12640574 -0.07050538 0 0 Z " fill="#747474" transform="translate(311.21067810058594,79.04985427856445)"/>
<path d="M0 0 C-0.33 0.66 -0.66 1.32 -1 2 C-4.63 2 -8.26 2 -12 2 C-12 2.66 -12 3.32 -12 4 C-13.00901367 4.08564209 -14.01802734 4.17128418 -15.05761719 4.25952148 C-18.80757709 4.57867242 -22.55715813 4.90209903 -26.30664062 5.22680664 C-27.92828545 5.36664272 -29.55003019 5.50532514 -31.171875 5.64282227 C-33.50548203 5.84086428 -35.83869614 6.04307701 -38.171875 6.24609375 C-38.89493835 6.3065538 -39.61800171 6.36701385 -40.36297607 6.42930603 C-44.19354198 6.75721421 -44.19354198 6.75721421 -47.95727921 7.50482368 C-50.0959671 8.0232634 -52.06215699 8.20360208 -54.25872803 8.31173706 C-55.08665989 8.35302797 -55.91459175 8.39431889 -56.76761246 8.43686104 C-58.10032495 8.49494344 -58.10032495 8.49494344 -59.45996094 8.55419922 C-60.39219357 8.59630964 -61.32442619 8.63842007 -62.28490829 8.68180656 C-72.07088345 9.09275219 -81.84753858 9.14543563 -91.640625 9.1328125 C-93.54612236 9.13348981 -95.45161963 9.13446333 -97.3571167 9.13571167 C-101.31669959 9.13717007 -105.27625965 9.13509584 -109.23583984 9.13037109 C-114.23218345 9.12468986 -119.22847362 9.12804964 -124.22481537 9.13380814 C-175.00584669 9.18363098 -175.00584669 9.18363098 -195 7 C-195 6.67 -195 6.34 -195 6 C-194.36190053 6.00184359 -193.72380106 6.00368717 -193.06636524 6.00558662 C-177.39225821 6.05015158 -161.71817382 6.08304119 -146.04401875 6.10362434 C-138.4634858 6.11384794 -130.88299566 6.12773281 -123.30249023 6.15087891 C-116.67959899 6.17109106 -110.0567388 6.18378076 -103.43381757 6.18817699 C-99.94132104 6.19073843 -96.44891318 6.19656094 -92.95644569 6.21146011 C-78.75241004 6.26950856 -64.61822942 6.07559595 -50.44213867 5.12060547 C-49.29690137 5.04394213 -48.15166407 4.96727879 -46.9717226 4.88829231 C-36.7971395 4.12634481 -26.78546328 2.56976567 -16.7421875 0.8046875 C-11.13555732 -0.09948436 -5.66691243 -0.18783039 0 0 Z " fill="#515151" transform="translate(342,424)"/>
<path d="M0 0 C1.06945862 -0.0076664 1.06945862 -0.0076664 2.16052246 -0.01548767 C4.51066566 -0.02935096 6.86051418 -0.02842814 9.21069336 -0.02612305 C10.85631925 -0.03001428 12.50194414 -0.03434983 14.14756775 -0.03910828 C17.59824881 -0.04656534 21.04882757 -0.04628478 24.49951172 -0.04101562 C28.89156112 -0.03524859 33.28318501 -0.05208701 37.67516422 -0.0753603 C41.07698459 -0.09020242 44.47870527 -0.09095475 47.88055229 -0.08785057 C49.49784621 -0.08835943 51.11514636 -0.09351413 52.73240852 -0.10366249 C64.89421214 -0.17056421 76.29691953 0.39301252 86.73803711 7.2746582 C86.07803711 7.6046582 85.41803711 7.9346582 84.73803711 8.2746582 C83.06503752 7.62404725 81.39944474 6.95432496 79.73803711 6.2746582 C74.91301709 5.25640456 70.16600322 5.10589631 65.25415039 5.06933594 C64.42422073 5.05943634 63.59429108 5.04953674 62.73921204 5.03933716 C60.01228632 5.00790009 57.28534322 4.98303552 54.55834961 4.95825195 C52.66119957 4.93766704 50.76405396 4.91667017 48.86691284 4.89527893 C43.88573809 4.84021701 38.90452304 4.790738 33.92327881 4.74243164 C28.83545364 4.69210034 23.74768663 4.6364751 18.65991211 4.58129883 C8.68600352 4.47391162 -1.28795567 4.37242386 -11.26196289 4.2746582 C-11.59196289 3.6146582 -11.92196289 2.9546582 -12.26196289 2.2746582 C-8.06857871 0.26041406 -4.62802876 0.01659299 0 0 Z " fill="#6C6C6C" transform="translate(144.261962890625,175.725341796875)"/>
<path d="M0 0 C7.82279645 -0.23899916 15.37262228 0.49940241 23.125 1.5 C24.27226562 1.64308594 25.41953125 1.78617187 26.6015625 1.93359375 C29.40177471 2.28362028 32.20116048 2.6391896 35 3 C35 3.66 35 4.32 35 5 C87.14 4.67 139.28 4.34 193 4 C193 4.33 193 4.66 193 5 C167.59676136 7.46982017 142.20329425 7.27219625 116.70721436 7.19561768 C112.19943156 7.18483835 107.69167901 7.18519483 103.18388557 7.18562126 C82.86237359 7.18517054 62.5447706 7.13667924 42.23046875 6.55078125 C41.18501105 6.52183305 41.18501105 6.52183305 40.118433 6.49230003 C21.97151993 5.97151993 21.97151993 5.97151993 20 4 C16.17828772 3.55193718 12.35796011 3.17718661 8.52539062 2.83789062 C7.72423828 2.75861328 6.92308594 2.67933594 6.09765625 2.59765625 C5.36039307 2.53070557 4.62312988 2.46375488 3.86352539 2.39477539 C2 2 2 2 0 0 Z " fill="#737373" transform="translate(112,424)"/>
<path d="M0 0 C0.79921875 0.00902344 1.5984375 0.01804687 2.421875 0.02734375 C3.02515625 0.03894531 3.6284375 0.05054688 4.25 0.0625 C4.25 1.0525 4.25 2.0425 4.25 3.0625 C3.59 3.0625 2.93 3.0625 2.25 3.0625 C2.25 3.7225 2.25 4.3825 2.25 5.0625 C0.93 5.0625 -0.39 5.0625 -1.75 5.0625 C-1.75 5.7225 -1.75 6.3825 -1.75 7.0625 C-3.07 7.3925 -4.39 7.7225 -5.75 8.0625 C-5.75 8.7225 -5.75 9.3825 -5.75 10.0625 C-12.51446083 12.99272727 -19.34489877 15.18689537 -26.453125 17.1328125 C-29.68481072 17.99957612 -29.68481072 17.99957612 -32.50878906 19.06958008 C-36.02395464 20.14642389 -39.2459468 20.55476692 -42.90625 20.87890625 C-43.9042865 20.9709861 -43.9042865 20.9709861 -44.92248535 21.06492615 C-47.03111223 21.25835504 -49.14043119 21.44215782 -51.25 21.625 C-53.35937138 21.81313834 -55.4685315 22.00334437 -57.57751465 22.19578552 C-59.49077733 22.36955395 -61.4045571 22.53760113 -63.31835938 22.70532227 C-66.49408817 23.03586376 -69.60804364 23.49967633 -72.75 24.0625 C-72.75 23.4025 -72.75 22.7425 -72.75 22.0625 C-68.16789523 20.71151088 -63.48835925 20.64518799 -58.74609375 20.34375 C-55.70106732 20.17184377 -55.70106732 20.17184377 -52.75 19.0625 C-52.42 18.4025 -52.09 17.7425 -51.75 17.0625 C-49.640625 16.71875 -49.640625 16.71875 -47 16.5625 C-43.13740387 16.33120682 -40.31241541 15.54459416 -36.75 14.0625 C-34.57377507 13.45784509 -32.38501517 12.89700534 -30.1875 12.375 C-28.51494141 11.96701172 -28.51494141 11.96701172 -26.80859375 11.55078125 C-23.96230408 11.09639273 -22.41534256 11.09150723 -19.75 12.0625 C-18.54371992 9.73035852 -17.5845262 7.56607861 -16.75 5.0625 C-15.04296875 3.9296875 -15.04296875 3.9296875 -12.9375 2.9375 C-12.25042969 2.60492188 -11.56335938 2.27234375 -10.85546875 1.9296875 C-7.14815242 0.40274089 -4.00484982 -0.05889485 0 0 Z " fill="#979797" transform="translate(395.75,399.9375)"/>
<path d="M0 0 C0.66903673 -0.00085442 1.33807347 -0.00170885 2.02738404 -0.00258917 C4.26757125 -0.00423533 6.50768346 0.00126326 8.74786377 0.00672913 C10.35434467 0.00701121 11.9608257 0.00685285 13.56730652 0.00628662 C17.92851209 0.00599947 22.28969021 0.01188289 26.6508894 0.01886058 C31.20862375 0.02510784 35.76635871 0.025699 40.32409668 0.02688599 C48.95484078 0.02999524 57.58557222 0.03820319 66.21631074 0.04823548 C76.04209149 0.05940918 85.86787283 0.06491024 95.69365835 0.06993091 C115.90606983 0.08038612 136.11846991 0.09797774 156.33087158 0.12025452 C156.33087158 0.45025452 156.33087158 0.78025452 156.33087158 1.12025452 C121.02087158 1.45025452 85.71087158 1.78025452 49.33087158 2.12025452 C50.65087158 2.78025452 51.97087158 3.44025452 53.33087158 4.12025452 C32.54087158 4.45025452 11.75087158 4.78025452 -9.66912842 5.12025452 C-9.99912842 6.44025452 -10.32912842 7.76025452 -10.66912842 9.12025452 C-10.99912842 9.78025452 -11.32912842 10.44025452 -11.66912842 11.12025452 C-12.65912842 10.46025452 -13.64912842 9.80025452 -14.66912842 9.12025452 C-15.10662842 6.68275452 -15.10662842 6.68275452 -14.66912842 4.12025452 C-10.41736839 -0.13150551 -5.74314885 -0.00441781 0 0 Z " fill="#4A4A4A" transform="translate(152.66912841796875,78.87974548339844)"/>
<path d="M0 0 C0.268125 0.639375 0.53625 1.27875 0.8125 1.9375 C1.88667752 4.33131686 1.88667752 4.33131686 5 5 C4.89300781 5.72703125 4.78601563 6.4540625 4.67578125 7.203125 C3.42188292 17.71969167 5.53016827 26.50160756 10 36 C10.52306059 37.26991824 11.04389873 38.54075417 11.5625 39.8125 C12.78171388 43.01764194 12.78171388 43.01764194 15 45 C15.268125 45.969375 15.53625 46.93875 15.8125 47.9375 C17.28694299 51.74001087 18.46380129 52.11402735 22 54 C23.14167771 54.98091641 24.26553958 55.98278685 25.375 57 C27.79262672 59.15783789 29.82759122 60.46967923 32.875 61.5625 C33.90625 62.036875 34.9375 62.51125 36 63 C36.6953125 65.58984375 36.6953125 65.58984375 37 68 C37.80824219 68.03738281 38.61648437 68.07476562 39.44921875 68.11328125 C40.51785156 68.17902344 41.58648437 68.24476563 42.6875 68.3125 C43.74324219 68.37050781 44.79898438 68.42851562 45.88671875 68.48828125 C49.26740543 69.04395246 51.25800834 69.97331051 54 72 C54.8125 74.1875 54.8125 74.1875 55 76 C54.29488281 75.68675781 53.58976562 75.37351562 52.86328125 75.05078125 C49.91112412 73.96738388 47.30291167 73.55906286 44.1875 73.1875 C38.66759341 72.32310032 34.15265801 70.85451846 30 67 C29.33129226 65.66768916 28.66453929 64.3343949 28 63 C25.31044671 60.9291867 25.31044671 60.9291867 23.0234375 60.61328125 C17.97396356 59.08284224 14.94488134 52.58703371 12.390625 48.296875 C4.97956315 34.315181 -0.97598446 15.94107953 0 0 Z " fill="#9F9F9F" transform="translate(20,336)"/>
<path d="M0 0 C0.33 0.66 0.66 1.32 1 2 C1.99 2.33 2.98 2.66 4 3 C4.350625 3.763125 4.70125 4.52625 5.0625 5.3125 C8.32584645 9.83907733 13.71265216 11.43593478 19.1171875 12.36328125 C19.75914063 12.42902344 20.40109375 12.49476563 21.0625 12.5625 C26.31729185 13.14636576 31.26194103 14.63097052 36 17 C36 17.66 36 18.32 36 19 C36.99 19 37.98 19 39 19 C39 19.66 39 20.32 39 21 C39.80695313 21.12246094 40.61390625 21.24492187 41.4453125 21.37109375 C45.6318337 22.11178596 49.74197565 23.07127467 53.875 24.0625 C54.65875 24.24876953 55.4425 24.43503906 56.25 24.62695312 C58.16709281 25.08284715 60.0836065 25.54117527 62 26 C62 26.66 62 27.32 62 28 C53.3762242 27.74141602 46.01186305 26.56693555 37.8515625 23.77734375 C35.14722287 23.04013336 33.63725485 22.89180487 30.9375 23.4375 C28 24 28 24 25.6875 22.625 C25.130625 22.08875 24.57375 21.5525 24 21 C22.10036928 19.94124563 22.10036928 19.94124563 20.2578125 19.6484375 C17.16570983 18.76039417 14.65169765 17.24189765 11.875 15.625 C10.82054687 15.01914062 9.76609375 14.41328125 8.6796875 13.7890625 C6 12 6 12 4 9 C3.360625 8.71125 2.72125 8.4225 2.0625 8.125 C-0.68143939 6.62830579 -1.56831952 4.72019292 -3 2 C-2.01 1.34 -1.02 0.68 0 0 Z " fill="#939393" transform="translate(45,396)"/>
<path d="M0 0 C0.79062332 -0.00029205 1.58124664 -0.00058411 2.39582825 -0.00088501 C5.00390676 0.00050611 7.61169807 0.01605699 10.21972656 0.03173828 C12.03004805 0.03546919 13.84037157 0.03831579 15.6506958 0.04031372 C20.41169831 0.04794407 25.17257848 0.06758745 29.93353271 0.08972168 C34.79323675 0.11019298 39.65296058 0.11931819 44.51269531 0.12939453 C54.0453011 0.15083387 63.57781615 0.18496264 73.11035156 0.22705078 C73.11035156 0.88705078 73.11035156 1.54705078 73.11035156 2.22705078 C69.20978329 3.73408852 67.08723462 4.39672227 63.11035156 3.22705078 C59.30591273 3.10432695 55.97934564 3.06507501 52.23925781 3.76220703 C48.95802545 4.249681 46.21885921 4.11473546 42.92285156 3.78955078 C36.95344925 3.29952522 31.03718481 3.11068675 25.04785156 3.10205078 C24.23872314 3.09761963 23.42959473 3.09318848 22.59594727 3.08862305 C18.61894861 3.09819414 14.99618088 3.29654865 11.11035156 4.22705078 C6.65800225 5.10053621 2.52071112 5.30541553 -2.01464844 5.22705078 C-7.53174845 5.11222815 -7.53174845 5.11222815 -12.88964844 6.22705078 C-12.63964844 4.35205078 -12.63964844 4.35205078 -11.88964844 2.22705078 C-8.26635224 -0.38150329 -4.27578854 -0.04137832 0 0 Z " fill="#AAAAAA" transform="translate(238.8896484375,273.77294921875)"/>
<path d="M0 0 C0.33 0 0.66 0 1 0 C1.13956233 6.80366377 0.64655354 13.32048546 -0.25 20.0625 C-0.38059814 21.06095947 -0.51119629 22.05941895 -0.64575195 23.08813477 C-1.81828845 31.57490355 -3.64666145 39.769288 -6 48 C-6.66 48 -7.32 48 -8 48 C-8.33 48.99 -8.66 49.98 -9 51 C-10.62332967 52.38576923 -12.28724465 53.72641268 -14 55 C-15.37011752 51.93876599 -14.90990847 50.740154 -13.78515625 47.49609375 C-13.2163227 46.14095606 -12.64181949 44.78818823 -12.0625 43.4375 C-9.62229231 37.44294343 -8.55890237 32.74621212 -8.98046875 26.20703125 C-9.00789956 23.10734988 -7.9236891 21.36761735 -6 19 C-5.34 18.01 -4.68 17.02 -4 16 C-3.34 16 -2.68 16 -2 16 C-1.34 10.72 -0.68 5.44 0 0 Z " fill="#CFCFCF" transform="translate(431,318)"/>
<path d="M0 0 C6.13206317 0.35144236 10.50212755 1.12611213 16 4 C17.051875 4 18.10375 4 19.1875 4 C22 4 22 4 23.5 5.4375 C23.995 5.953125 24.49 6.46875 25 7 C29.61266904 8.0580785 34.10974317 8.08190102 38.8125 8 C44.94945421 7.95271472 51.05842006 8.05117409 57.1875 8.375 C58.22837769 8.42140625 58.22837769 8.42140625 59.2902832 8.46875 C63.48991635 8.71449228 67.07417589 9.49805174 71 11 C71 11.66 71 12.32 71 13 C60.30123724 13.15182477 49.78599046 12.82052273 39.125 11.8125 C38.43631836 11.74952728 37.74763672 11.68655457 37.03808594 11.62167358 C25.97876956 10.58774404 15.50457559 8.69119115 5 5 C5 4.34 5 3.68 5 3 C4.01 3 3.02 3 2 3 C2 2.34 2 1.68 2 1 C1.34 0.67 0.68 0.34 0 0 Z " fill="#A3A2A3" transform="translate(79,412)"/>
<path d="M0 0 C0.33 0 0.66 0 1 0 C1 26.07 1 52.14 1 79 C-1.78845473 76.21154527 -1.35211991 73.57470574 -1.4140625 69.8359375 C-1.4431797 68.73702934 -1.4431797 68.73702934 -1.47288513 67.61592102 C-1.53364509 65.20240118 -1.57971518 62.78885605 -1.625 60.375 C-1.66291143 58.71198585 -1.70124528 57.04898127 -1.73999023 55.38598633 C-2.08656882 39.59141587 -2.10666161 23.79740466 -2 8 C-1.67 8 -1.34 8 -1 8 C-0.67 5.36 -0.34 2.72 0 0 Z " fill="#C7C7C7" transform="translate(127,190)"/>
<path d="M0 0 C1.22401385 3.67204155 1.13170361 7.04560516 1.11352539 10.86791992 C1.11367142 11.66815079 1.11381744 12.46838165 1.1139679 13.29286194 C1.11327105 15.93875842 1.10548929 18.58458456 1.09765625 21.23046875 C1.09579126 23.06464093 1.09436774 24.8988136 1.09336853 26.73298645 C1.08954972 31.56136449 1.07972484 36.38971246 1.06866455 41.21807861 C1.05843677 46.14473056 1.05386798 51.07138737 1.04882812 55.99804688 C1.03810203 65.66537779 1.02103321 75.3326864 1 85 C0.01 85 -0.98 85 -2 85 C-2.04632432 74.50801337 -2.08186972 64.01605104 -2.10362434 53.523983 C-2.11406504 48.65218241 -2.12822952 43.78045175 -2.15087891 38.90869141 C-2.172597 34.20787111 -2.18456647 29.50711812 -2.18975449 24.80625153 C-2.19345209 23.0120869 -2.20067251 21.21792598 -2.21146011 19.42378998 C-2.22596128 16.91232825 -2.22797852 14.40114524 -2.22705078 11.88964844 C-2.23424133 11.14661972 -2.24143188 10.403591 -2.24884033 9.63804626 C-2.23399873 5.92919606 -2.06034756 3.14942395 0 0 Z " fill="#606060" transform="translate(224,276)"/>
<path d="M0 0 C1.8240225 4.82225947 -0.44186841 8.29275064 -2.40625 12.76171875 C-6.06640735 20.19865611 -10.63765583 26.71839683 -16 33 C-16.350625 33.7425 -16.70125 34.485 -17.0625 35.25 C-18.28374255 37.52965275 -19.64557703 38.05823081 -22 39 C-21.01 37.68 -20.02 36.36 -19 35 C-20.32 34.67 -21.64 34.34 -23 34 C-22.875 31.8125 -22.875 31.8125 -22 29 C-20.55158676 27.71252156 -19.09445384 26.42938263 -17.55078125 25.2578125 C-15.33851837 23.46348341 -13.75938258 21.22855126 -12 19 C-11.319375 18.525625 -10.63875 18.05125 -9.9375 17.5625 C-7.3272153 15.4574317 -6.34561433 13.02763225 -5 10 C-4.34 10 -3.68 10 -3 10 C-3.20625 9.05125 -3.4125 8.1025 -3.625 7.125 C-3.74875 6.09375 -3.8725 5.0625 -4 4 C-2.66666667 2.66666667 -1.33333333 1.33333333 0 0 Z " fill="#A1A1A1" transform="translate(423,366)"/>
<path d="M0 0 C1.65 0 3.3 0 5 0 C-1.07699168 7.42743428 -8.04792607 15.45887352 -18.125 16.875 C-19.07375 16.91625 -20.0225 16.9575 -21 17 C-21 17.66 -21 18.32 -21 19 C-21.763125 19.144375 -22.52625 19.28875 -23.3125 19.4375 C-26.08172908 19.9632594 -26.08172908 19.9632594 -29 21 C-31.02094072 21 -33.04198 20.9787351 -35.0625 20.9375 C-37.93459792 20.78892965 -37.93459792 20.78892965 -40 22 C-41.99960012 22.039992 -44.00047242 22.04346799 -46 22 C-39.350463 17.56697533 -30.93941634 16.12486297 -23.32421875 13.984375 C-20.57611431 13.17060024 -17.9214501 12.28159822 -15.25 11.25 C-12 10 -12 10 -10 10 C-10 9.34 -10 8.68 -10 8 C-8.68 7.67 -7.36 7.34 -6 7 C-6 6.34 -6 5.68 -6 5 C-4.68 5 -3.36 5 -2 5 C-2 4.34 -2 3.68 -2 3 C-1.34 3 -0.68 3 0 3 C0 2.01 0 1.02 0 0 Z " fill="#565656" transform="translate(400,400)"/>
<path d="M0 0 C-1.93254772 2.0245738 -3.63158688 3.42105792 -6 5 C-7.9971365 5.03221188 -9.99555573 5.05916359 -11.9921875 5.00390625 C-14.42353155 4.99917601 -16.64602657 5.41150664 -19 6 C-19 6.66 -19 7.32 -19 8 C-19.5369751 7.97607178 -20.0739502 7.95214355 -20.62719727 7.92749023 C-29.53657427 7.71608129 -38.25489903 9.09989 -47.04760742 10.36645508 C-55.51757008 11.57532377 -63.4638568 12.32970546 -72 11 C-72 10.67 -72 10.34 -72 10 C-68.02132817 9.66058296 -64.04199752 9.32958345 -60.0625 9 C-58.94552734 8.90460938 -57.82855469 8.80921875 -56.67773438 8.7109375 C-50.42573608 8.19757694 -44.27276963 7.89356913 -38 8 C-38 7.34 -38 6.68 -38 6 C-37.24074219 5.95101563 -36.48148437 5.90203125 -35.69921875 5.8515625 C-34.70535156 5.77679688 -33.71148437 5.70203125 -32.6875 5.625 C-31.70136719 5.55539062 -30.71523438 5.48578125 -29.69921875 5.4140625 C-26.78471567 5.16134528 -26.78471567 5.16134528 -24 3 C-21.29919178 2.566397 -18.65372936 2.21368601 -15.9375 1.9375 C-10.42413127 1.35076507 -5.5146007 -0.11988262 0 0 Z " fill="#454545" transform="translate(368,420)"/>
<path d="M0 0 C-7.14981471 4.76654314 -16.96930006 4.46868854 -25.33081055 5.24560547 C-30.50261021 5.72975763 -35.61377768 6.35157098 -40.75 7.125 C-48.52142925 8.21932667 -56.17389856 8.18511147 -64 8 C-64 7.67 -64 7.34 -64 7 C-61.69 7 -59.38 7 -57 7 C-57 6.34 -57 5.68 -57 5 C-56.19256348 4.94465088 -55.38512695 4.88930176 -54.55322266 4.83227539 C-50.91016181 4.58007964 -47.26759214 4.32137374 -43.625 4.0625 C-42.35398437 3.97548828 -41.08296875 3.88847656 -39.7734375 3.79882812 C-38.56171875 3.71181641 -37.35 3.62480469 -36.1015625 3.53515625 C-34.98088379 3.456604 -33.86020508 3.37805176 -32.70556641 3.29711914 C-30.03529587 3.16219131 -30.03529587 3.16219131 -28 2 C-26.49106962 1.78062737 -24.97495562 1.60941504 -23.45703125 1.46484375 C-22.54759766 1.37783203 -21.63816406 1.29082031 -20.70117188 1.20117188 C-19.2712793 1.0706543 -19.2712793 1.0706543 -17.8125 0.9375 C-16.87857422 0.84662109 -15.94464844 0.75574219 -14.98242188 0.66210938 C-9.96360777 0.19236815 -5.04023068 -0.1045691 0 0 Z " fill="#888888" transform="translate(357,420)"/>
<path d="M0 0 C1.60222412 0.0012085 1.60222412 0.0012085 3.23681641 0.00244141 C23.40881348 0.15881348 23.40881348 0.15881348 27.4375 4.1875 C14.2375 4.1875 1.0375 4.1875 -12.5625 4.1875 C-12.5625 3.5275 -12.5625 2.8675 -12.5625 2.1875 C-14.2125 2.1875 -15.8625 2.1875 -17.5625 2.1875 C-17.5625 1.8575 -17.5625 1.5275 -17.5625 1.1875 C-11.72582083 -0.06393207 -5.93982617 -0.00459099 0 0 Z " fill="#B0B0B0" transform="translate(162.5625,420.8125)"/>
<path d="M0 0 C0.33 0.66 0.66 1.32 1 2 C3.18146145 2.61797251 3.18146145 2.61797251 5.75 3 C8.55245921 3.50341205 10.92729616 3.96985451 13.5625 5.0625 C16.44855758 6.17252215 19.20255627 6.30829922 22.26171875 6.5859375 C26.88501027 7.28503722 31.29690962 8.71195491 35.765625 10.0625 C38.50631346 10.85690245 41.19446664 11.49373834 44 12 C44 12.66 44 13.32 44 14 C35.3762242 13.74141602 28.01186305 12.56693555 19.8515625 9.77734375 C17.14722287 9.04013336 15.63725485 8.89180487 12.9375 9.4375 C10 10 10 10 7.6875 8.625 C7.130625 8.08875 6.57375 7.5525 6 7 C4.05887681 5.92704396 4.05887681 5.92704396 2 5.5625 C0 5 0 5 -2 3 C-2 2.34 -2 1.68 -2 1 C-1.34 0.67 -0.68 0.34 0 0 Z " fill="#6D6D6D" transform="translate(63,410)"/>
<path d="M0 0 C-0.33 0.66 -0.66 1.32 -1 2 C-4.63 2 -8.26 2 -12 2 C-12 2.66 -12 3.32 -12 4 C-13.51352051 4.12846313 -13.51352051 4.12846313 -15.05761719 4.25952148 C-18.80757709 4.57867242 -22.55715813 4.90209903 -26.30664062 5.22680664 C-27.92828545 5.36664272 -29.55003019 5.50532514 -31.171875 5.64282227 C-33.50548203 5.84086428 -35.83869614 6.04307701 -38.171875 6.24609375 C-38.89493835 6.3065538 -39.61800171 6.36701385 -40.36297607 6.42930603 C-43.67362161 6.72118401 -46.78915725 7.15974605 -50 8 C-52.75970408 8.06926968 -55.49196042 8.0941736 -58.25 8.0625 C-58.99507813 8.05798828 -59.74015625 8.05347656 -60.5078125 8.04882812 C-62.3385764 8.03709246 -64.16929873 8.0191585 -66 8 C-66 7.34 -66 6.68 -66 6 C-65.25766113 5.96036133 -64.51532227 5.92072266 -63.75048828 5.87988281 C-48.91533956 5.05532825 -34.38986494 3.91051938 -19.74267578 1.32128906 C-13.09025909 0.17592586 -6.74854953 -0.22368136 0 0 Z " fill="#5B5B5B" transform="translate(342,424)"/>
<path d="M0 0 C0.33 0 0.66 0 1 0 C1 41.58 1 83.16 1 126 C0.67 126 0.34 126 0 126 C0 84.42 0 42.84 0 0 Z " fill="#EBEBEB" transform="translate(14,162)"/>
<path d="M0 0 C0.33 0 0.66 0 1 0 C1 41.58 1 83.16 1 126 C0.67 126 0.34 126 0 126 C0 84.42 0 42.84 0 0 Z " fill="#E8E8E8" transform="translate(435,162)"/>
<path d="M0 0 C4.33723062 0.39429369 8.1092874 0.94795132 12.19140625 2.4765625 C16.94917569 4.10722393 21.50534076 4.67547502 26.5 5.0625 C32.12047201 5.5255242 37.46060153 6.25520817 42.95117188 7.55639648 C46.54077561 8.33360216 50.15569102 8.45309395 53.8125 8.65625 C54.8953125 8.82640625 54.8953125 8.82640625 56 9 C56.495 9.99 56.495 9.99 57 11 C46.44 10.67 35.88 10.34 25 10 C25 9.34 25 8.68 25 8 C24.14728516 7.90912109 24.14728516 7.90912109 23.27734375 7.81640625 C18.50218963 7.29823427 13.7507695 6.70756141 9 6 C9 5.34 9 4.68 9 4 C7.02 4 5.04 4 3 4 C3 3.34 3 2.68 3 2 C2.01 1.34 1.02 0.68 0 0 Z " fill="#464646" transform="translate(76,418)"/>
<path d="M0 0 C1.80791016 0.00966797 1.80791016 0.00966797 3.65234375 0.01953125 C5.53373047 0.04466797 5.53373047 0.04466797 7.453125 0.0703125 C8.72285156 0.07933594 9.99257812 0.08835937 11.30078125 0.09765625 C14.43508593 0.12122245 17.56901041 0.15412418 20.703125 0.1953125 C12.38790139 4.40612958 5.13928973 5.51358849 -4.1953125 5.203125 C-6.83192629 5.19648366 -8.80892804 5.39867924 -11.296875 6.1953125 C-11.046875 4.3203125 -11.046875 4.3203125 -10.296875 2.1953125 C-6.93537807 -0.08307954 -3.98309088 -0.03757633 0 0 Z " fill="#939393" transform="translate(237.296875,273.8046875)"/>
<path d="M0 0 C33.66 0 67.32 0 102 0 C102 0.33 102 0.66 102 1 C68.34 1 34.68 1 0 1 C0 0.67 0 0.34 0 0 Z " fill="#4F4F4F" transform="translate(174,435)"/>
<path d="M0 0 C33.66 0 67.32 0 102 0 C102 0.33 102 0.66 102 1 C68.34 1 34.68 1 0 1 C0 0.67 0 0.34 0 0 Z " fill="#F3F3F3" transform="translate(174,14)"/>
<path d="M0 0 C8.73881258 -0.09843468 17.45792821 -0.08027941 26.1875 0.375 C26.88093506 0.40585693 27.57437012 0.43671387 28.28881836 0.46850586 C32.48892344 0.71460776 36.07366444 1.49785607 40 3 C40 3.66 40 4.32 40 5 C37.4580411 5.05434116 34.91726318 5.0938339 32.375 5.125 C31.66214844 5.14175781 30.94929688 5.15851563 30.21484375 5.17578125 C25.67052512 5.21747225 22.3264211 4.50100324 18 3 C14.88804876 2.4904118 11.76279488 2.18027191 8.625 1.875 C7.79355469 1.78863281 6.96210937 1.70226562 6.10546875 1.61328125 C4.07092853 1.40281157 2.0355403 1.20056686 0 1 C0 0.67 0 0.34 0 0 Z " fill="#A5A5A5" transform="translate(110,420)"/>
<path d="M0 0 C1.15693359 0.01289063 2.31386719 0.02578125 3.50585938 0.0390625 C4.70404297 0.07257813 5.90222656 0.10609375 7.13671875 0.140625 C8.96299805 0.16769531 8.96299805 0.16769531 10.82617188 0.1953125 C13.82632297 0.24237369 16.82486764 0.3081119 19.82421875 0.390625 C19.82421875 1.380625 19.82421875 2.370625 19.82421875 3.390625 C16.46686738 4.50974212 13.94216489 4.50428086 10.40625 4.48828125 C9.15263672 4.48505859 7.89902344 4.48183594 6.60742188 4.47851562 C5.29708984 4.47013672 3.98675781 4.46175781 2.63671875 4.453125 C1.30143394 4.44810817 -0.03385266 4.44354559 -1.36914062 4.43945312 C-4.63806598 4.42765195 -7.90690116 4.41118797 -11.17578125 4.390625 C-7.38854774 0.85138334 -5.16751316 -0.10182292 0 0 Z " fill="#B3B2B3" transform="translate(323.17578125,416.609375)"/>
<path d="M0 0 C7.82279645 -0.23899916 15.37262228 0.49940241 23.125 1.5 C24.27226562 1.64308594 25.41953125 1.78617187 26.6015625 1.93359375 C29.40177471 2.28362028 32.20116048 2.6391896 35 3 C35 3.66 35 4.32 35 5 C40.61 5 46.22 5 52 5 C52 5.33 52 5.66 52 6 C48.14584948 6.02923559 44.29172785 6.04687777 40.4375 6.0625 C39.35146484 6.07087891 38.26542969 6.07925781 37.14648438 6.08789062 C31.66486685 6.10455208 26.38551717 6.08012476 21 5 C20.67 4.67 20.34 4.34 20 4 C16.17828772 3.55193718 12.35796011 3.17718661 8.52539062 2.83789062 C7.72423828 2.75861328 6.92308594 2.67933594 6.09765625 2.59765625 C5.36039307 2.53070557 4.62312988 2.46375488 3.86352539 2.39477539 C2 2 2 2 0 0 Z " fill="#6B6B6B" transform="translate(112,424)"/>
<path d="M0 0 C0.99 0.33 1.98 0.66 3 1 C5.41694524 1.11920162 7.80737435 1.18516857 10.2253418 1.20532227 C10.95729767 1.21522186 11.68925354 1.22512146 12.44338989 1.23532104 C14.86196665 1.26690011 17.28056304 1.29167923 19.69921875 1.31640625 C21.37645477 1.33697888 23.05368564 1.35797544 24.73091125 1.37937927 C29.14494659 1.43456801 33.55902846 1.48399139 37.97314453 1.53222656 C42.47758119 1.58246493 46.98195028 1.63813881 51.48632812 1.69335938 C60.32416102 1.80090183 69.16205259 1.90235551 78 2 C78 2.33 78 2.66 78 3 C51.93 3 25.86 3 -1 3 C-1.33 2.34 -1.66 1.68 -2 1 C-1.34 0.67 -0.68 0.34 0 0 Z " fill="#575757" transform="translate(134,177)"/>
<path d="M0 0 C3.30702058 1.39912409 5.65831995 3.42759246 8.34375 5.77734375 C10.1186885 7.08761675 11.7426913 7.75775303 13.8125 8.5 C14.864375 8.995 15.91625 9.49 17 10 C17.9375 12.6875 17.9375 12.6875 18 15 C13.27511859 14.71364355 11.00911788 12.50991463 7.74609375 9.375 C5.82876372 7.86515622 4.38192974 7.41696801 2 7 C1.34 4.69 0.68 2.38 0 0 Z " fill="#AEAEAE" transform="translate(39,389)"/>
<path d="M0 0 C1.52822957 3.90547557 0.42350339 6.35110251 -1.125 10.125 C-1.54007812 11.17945313 -1.95515625 12.23390625 -2.3828125 13.3203125 C-4.26783088 16.44379706 -5.54217972 17.05695811 -9 18 C-7.68 15.36 -6.36 12.72 -5 10 C-4.34 10 -3.68 10 -3 10 C-3.20625 9.05125 -3.4125 8.1025 -3.625 7.125 C-3.74875 6.09375 -3.8725 5.0625 -4 4 C-2.66666667 2.66666667 -1.33333333 1.33333333 0 0 Z M-10 18 C-9.67 19.32 -9.34 20.64 -9 22 C-9.61875 22.144375 -10.2375 22.28875 -10.875 22.4375 C-13.03258322 22.93152225 -13.03258322 22.93152225 -15 24 C-13.63016497 20.83884224 -13.0109362 20.0072908 -10 18 Z M-18 26 C-18 29 -18 29 -19.375 30.6875 C-21 32 -21 32 -23 32 C-21.63016497 28.83884224 -21.0109362 28.0072908 -18 26 Z " fill="#B9B9B9" transform="translate(423,366)"/>
<path d="M0 0 C0.33 0.66 0.66 1.32 1 2 C1.99 2.33 2.98 2.66 4 3 C4.391875 3.763125 4.78375 4.52625 5.1875 5.3125 C7.14599779 8.21647948 8.03008191 8.64838693 11.125 10 C13.2578125 10.953125 13.2578125 10.953125 15 12 C16 14.75 16 14.75 16 17 C11.53828494 15.42527704 6.20311486 13.40622971 4 9 C3.38125 8.731875 2.7625 8.46375 2.125 8.1875 C-0.64126132 6.64164808 -1.54655436 4.76154672 -3 2 C-2.01 1.34 -1.02 0.68 0 0 Z " fill="#6E6E6E" transform="translate(45,396)"/>
<path d="M0 0 C-3.17847638 2.68948001 -6.07635219 3.6921174 -10 5 C-13.37181237 6.59253292 -16.68666958 8.28970174 -20 10 C-20.99 10.495 -20.99 10.495 -22 11 C-21.690625 10.401875 -21.38125 9.80375 -21.0625 9.1875 C-19.89790296 6.91043228 -19.89790296 6.91043228 -19 4 C-17.29296875 2.8671875 -17.29296875 2.8671875 -15.1875 1.875 C-14.15689453 1.37613281 -14.15689453 1.37613281 -13.10546875 0.8671875 C-8.34563328 -1.09326421 -5.11322927 -0.88498199 0 0 Z " fill="#B9B9B9" transform="translate(398,401)"/>
<path d="M0 0 C0.33 0.99 0.66 1.98 1 3 C0.34 3 -0.32 3 -1 3 C-1 3.66 -1 4.32 -1 5 C-2.32 5 -3.64 5 -5 5 C-5 5.66 -5 6.32 -5 7 C-16.52164009 11.40774487 -16.52164009 11.40774487 -22 12 C-19.90949648 8.86424472 -19.29689066 8.43424201 -16 7.0625 C-15.2059375 6.72734375 -14.411875 6.3921875 -13.59375 6.046875 C-10.06028706 4.62071827 -6.521944 3.20834559 -2.96875 1.83203125 C-1.03477905 1.16013407 -1.03477905 1.16013407 0 0 Z " fill="#9C9C9C" transform="translate(399,400)"/>
<path d="M0 0 C7.17503251 -0.25175553 7.17503251 -0.25175553 11.09765625 0.9453125 C16.82838423 2.68385661 22.84785123 2.78087663 28.7890625 3.2109375 C29.70171875 3.28570312 30.614375 3.36046875 31.5546875 3.4375 C32.38468262 3.49808594 33.21467773 3.55867188 34.06982422 3.62109375 C34.70678223 3.74613281 35.34374023 3.87117188 36 4 C36.495 4.99 36.495 4.99 37 6 C32.70698729 5.74834687 28.41607391 5.47015891 24.125 5.1875 C22.92101562 5.11724609 21.71703125 5.04699219 20.4765625 4.97460938 C13.27144431 4.48513124 6.79883706 3.47078731 0 1 C0 0.67 0 0.34 0 0 Z " fill="#969696" transform="translate(92,418)"/>
<path d="M0 0 C6.70405557 -0.10990255 13.36794421 0.1078083 20.0625 0.4375 C20.92012939 0.47673584 21.77775879 0.51597168 22.66137695 0.55639648 C28.88112742 0.88112742 28.88112742 0.88112742 30 2 C31.68183948 2.23287008 33.3712416 2.41264166 35.0625 2.5625 C36.44115234 2.68818359 36.44115234 2.68818359 37.84765625 2.81640625 C38.91306641 2.90728516 38.91306641 2.90728516 40 3 C40 3.33 40 3.66 40 4 C26.50531285 4.59244968 13.35398471 2.78792816 0 1 C0 0.67 0 0.34 0 0 Z " fill="#383838" transform="translate(117,428)"/>
<path d="M0 0 C0.66 0.33 1.32 0.66 2 1 C2 1.66 2 2.32 2 3 C2.54140625 3.21398437 3.0828125 3.42796875 3.640625 3.6484375 C6.8392797 5.48077943 9.20964484 7.99796606 11.75 10.625 C12.25660156 11.140625 12.76320312 11.65625 13.28515625 12.1875 C14.52803902 13.45383339 15.76465276 14.7263144 17 16 C16.67 16.66 16.34 17.32 16 18 C15.01 18 14.02 18 13 18 C13 16.68 13 15.36 13 14 C12.1028125 13.8453125 12.1028125 13.8453125 11.1875 13.6875 C8.68741714 12.90175967 7.62464918 12.03081147 6 10 C6 9.34 6 8.68 6 8 C5.01 7.67 4.02 7.34 3 7 C1.04783565 5.04783565 0.15173355 3.46800047 -1 1 C-0.67 0.67 -0.34 0.34 0 0 Z " fill="#A6A6A6" transform="translate(200,346)"/>
<path d="M0 0 C4.41562483 -0.43290439 6.34721796 -0.50000327 9.9375 2.25 C12 5 12 5 12 9 C11.34 9 10.68 9 10 9 C9.34 7.35 8.68 5.7 8 4 C0.08 3.67 -7.84 3.34 -16 3 C-16 2.67 -16 2.34 -16 2 C-8.08 1.505 -8.08 1.505 0 1 C0 0.67 0 0.34 0 0 Z " fill="#414141" transform="translate(310,80)"/>
<path d="M0 0 C0 0.33 0 0.66 0 1 C-4.1018691 1.5400651 -8.20667714 2.05344021 -12.3125 2.5625 C-13.46041016 2.71396484 -14.60832031 2.86542969 -15.79101562 3.02148438 C-23.05576177 3.90642512 -29.74670563 4.01463332 -37 3 C-37 2.67 -37 2.34 -37 2 C-33.08401182 1.65837319 -29.16712818 1.32827575 -25.25 1 C-24.15816406 0.90460938 -23.06632812 0.80921875 -21.94140625 0.7109375 C-14.60876502 0.10349976 -7.35665341 -0.11978269 0 0 Z " fill="#3A3A3A" transform="translate(333,428)"/>
<path d="M0 0 C0.42410156 0.39832031 0.84820312 0.79664063 1.28515625 1.20703125 C5.32767445 4.85862461 8.88650302 7.12157254 14 9 C13.34 10.32 12.68 11.64 12 13 C8.7 12.01 5.4 11.02 2 10 C3.32 9.34 4.64 8.68 6 8 C5.01 7.4225 4.02 6.845 3 6.25 C2.01 5.5075 1.02 4.765 0 4 C0 2.68 0 1.36 0 0 Z " fill="#A7A7A7" transform="translate(216,168)"/>
<path d="M0 0 C1.4540625 0.0309375 1.4540625 0.0309375 2.9375 0.0625 C-0.00869144 2.58430461 -1.97954784 3.46780715 -5.8359375 3.7578125 C-6.7434375 3.83386719 -7.6509375 3.90992188 -8.5859375 3.98828125 C-9.52695312 4.05402344 -10.46796875 4.11976563 -11.4375 4.1875 C-13.29962445 4.33410372 -15.16160917 4.48249492 -17.0234375 4.6328125 C-17.89452148 4.70145508 -18.76560547 4.77009766 -19.66308594 4.84082031 C-22.49286884 5.10226139 -25.27138916 5.53041532 -28.0625 6.0625 C-28.0625 5.4025 -28.0625 4.7425 -28.0625 4.0625 C-25.14545643 3.260219 -22.3437165 2.83071091 -19.33203125 2.5625 C-18.00461914 2.43875 -18.00461914 2.43875 -16.65039062 2.3125 C-14.78850548 2.14478621 -12.92652457 1.97813248 -11.06445312 1.8125 C-10.18337891 1.73 -9.30230469 1.6475 -8.39453125 1.5625 C-7.58733643 1.4903125 -6.7801416 1.418125 -5.94848633 1.34375 C-3.04251066 0.91039285 -3.39189621 0.06922237 0 0 Z " fill="#9A9A9A" transform="translate(351.0625,417.9375)"/>
<path d="M0 0 C0.92232422 0.00902344 1.84464844 0.01804687 2.79492188 0.02734375 C5.05105809 0.0507234 7.30663684 0.08349084 9.5625 0.125 C9.5625 0.455 9.5625 0.785 9.5625 1.125 C8.71655273 1.20802368 8.71655273 1.20802368 7.85351562 1.29272461 C5.25640274 1.548235 2.65945183 1.805358 0.0625 2.0625 C-0.824375 2.14951172 -1.71125 2.23652344 -2.625 2.32617188 C-7.90743182 2.85053092 -13.17314146 3.44235538 -18.4375 4.125 C-17.4375 2.125 -17.4375 2.125 -14.52734375 1.0078125 C-9.71774351 -0.24836216 -4.93730549 -0.09241897 0 0 Z " fill="#A1A1A1" transform="translate(268.4375,273.875)"/>
<path d="M0 0 C-7.2925699 4.86171326 -16.54129704 4.26160937 -25 4 C-25 3.67 -25 3.34 -25 3 C-16.65922401 0.9690309 -8.59053823 -0.18277741 0 0 Z " fill="#7C7C7C" transform="translate(357,420)"/>
<path d="M0 0 C-2.55376839 2.82738643 -4.16293727 4.5736597 -8 5 C-10.67278133 5.06681953 -13.32511163 5.04458147 -16 5 C-12.30638378 -0.54042434 -6.22026554 -0.25388839 0 0 Z " fill="#B0B0B0" transform="translate(303,420)"/>
<path d="M0 0 C0.268125 0.639375 0.53625 1.27875 0.8125 1.9375 C1.88667752 4.33131686 1.88667752 4.33131686 5 5 C4.53199289 9.05606165 4.12046792 12.46588679 2 16 C0.40837921 10.42932723 -0.20674944 5.78898419 0 0 Z " fill="#BEBEBE" transform="translate(20,336)"/>
<path d="M0 0 C-4.56280984 1.77907723 -8.24374106 2.19428345 -13.125 2.0625 C-18.64227995 1.89619172 -18.64227995 1.89619172 -24 3 C-24 2.01 -24 1.02 -24 0 C-20.56296699 -0.19682269 -17.12536573 -0.38085152 -13.6875 -0.5625 C-12.71103516 -0.61857422 -11.73457031 -0.67464844 -10.72851562 -0.73242188 C-9.32182617 -0.80493164 -9.32182617 -0.80493164 -7.88671875 -0.87890625 C-7.02264404 -0.9260376 -6.15856934 -0.97316895 -5.26831055 -1.02172852 C-3 -1 -3 -1 0 0 Z " fill="#A09FA0" transform="translate(250,277)"/>
<path d="M0 0 C1.33804688 0.04060547 1.33804688 0.04060547 2.703125 0.08203125 C3.37859375 0.11683594 4.0540625 0.15164062 4.75 0.1875 C4.75 0.5175 4.75 0.8475 4.75 1.1875 C2.11 1.1875 -0.53 1.1875 -3.25 1.1875 C-5.10776765 4.32248292 -5.45140476 6.56221432 -5.25 10.1875 C-6.57 9.5275 -7.89 8.8675 -9.25 8.1875 C-9.5 5.875 -9.5 5.875 -9.25 3.1875 C-6.25377171 0.24675742 -4.12289371 -0.1627458 0 0 Z " fill="#444444" transform="translate(147.25,79.8125)"/>
<path d="M0 0 C-2.64738916 1.4606285 -3.89448334 2 -7 2 C-7 2.66 -7 3.32 -7 4 C-12.07476794 5.26305335 -16.72796354 6.27036084 -22 6 C-15.60060452 1.73373634 -7.65596608 -0.21874189 0 0 Z " fill="#696969" transform="translate(376,416)"/>
<path d="M0 0 C0.763125 0.474375 1.52625 0.94875 2.3125 1.4375 C4.96410548 3.10106097 4.96410548 3.10106097 8 4 C8.33 4.99 8.66 5.98 9 7 C9.99 7.33 10.98 7.66 12 8 C12 8.66 12 9.32 12 10 C10.68 10.33 9.36 10.66 8 11 C6.66072279 9.54712339 5.32873153 8.08752741 4 6.625 C3.2575 5.81289062 2.515 5.00078125 1.75 4.1640625 C0 2 0 2 0 0 Z " fill="#111111" transform="translate(140,89)"/>
<path d="M0 0 C0.33 0.66 0.66 1.32 1 2 C1.99 2.33 2.98 2.66 4 3 C5.1875 5.5625 5.1875 5.5625 6 8 C4.68 8.33 3.36 8.66 2 9 C-0.25245881 6.31158141 -1.88213958 4.35358125 -3 1 C-2.01 0.67 -1.02 0.34 0 0 Z " fill="#808080" transform="translate(45,396)"/>
<path d="M0 0 C1.12864571 2.82503443 0.99492545 4.01633704 0.07421875 6.98046875 C-0.38339844 8.03878906 -0.84101563 9.09710938 -1.3125 10.1875 C-1.76238281 11.25355469 -2.21226562 12.31960938 -2.67578125 13.41796875 C-4 16 -4 16 -6 17 C-5.67 14.69 -5.34 12.38 -5 10 C-4.34 10 -3.68 10 -3 10 C-3.20625 9.05125 -3.4125 8.1025 -3.625 7.125 C-3.74875 6.09375 -3.8725 5.0625 -4 4 C-2.66666667 2.66666667 -1.33333333 1.33333333 0 0 Z " fill="#949494" transform="translate(423,366)"/>
<path d="M0 0 C1.79244141 0.01740234 1.79244141 0.01740234 3.62109375 0.03515625 C5.41740234 0.04869141 5.41740234 0.04869141 7.25 0.0625 C8.17683594 0.07410156 9.10367187 0.08570313 10.05859375 0.09765625 C10.05859375 0.75765625 10.05859375 1.41765625 10.05859375 2.09765625 C3.70021225 4.55430365 3.70021225 4.55430365 0.05859375 3.09765625 C-1.28938055 2.46111283 -2.62737349 1.80160237 -3.94140625 1.09765625 C-2.94140625 0.09765625 -2.94140625 0.09765625 0 0 Z " fill="#B4B4B4" transform="translate(301.94140625,273.90234375)"/>
<path d="M0 0 C6.63093294 0.34773428 12.053928 0.96089654 18 4 C18 4.33 18 4.66 18 5 C16.58297487 4.85769192 15.1663904 4.71099254 13.75 4.5625 C12.56664062 4.44068359 12.56664062 4.44068359 11.359375 4.31640625 C9.17635361 4.02365007 7.1226818 3.57935581 5 3 C5 2.34 5 1.68 5 1 C3.35 1 1.7 1 0 1 C0 0.67 0 0.34 0 0 Z " fill="#191919" transform="translate(290,264)"/>
<path d="M0 0 C1.875 0.125 1.875 0.125 4 1 C4.71706982 2.98248715 5.38290413 4.98415349 6 7 C6.99 7.66 7.98 8.32 9 9 C9.1875 11.625 9.1875 11.625 9 14 C4.9918197 10.32583472 2.47408385 6.85653496 0 2 C0 1.34 0 0.68 0 0 Z " fill="#969696" transform="translate(31,380)"/>
<path d="M0 0 C4.7517398 0.43197635 6.92000054 1.32769295 10 5 C9.67 5.66 9.34 6.32 9 7 C4.545 5.02 4.545 5.02 0 3 C0 2.01 0 1.02 0 0 Z " fill="#AEAEAE" transform="translate(65,405)"/>
<path d="M0 0 C1.65 0 3.3 0 5 0 C2.1310659 3.50647501 -0.7317654 6.85281112 -4 10 C-4.66 9.67 -5.32 9.34 -6 9 C-6 7.68 -6 6.36 -6 5 C-4.68 5 -3.36 5 -2 5 C-2 4.34 -2 3.68 -2 3 C-1.34 3 -0.68 3 0 3 C0 2.01 0 1.02 0 0 Z " fill="#797979" transform="translate(400,400)"/>
<path d="M0 0 C1.32 0.66 2.64 1.32 4 2 C3.236875 2.7425 2.47375 3.485 1.6875 4.25 C-0.95571199 6.823554 -0.95571199 6.823554 -2.6875 9.3125 C-3.3371875 10.1478125 -3.3371875 10.1478125 -4 11 C-4.66 11 -5.32 11 -6 11 C-4.88059018 6.14922412 -3.8665284 3.222107 0 0 Z " fill="#D7D6D7" transform="translate(47,45)"/>
<path d="M0 0 C0.33 0.66 0.66 1.32 1 2 C2.66666667 2.33333333 4.33333333 2.66666667 6 3 C8.02237052 3.95394836 10.0282696 4.94535351 12 6 C8.16455058 7.38076179 4.92847503 6.85712183 1 6 C-0.9375 4.5625 -0.9375 4.5625 -2 3 C-2 2.34 -2 1.68 -2 1 C-1.34 0.67 -0.68 0.34 0 0 Z " fill="#525252" transform="translate(63,410)"/>
<path d="M0 0 C4.13621084 3.3810038 7.81316569 6.66590534 11 11 C10.01 11.495 10.01 11.495 9 12 C7.29115995 10.37660195 5.62553283 8.70680947 4 7 C4 6.34 4 5.68 4 5 C2.68 4.34 1.36 3.68 0 3 C0 2.01 0 1.02 0 0 Z " fill="#9D9D9D" transform="translate(170,316)"/>
<path d="M0 0 C0.99 0.33 1.98 0.66 3 1 C-1.27490367 3.47944413 -5.55558346 5.83199193 -10 8 C-9.690625 7.401875 -9.38125 6.80375 -9.0625 6.1875 C-7.89790296 3.91043228 -7.89790296 3.91043228 -7 1 C-5.824375 1.309375 -5.824375 1.309375 -4.625 1.625 C-3.75875 1.74875 -2.8925 1.8725 -2 2 C-1.34 1.34 -0.68 0.68 0 0 Z " fill="#ADADAD" transform="translate(386,404)"/>
<path d="M0 0 C0.66 0 1.32 0 2 0 C1.43453326 3.95826719 0.36453668 6.759709 -2 10 C-4.1875 11.3125 -4.1875 11.3125 -6 12 C-5.54625 11.484375 -5.0925 10.96875 -4.625 10.4375 C-2.62042356 7.43063533 -1.91797729 4.47519975 -1 1 C-0.67 0.67 -0.34 0.34 0 0 Z " fill="#8E8E8E" transform="translate(407,393)"/>
<path d="M0 0 C3.37705625 0.53725895 6.696686 1.11064623 10 2 C10 2.66 10 3.32 10 4 C6.7 4 3.4 4 0 4 C0 2.68 0 1.36 0 0 Z " fill="#050505" transform="translate(309,269)"/>
<path d="M0 0 C1.48206495 0.254496 2.96068615 0.52911762 4.4375 0.8125 C5.67306641 1.03873047 5.67306641 1.03873047 6.93359375 1.26953125 C7.95646484 1.63111328 7.95646484 1.63111328 9 2 C9.33 2.99 9.66 3.98 10 5 C10.66 5.33 11.32 5.66 12 6 C7.61110675 5.33501617 4.0188515 3.81242323 0 2 C0 1.34 0 0.68 0 0 Z " fill="#898989" transform="translate(60,408)"/>
<path d="M0 0 C1.17539996 0.92652701 2.34010577 1.86663387 3.5 2.8125 C4.1496875 3.33457031 4.799375 3.85664063 5.46875 4.39453125 C7 6 7 6 7 9 C5.35 8.67 3.7 8.34 2 8 C1.87625 7.401875 1.7525 6.80375 1.625 6.1875 C1.04524015 3.73768652 1.04524015 3.73768652 -1 1 C-0.67 0.67 -0.34 0.34 0 0 Z " fill="#A2A2A2" transform="translate(162,308)"/>
<path d="M0 0 C1.12894876 0.93274109 2.25300876 1.87140122 3.375 2.8125 C4.00148437 3.33457031 4.62796875 3.85664063 5.2734375 4.39453125 C7 6 7 6 9 9 C5.12084756 8.42531075 2.85243395 6.62115553 0 4 C-0.33 3.01 -0.66 2.02 -1 1 C-0.67 0.67 -0.34 0.34 0 0 Z " fill="#9F9F9F" transform="translate(181,327)"/>
<path d="M0 0 C0.99 0.33 1.98 0.66 3 1 C1.515 7.435 1.515 7.435 0 14 C-0.33 14 -0.66 14 -1 14 C-1.027193 12.41676312 -1.04648306 10.83338938 -1.0625 9.25 C-1.07410156 8.36828125 -1.08570312 7.4865625 -1.09765625 6.578125 C-1.00826198 4.2181162 -0.66912821 2.25501476 0 0 Z " fill="#F0F0F0" transform="translate(24,87)"/>
<path d="M0 0 C5.67276511 -0.29341888 8.99067246 -0.00559652 14 3 C10.45332822 4.25127906 8.27746562 3.72285053 4.75 2.5625 C3.85796875 2.27503906 2.9659375 1.98757813 2.046875 1.69140625 C1.37140625 1.46324219 0.6959375 1.23507812 0 1 C0 0.67 0 0.34 0 0 Z " fill="#8F8F8F" transform="translate(92,418)"/>
<path d="M0 0 C0.99386719 0.00902344 1.98773438 0.01804687 3.01171875 0.02734375 C4.15060547 0.04474609 4.15060547 0.04474609 5.3125 0.0625 C5.3125 0.3925 5.3125 0.7225 5.3125 1.0625 C3.6109375 1.2790625 3.6109375 1.2790625 1.875 1.5 C-1.49527201 1.67421478 -1.49527201 1.67421478 -2.6875 3.0625 C-5.02047433 3.10342937 -7.35455225 3.10491723 -9.6875 3.0625 C-7.75082354 -0.81085293 -3.83275078 -0.04509119 0 0 Z " fill="#818181" transform="translate(236.6875,273.9375)"/>
<path d="M0 0 C0.33 0 0.66 0 1 0 C0.88529863 1.75070517 0.75780972 3.50057536 0.625 5.25 C0.55539062 6.22453125 0.48578125 7.1990625 0.4140625 8.203125 C0 11 0 11 -2 15 C-1.67 11.7 -1.34 8.4 -1 5 C-1.66 4.67 -2.32 4.34 -3 4 C-2.02727325 2.64664105 -1.0260734 1.31337396 0 0 Z " fill="#ACACAC" transform="translate(428,344)"/>
<path d="M0 0 C0.66 0 1.32 0 2 0 C2 0.66 2 1.32 2 2 C3.32 2.66 4.64 3.32 6 4 C6 4.66 6 5.32 6 6 C6.66 6 7.32 6 8 6 C8 6.66 8 7.32 8 8 C8.66 8.33 9.32 8.66 10 9 C7 9 7 9 5.17578125 7.5390625 C4.56089844 6.90742188 3.94601562 6.27578125 3.3125 5.625 C2.68988281 4.99851562 2.06726563 4.37203125 1.42578125 3.7265625 C0 2 0 2 0 0 Z " fill="#DDDDDD" transform="translate(302,252)"/>
<path d="M0 0 C0.66 0.33 1.32 0.66 2 1 C2 2.65 2 4.3 2 6 C1.67 6 1.34 6 1 6 C0.67 7.98 0.34 9.96 0 12 C-1.75282525 9.31920844 -2.01311136 8.13111361 -1.6875 4.875 C-1 2 -1 2 0 0 Z " fill="#4D4D4D" transform="translate(130,180)"/>
<path d="M0 0 C0.33 0 0.66 0 1 0 C1 6.93 1 13.86 1 21 C0.67 21 0.34 21 0 21 C0 14.07 0 7.14 0 0 Z " fill="#D4DAD4" transform="translate(15,292)"/>
<path d="M0 0 C0.33 0 0.66 0 1 0 C1 6.93 1 13.86 1 21 C0.67 21 0.34 21 0 21 C0 14.07 0 7.14 0 0 Z " fill="#DADADA" transform="translate(434,292)"/>
<path d="M0 0 C-0.99 1.485 -0.99 1.485 -2 3 C-5.125 3.1875 -5.125 3.1875 -8 3 C-7.67 2.01 -7.34 1.02 -7 0 C-4.05610218 -1.17755913 -3.10046087 -1.03348696 0 0 Z " fill="#C3C3C3" transform="translate(317,177)"/>
<path d="M0 0 C0.33 0 0.66 0 1 0 C1 6.93 1 13.86 1 21 C0.67 21 0.34 21 0 21 C0 14.07 0 7.14 0 0 Z " fill="#E1E1E1" transform="translate(434,137)"/>
<path d="M0 0 C0.33 0 0.66 0 1 0 C1 6.93 1 13.86 1 21 C0.67 21 0.34 21 0 21 C0 14.07 0 7.14 0 0 Z " fill="#E0E0E0" transform="translate(15,137)"/>
<path d="M0 0 C1.62463842 -0.05395478 3.24978541 -0.09277195 4.875 -0.125 C5.77992188 -0.14820312 6.68484375 -0.17140625 7.6171875 -0.1953125 C10 0 10 0 12 2 C7.31034294 3.11658501 4.46236469 2.80619523 0 1 C0 0.67 0 0.34 0 0 Z " fill="#F9F9F9" transform="translate(268,17)"/>
<path d="M0 0 C-0.33 1.65 -0.66 3.3 -1 5 C-2.32 5.33 -3.64 5.66 -5 6 C-5.33 5.01 -5.66 4.02 -6 3 C-5.34 3 -4.68 3 -4 3 C-4 2.34 -4 1.68 -4 1 C-2 0 -2 0 0 0 Z " fill="#666666" transform="translate(394,407)"/>
<path d="M0 0 C2.31 1.98 4.62 3.96 7 6 C6.34 6.66 5.68 7.32 5 8 C2.5 5.6875 2.5 5.6875 0 3 C0 2.01 0 1.02 0 0 Z " fill="#9E9E9E" transform="translate(191,337)"/>
<path d="M0 0 C0.99 0 1.98 0 3 0 C2.67 1.98 2.34 3.96 2 6 C1.01 6 0.02 6 -1 6 C-0.67 4.02 -0.34 2.04 0 0 Z " fill="#131313" transform="translate(221,360)"/>
<path d="M0 0 C0.99 0.33 1.98 0.66 3 1 C3 1.99 3 2.98 3 4 C4.32 4.33 5.64 4.66 7 5 C6.67 5.66 6.34 6.32 6 7 C3.53199953 5.84826645 1.95216435 4.95216435 0 3 C0 2.01 0 1.02 0 0 Z " fill="#DDDDDD" transform="translate(313,262)"/>
<path d="M0 0 C2.62187494 1.04874998 3.79371361 1.64931313 5.25 4.125 C5.4975 4.74375 5.745 5.3625 6 6 C3 6 3 6 1.3125 4.6875 C0 3 0 3 0 0 Z " fill="#DCDCDC" transform="translate(281,230)"/>
<path d="M0 0 C5.61 0 11.22 0 17 0 C17 0.33 17 0.66 17 1 C14.73044814 1.22185844 12.45926245 1.42705515 10.1875 1.625 C8.29064453 1.79902344 8.29064453 1.79902344 6.35546875 1.9765625 C3 2 3 2 0 0 Z " fill="#212121" transform="translate(279,434)"/>
<path d="M0 0 C2.125 0.9375 2.125 0.9375 4 2 C0.86501708 3.85776765 -1.37471432 4.20140476 -5 4 C-3.36587557 2.29159719 -2.13093906 1.06546953 0 0 Z " fill="#ADADAD" transform="translate(394,400)"/>
<path d="M0 0 C0.6875 1.8125 0.6875 1.8125 1 4 C-0.4375 5.75 -0.4375 5.75 -2 7 C-2.66 6.01 -3.32 5.02 -4 4 C-2.66666667 2.66666667 -1.33333333 1.33333333 0 0 Z " fill="#ACACAC" transform="translate(423,366)"/>
<path d="M0 0 C1.98 1.65 3.96 3.3 6 5 C5.01 5.33 4.02 5.66 3 6 C1.68 4.68 0.36 3.36 -1 2 C-0.67 1.34 -0.34 0.68 0 0 Z " fill="#9F9F9F" transform="translate(153,299)"/>
<path d="M0 0 C1.65 1.65 3.3 3.3 5 5 C2.69 4.67 0.38 4.34 -2 4 C-1.34 2.68 -0.68 1.36 0 0 Z " fill="#B2B2B2" transform="translate(130,276)"/>
<path d="M0 0 C0.66 0.33 1.32 0.66 2 1 C1.67 2.65 1.34 4.3 1 6 C-0.32 6.33 -1.64 6.66 -3 7 C-3.33 6.34 -3.66 5.68 -4 5 C-3.525625 4.54625 -3.05125 4.0925 -2.5625 3.625 C-0.90972192 2.06741796 -0.90972192 2.06741796 0 0 Z " fill="#C5C5C5" transform="translate(321,170)"/>
<path d="M0 0 C5.61 0 11.22 0 17 0 C17 0.33 17 0.66 17 1 C11.39 1 5.78 1 0 1 C0 0.67 0 0.34 0 0 Z " fill="#F8F8F8" transform="translate(154,15)"/>
<path d="M0 0 C5.28 0 10.56 0 16 0 C16 0.33 16 0.66 16 1 C10.72 1 5.44 1 0 1 C0 0.67 0 0.34 0 0 Z " fill="#242424" transform="translate(154,434)"/>
<path d="M0 0 C5.28 0 10.56 0 16 0 C16 0.33 16 0.66 16 1 C10.72 1 5.44 1 0 1 C0 0.67 0 0.34 0 0 Z " fill="#E8E8E8" transform="translate(280,15)"/>
<path d="M0 0 C0.33 0 0.66 0 1 0 C1 4.62 1 9.24 1 14 C0.67 14 0.34 14 0 14 C0 9.38 0 4.76 0 0 Z " fill="#C6C6C6" transform="translate(433,314)"/>
<path d="M0 0 C0.33 0 0.66 0 1 0 C1 4.62 1 9.24 1 14 C0.67 14 0.34 14 0 14 C0 9.38 0 4.76 0 0 Z " fill="#C7C7C7" transform="translate(16,314)"/>
<path d="M0 0 C0.33 0 0.66 0 1 0 C1 4.62 1 9.24 1 14 C0.67 14 0.34 14 0 14 C0 9.38 0 4.76 0 0 Z " fill="#D3D3D3" transform="translate(433,122)"/>
<path d="M0 0 C0.33 0 0.66 0 1 0 C1 4.62 1 9.24 1 14 C0.67 14 0.34 14 0 14 C0 9.38 0 4.76 0 0 Z " fill="#D2D2D2" transform="translate(16,122)"/>
<path d="M0 0 C3.63 0 7.26 0 11 0 C11 0.33 11 0.66 11 1 C7.37 1 3.74 1 0 1 C0 0.67 0 0.34 0 0 Z " fill="#2C2C2C" transform="translate(297,433)"/>
<path d="M0 0 C3.63 0 7.26 0 11 0 C11 0.33 11 0.66 11 1 C7.37 1 3.74 1 0 1 C0 0.67 0 0.34 0 0 Z " fill="#2B2B2B" transform="translate(142,433)"/>
<path d="M0 0 C3.63 0 7.26 0 11 0 C11 0.33 11 0.66 11 1 C7.37 1 3.74 1 0 1 C0 0.67 0 0.34 0 0 Z " fill="#ECECEC" transform="translate(297,16)"/>
<path d="M0 0 C3.63 0 7.26 0 11 0 C11 0.33 11 0.66 11 1 C7.37 1 3.74 1 0 1 C0 0.67 0 0.34 0 0 Z " fill="#E8E8E8" transform="translate(142,16)"/>
<path d="M0 0 C2.97 0 5.94 0 9 0 C9 0.33 9 0.66 9 1 C6.03 1 3.06 1 0 1 C0 0.67 0 0.34 0 0 Z " fill="#484848" transform="translate(308,432)"/>
<path d="M0 0 C2.97 0 5.94 0 9 0 C9 0.33 9 0.66 9 1 C6.03 1 3.06 1 0 1 C0 0.67 0 0.34 0 0 Z " fill="#454445" transform="translate(133,432)"/>
<path d="M0 0 C2.97 0 5.94 0 9 0 C9 0.33 9 0.66 9 1 C6.03 1 3.06 1 0 1 C0 0.67 0 0.34 0 0 Z " fill="#F7F7F7" transform="translate(308,17)"/>
<path d="M0 0 C2.97 0 5.94 0 9 0 C9 0.33 9 0.66 9 1 C6.03 1 3.06 1 0 1 C0 0.67 0 0.34 0 0 Z " fill="#F4F4F4" transform="translate(133,17)"/>
<path d="M0 0 C2.64 0 5.28 0 8 0 C8 0.33 8 0.66 8 1 C5.36 1 2.72 1 0 1 C0 0.67 0 0.34 0 0 Z " fill="#404040" transform="translate(317,431)"/>
<path d="M0 0 C2.64 0 5.28 0 8 0 C8 0.33 8 0.66 8 1 C5.36 1 2.72 1 0 1 C0 0.67 0 0.34 0 0 Z " fill="#3F3F3F" transform="translate(125,431)"/>
<path d="M0 0 C2.64 0 5.28 0 8 0 C8 0.33 8 0.66 8 1 C5.36 1 2.72 1 0 1 C0 0.67 0 0.34 0 0 Z " fill="#2E2E2E" transform="translate(325,430)"/>
<path d="M0 0 C2.64 0 5.28 0 8 0 C8 0.33 8 0.66 8 1 C5.36 1 2.72 1 0 1 C0 0.67 0 0.34 0 0 Z " fill="#2F2F2F" transform="translate(117,430)"/>
<path d="M0 0 C0.33 0 0.66 0 1 0 C1 2.64 1 5.28 1 8 C0.67 8 0.34 8 0 8 C0 5.36 0 2.72 0 0 Z " fill="#CACACA" transform="translate(432,328)"/>
<path d="M0 0 C0.33 0 0.66 0 1 0 C1 2.64 1 5.28 1 8 C0.67 8 0.34 8 0 8 C0 5.36 0 2.72 0 0 Z " fill="#BEBEBE" transform="translate(17,328)"/>
<path d="M0 0 C0.33 0 0.66 0 1 0 C1 2.64 1 5.28 1 8 C0.67 8 0.34 8 0 8 C0 5.36 0 2.72 0 0 Z " fill="#F3F3F3" transform="translate(17,114)"/>
<path d="M0 0 C0.33 0 0.66 0 1 0 C1 2.64 1 5.28 1 8 C0.67 8 0.34 8 0 8 C0 5.36 0 2.72 0 0 Z " fill="#F3F3F3" transform="translate(432,114)"/>
<path d="M0 0 C2.64 0 5.28 0 8 0 C8 0.33 8 0.66 8 1 C5.36 1 2.72 1 0 1 C0 0.67 0 0.34 0 0 Z " fill="#DCDCDC" transform="translate(325,19)"/>
<path d="M0 0 C2.64 0 5.28 0 8 0 C8 0.33 8 0.66 8 1 C5.36 1 2.72 1 0 1 C0 0.67 0 0.34 0 0 Z " fill="#DBDBDB" transform="translate(117,19)"/>
<path d="M0 0 C2.64 0 5.28 0 8 0 C8 0.33 8 0.66 8 1 C5.36 1 2.72 1 0 1 C0 0.67 0 0.34 0 0 Z " fill="#DEDEDE" transform="translate(317,18)"/>
<path d="M0 0 C2.64 0 5.28 0 8 0 C8 0.33 8 0.66 8 1 C5.36 1 2.72 1 0 1 C0 0.67 0 0.34 0 0 Z " fill="#DFDFDF" transform="translate(125,18)"/>
<path d="M0 0 C0.33 0 0.66 0 1 0 C1 2.31 1 4.62 1 7 C0.67 7 0.34 7 0 7 C0 4.69 0 2.38 0 0 Z " fill="#B1B1B1" transform="translate(18,337)"/>
<path d="M0 0 C0.33 0 0.66 0 1 0 C1 2.31 1 4.62 1 7 C0.67 7 0.34 7 0 7 C0 4.69 0 2.38 0 0 Z " fill="#BDBDBD" transform="translate(431,106)"/>
<path d="M0 0 C0.33 0 0.66 0 1 0 C1 2.31 1 4.62 1 7 C0.67 7 0.34 7 0 7 C0 4.69 0 2.38 0 0 Z " fill="#BBBBBB" transform="translate(18,106)"/>
<path d="M0 0 C1.98 0 3.96 0 6 0 C6 0.33 6 0.66 6 1 C4.02 1 2.04 1 0 1 C0 0.67 0 0.34 0 0 Z " fill="#3B3B3B" transform="translate(333,429)"/>
<path d="M0 0 C1.98 0 3.96 0 6 0 C6 0.33 6 0.66 6 1 C4.02 1 2.04 1 0 1 C0 0.67 0 0.34 0 0 Z " fill="#3F3F3F" transform="translate(111,429)"/>
<path d="M0 0 C0.33 0 0.66 0 1 0 C1 1.98 1 3.96 1 6 C0.67 6 0.34 6 0 6 C0 4.02 0 2.04 0 0 Z " fill="#999999" transform="translate(430,344)"/>
<path d="M0 0 C0.33 0 0.66 0 1 0 C1 1.98 1 3.96 1 6 C0.67 6 0.34 6 0 6 C0 4.02 0 2.04 0 0 Z " fill="#969696" transform="translate(19,344)"/>
<path d="M0 0 C0.33 0 0.66 0 1 0 C1 1.98 1 3.96 1 6 C0.67 6 0.34 6 0 6 C0 4.02 0 2.04 0 0 Z " fill="#D2D2D2" transform="translate(431,337)"/>
<path d="M0 0 C0.33 0 0.66 0 1 0 C1 1.98 1 3.96 1 6 C0.67 6 0.34 6 0 6 C0 4.02 0 2.04 0 0 Z " fill="#EBEBEB" transform="translate(430,100)"/>
<path d="M0 0 C0.33 0 0.66 0 1 0 C1 1.98 1 3.96 1 6 C0.67 6 0.34 6 0 6 C0 4.02 0 2.04 0 0 Z " fill="#E9E9E9" transform="translate(19,100)"/>
<path d="M0 0 C1.98 0 3.96 0 6 0 C6 0.33 6 0.66 6 1 C4.02 1 2.04 1 0 1 C0 0.67 0 0.34 0 0 Z " fill="#EBEBEB" transform="translate(333,20)"/>
<path d="M0 0 C1.98 0 3.96 0 6 0 C6 0.33 6 0.66 6 1 C4.02 1 2.04 1 0 1 C0 0.67 0 0.34 0 0 Z " fill="#F3F3F3" transform="translate(111,20)"/>
<path d="M0 0 C1.65 0 3.3 0 5 0 C5 0.33 5 0.66 5 1 C3.35 1 1.7 1 0 1 C0 0.67 0 0.34 0 0 Z " fill="#4A4A4A" transform="translate(339,428)"/>
<path d="M0 0 C1.65 0 3.3 0 5 0 C5 0.33 5 0.66 5 1 C3.35 1 1.7 1 0 1 C0 0.67 0 0.34 0 0 Z " fill="#474747" transform="translate(106,428)"/>
<path d="M0 0 C0.33 0 0.66 0 1 0 C1 1.65 1 3.3 1 5 C0.67 5 0.34 5 0 5 C0 3.35 0 1.7 0 0 Z " fill="#C8C8C8" transform="translate(429,350)"/>
<path d="M0 0 C0.33 0 0.66 0 1 0 C1 1.65 1 3.3 1 5 C0.67 5 0.34 5 0 5 C0 3.35 0 1.7 0 0 Z " fill="#C5C5C5" transform="translate(20,350)"/>
<path d="M0 0 C0.33 0 0.66 0 1 0 C1 1.65 1 3.3 1 5 C0.67 5 0.34 5 0 5 C0 3.35 0 1.7 0 0 Z " fill="#FEFEFE" transform="translate(429,95)"/>
<path d="M0 0 C0.33 0 0.66 0 1 0 C1 1.65 1 3.3 1 5 C0.67 5 0.34 5 0 5 C0 3.35 0 1.7 0 0 Z " fill="#F1F1F1" transform="translate(20,95)"/>
<path d="M0 0 C1.65 0 3.3 0 5 0 C5 0.33 5 0.66 5 1 C3.35 1 1.7 1 0 1 C0 0.67 0 0.34 0 0 Z " fill="#FBFBFB" transform="translate(339,21)"/>
<path d="M0 0 C1.65 0 3.3 0 5 0 C5 0.33 5 0.66 5 1 C3.35 1 1.7 1 0 1 C0 0.67 0 0.34 0 0 Z " fill="#FDFDFD" transform="translate(106,21)"/>
<path d="M0 0 C4 1 4 1 4 1 Z " fill="#656565" transform="translate(349,426)"/>
<path d="M0 0 C4 1 4 1 4 1 Z " fill="#666666" transform="translate(97,426)"/>
<path d="M0 0 C4 1 4 1 4 1 Z " fill="#272727" transform="translate(354,425)"/>
<path d="M0 0 C4 1 4 1 4 1 Z " fill="#272727" transform="translate(92,425)"/>
<path d="M0 0 C0 3 0 3 0 3 Z " fill="#6A6A6A" transform="translate(410,395)"/>
<path d="M0 0 C0.99 0.495 0.99 0.495 2 1 C1.67 1.66 1.34 2.32 1 3 C0.67 2.01 0.34 1.02 0 0 Z " fill="#696969" transform="translate(39,395)"/>
<path d="M0 0 C1 4 1 4 1 4 Z " fill="#A0A0A0" transform="translate(425,366)"/>
<path d="M0 0 C1 4 1 4 1 4 Z " fill="#D1D0D1" transform="translate(427,359)"/>
<path d="M0 0 C1 4 1 4 1 4 Z " fill="#D5D5D5" transform="translate(22,359)"/>
<path d="M0 0 C1 4 1 4 1 4 Z " fill="#BABABA" transform="translate(428,355)"/>
<path d="M0 0 C1 4 1 4 1 4 Z " fill="#BCBCBC" transform="translate(21,355)"/>
<path d="M0 0 C1 4 1 4 1 4 Z " fill="#CBCBCB" transform="translate(428,91)"/>
<path d="M0 0 C1 4 1 4 1 4 Z " fill="#C6C6C6" transform="translate(21,91)"/>
<path d="M0 0 C1 4 1 4 1 4 Z " fill="#FDFDFD" transform="translate(22,87)"/>
<path d="M0 0 C1 4 1 4 1 4 Z " fill="#FDFCFD" transform="translate(427,87)"/>
<path d="M0 0 C0.99 0.495 0.99 0.495 2 1 C1.67 1.66 1.34 2.32 1 3 C0.67 2.01 0.34 1.02 0 0 Z " fill="#A2A2A2" transform="translate(409,52)"/>
<path d="M0 0 C0 3 0 3 0 3 Z " fill="#9F9F9F" transform="translate(40,52)"/>
<path d="M0 0 C4 1 4 1 4 1 Z " fill="#E0E0E0" transform="translate(354,24)"/>
<path d="M0 0 C4 1 4 1 4 1 Z " fill="#DFDFDF" transform="translate(92,24)"/>
<path d="M0 0 C4 1 4 1 4 1 Z " fill="#EFEFEF" transform="translate(349,23)"/>
<path d="M0 0 C4 1 4 1 4 1 Z " fill="#EDEDED" transform="translate(97,23)"/>
<path d="M0 0 C3 1 3 1 3 1 Z " fill="#8B8B8B" transform="translate(365,422)"/>
<path d="M0 0 C3 1 3 1 3 1 Z " fill="#8F8E8F" transform="translate(82,422)"/>
<path d="M0 0 C3 1 3 1 3 1 Z " fill="#424242" transform="translate(371,420)"/>
<path d="M0 0 C3 1 3 1 3 1 Z " fill="#3D3D3D" transform="translate(76,420)"/>
<path d="" fill="#E2E2E2" transform="translate(0,0)"/>
<path d="" fill="#E3E3E3" transform="translate(0,0)"/>
<path d="" fill="#7D7D7D" transform="translate(0,0)"/>
<path d="" fill="#B8B8B8" transform="translate(0,0)"/>
<path d="" fill="#B7B7B7" transform="translate(0,0)"/>
<path d="" fill="#FEFDFE" transform="translate(0,0)"/>
<path d="" fill="#FFFFFF" transform="translate(0,0)"/>
<path d="" fill="#A9A8A9" transform="translate(0,0)"/>
<path d="" fill="#AAAAAA" transform="translate(0,0)"/>
<path d="" fill="#FEFEFE" transform="translate(0,0)"/>
<path d="" fill="#FCFCFC" transform="translate(0,0)"/>
<path d="M0 0 C3 1 3 1 3 1 Z " fill="#E9E9E9" transform="translate(371,29)"/>
<path d="M0 0 C3 1 3 1 3 1 Z " fill="#E9E9E9" transform="translate(76,29)"/>
<path d="M0 0 C3 1 3 1 3 1 Z " fill="#FCFCFC" transform="translate(365,27)"/>
<path d="M0 0 C3 1 3 1 3 1 Z " fill="#FCFCFC" transform="translate(82,27)"/>
<path d="M0 0 C2 1 2 1 2 1 Z " fill="#676767" transform="translate(379,417)"/>
<path d="M0 0 C2 1 2 1 2 1 Z " fill="#4D4D4D" transform="translate(381,416)"/>
<path d="M0 0 C2 1 2 1 2 1 Z " fill="#5D5D5D" transform="translate(67,416)"/>
<path d="" fill="#BABABA" transform="translate(0,0)"/>
<path d="" fill="#BDBDBD" transform="translate(0,0)"/>
<path d="" fill="#575757" transform="translate(0,0)"/>
<path d="" fill="#585758" transform="translate(0,0)"/>
<path d="" fill="#FDFCFD" transform="translate(0,0)"/>
<path d="" fill="#FCFCFC" transform="translate(0,0)"/>
<path d="" fill="#BEBEBE" transform="translate(0,0)"/>
<path d="" fill="#BDBDBD" transform="translate(0,0)"/>
<path d="" fill="#555555" transform="translate(0,0)"/>
<path d="" fill="#565656" transform="translate(0,0)"/>
<path d="" fill="#D2D2D2" transform="translate(0,0)"/>
<path d="" fill="#CFCFCF" transform="translate(0,0)"/>
<path d="" fill="#929292" transform="translate(0,0)"/>
<path d="" fill="#A2A2A2" transform="translate(0,0)"/>
<path d="" fill="#949494" transform="translate(0,0)"/>
<path d="" fill="#A1A1A1" transform="translate(0,0)"/>
<path d="" fill="#FFFFFF" transform="translate(0,0)"/>
<path d="" fill="#FFFFFF" transform="translate(0,0)"/>
<path d="" fill="#FBFBFB" transform="translate(0,0)"/>
<path d="" fill="#F9F9F9" transform="translate(0,0)"/>
<path d="" fill="#FAFAFA" transform="translate(0,0)"/>
<path d="" fill="#FFFFFF" transform="translate(0,0)"/>
<path d="" fill="#7F7F7F" transform="translate(0,0)"/>
<path d="" fill="#7F7F7F" transform="translate(0,0)"/>
<path d="" fill="#F9F9F9" transform="translate(0,0)"/>
<path d="" fill="#F6F6F6" transform="translate(0,0)"/>
<path d="" fill="#FEFEFE" transform="translate(0,0)"/>
<path d="" fill="#FFFFFF" transform="translate(0,0)"/>
<path d="" fill="#7F7F7F" transform="translate(0,0)"/>
<path d="" fill="#7E7E7E" transform="translate(0,0)"/>
<path d="" fill="#BEBEBE" transform="translate(0,0)"/>
<path d="" fill="#C0C0C0" transform="translate(0,0)"/>
<path d="M0 0 C2 1 2 1 2 1 Z " fill="#E3E3E3" transform="translate(381,33)"/>
<path d="M0 0 C2 1 2 1 2 1 Z " fill="#DEDEDE" transform="translate(67,33)"/>
<path d="M0 0 C2 1 2 1 2 1 Z " fill="#FEFEFE" transform="translate(379,32)"/>
<path d="M0 0 C2 1 2 1 2 1 Z " fill="#FFFFFF" transform="translate(69,32)"/>
<path d="" fill="#808080" transform="translate(0,0)"/>
<path d="" fill="#7E7E7E" transform="translate(0,0)"/>
<path d="" fill="#828282" transform="translate(0,0)"/>
<path d="" fill="#797979" transform="translate(0,0)"/>
<path d="" fill="#7F7F7F" transform="translate(0,0)"/>
<path d="" fill="#828282" transform="translate(0,0)"/>
<path d="" fill="#7B7B7B" transform="translate(0,0)"/>
<path d="" fill="#787878" transform="translate(0,0)"/>
<path d="" fill="#9D9D9D" transform="translate(0,0)"/>
<path d="" fill="#A9A9A9" transform="translate(0,0)"/>
<path d="" fill="#AFAFAF" transform="translate(0,0)"/>
<path d="" fill="#A7A6A7" transform="translate(0,0)"/>
<path d="" fill="#7A7A7A" transform="translate(0,0)"/>
<path d="" fill="#7F7F7F" transform="translate(0,0)"/>
<path d="" fill="#A8A8A8" transform="translate(0,0)"/>
<path d="" fill="#A9A9A9" transform="translate(0,0)"/>
<path d="" fill="#AAAAAA" transform="translate(0,0)"/>
<path d="" fill="#B1B1B1" transform="translate(0,0)"/>
<path d="" fill="#FFFFFF" transform="translate(0,0)"/>
<path d="" fill="#FFFFFF" transform="translate(0,0)"/>
<path d="" fill="#FFFFFF" transform="translate(0,0)"/>
<path d="" fill="#FAFAFA" transform="translate(0,0)"/>
<path d="" fill="#FFFFFF" transform="translate(0,0)"/>
<path d="" fill="#FFFFFF" transform="translate(0,0)"/>
<path d="" fill="#C0C0C0" transform="translate(0,0)"/>
<path d="" fill="#C1C1C1" transform="translate(0,0)"/>
<path d="" fill="#848484" transform="translate(0,0)"/>
<path d="" fill="#878787" transform="translate(0,0)"/>
<path d="" fill="#7F7F7F" transform="translate(0,0)"/>
<path d="" fill="#848484" transform="translate(0,0)"/>
<path d="" fill="#B8B8B8" transform="translate(0,0)"/>
<path d="" fill="#C4C4C4" transform="translate(0,0)"/>
</svg>
