<?xml version="1.0" encoding="UTF-8"?>
<svg version="1.1" xmlns="http://www.w3.org/2000/svg" width="256" height="256">
<path d="M0 0 C1.47146484 -0.01546875 1.47146484 -0.01546875 2.97265625 -0.03125 C8.80899216 1.01452297 12.89348007 5.20570808 16.97344971 9.28198242 C17.44269009 9.74810283 17.91193048 10.21422323 18.39539027 10.6944685 C19.95227764 12.24343624 21.50198611 13.79938421 23.05175781 15.35546875 C24.17212301 16.47312148 25.2929127 17.59034881 26.41409302 18.70718384 C29.44738543 21.73138257 32.47434635 24.76184442 35.49991703 27.79376602 C38.66969683 30.96861894 41.84436431 34.13857843 45.01824951 37.30932617 C50.34454528 42.63198719 55.66661857 47.95884292 60.98632812 53.28808594 C67.13675616 59.44940874 73.29437108 65.60347845 79.45574689 71.75385189 C84.74871317 77.03774465 90.03777505 82.32552188 95.32358813 87.61657047 C98.47935858 90.77545882 101.63646451 93.93298056 104.79709625 97.08700562 C107.76635856 100.0504938 110.73069163 103.01882573 113.69128036 105.99097824 C114.77878963 107.08113324 115.86800674 108.16958759 116.9590416 109.25621414 C118.44719467 110.73890731 119.92905851 112.2276152 121.40948486 113.71801758 C122.24052357 114.54981033 123.07156227 115.38160309 123.92778397 116.23860168 C127.4337476 120.18362681 128.24514679 123.0656846 128.3125 128.3125 C128.34085937 129.30894531 128.36921875 130.30539063 128.3984375 131.33203125 C127.08333677 140.37056254 119.56980114 146.2946104 113.4050293 152.4206543 C112.32159333 153.50816014 111.23879557 154.59630211 110.15658569 155.68502808 C107.22747419 158.62776938 104.28900872 161.56099788 101.34831595 164.49216056 C98.26545107 167.56740637 95.18993948 170.64999228 92.11323547 173.73139954 C86.9461895 178.90389651 81.77286627 184.07005185 76.59594727 189.23266602 C70.61910188 195.1931862 64.65314045 201.1644366 58.69271725 207.14137524 C53.56603964 212.28168637 48.43351429 217.41610361 43.29609615 222.54568034 C40.23164885 225.60546139 37.16923877 228.6672075 34.11209679 231.73428917 C31.23703596 234.61804449 28.35468048 237.49430779 25.46664047 240.36506271 C24.41074688 241.41700474 23.35736963 242.47147985 22.30677605 243.52871513 C10.12321943 255.78214648 10.12321943 255.78214648 2.83984375 257.03125 C1.86144531 257.0209375 0.88304687 257.010625 -0.125 257 C-1.10597656 257.0103125 -2.08695312 257.020625 -3.09765625 257.03125 C-8.93399216 255.98547703 -13.01848007 251.79429192 -17.09844971 247.71801758 C-17.56769009 247.25189717 -18.03693048 246.78577677 -18.52039027 246.3055315 C-20.07727764 244.75656376 -21.62698611 243.20061579 -23.17675781 241.64453125 C-24.29712301 240.52687852 -25.4179127 239.40965119 -26.53909302 238.29281616 C-29.57238543 235.26861743 -32.59934635 232.23815558 -35.62491703 229.20623398 C-38.79469683 226.03138106 -41.96936431 222.86142157 -45.14324951 219.69067383 C-50.46954528 214.36801281 -55.79161857 209.04115708 -61.11132812 203.71191406 C-67.26175616 197.55059126 -73.41937108 191.39652155 -79.58074689 185.24614811 C-84.87371317 179.96225535 -90.16277505 174.67447812 -95.44858813 169.38342953 C-98.60435858 166.22454118 -101.76146451 163.06701944 -104.92209625 159.91299438 C-107.89135856 156.9495062 -110.85569163 153.98117427 -113.81628036 151.00902176 C-114.90378963 149.91886676 -115.99300674 148.83041241 -117.0840416 147.74378586 C-118.57219467 146.26109269 -120.05405851 144.7723848 -121.53448486 143.28198242 C-122.36552357 142.45018967 -123.19656227 141.61839691 -124.05278397 140.76139832 C-127.5587476 136.81637319 -128.37014679 133.9343154 -128.4375 128.6875 C-128.46585938 127.69105469 -128.49421875 126.69460937 -128.5234375 125.66796875 C-127.4047977 117.97969013 -121.9338901 112.94868109 -116.63183594 107.72875977 C-115.88998047 106.98646622 -115.148125 106.24417267 -114.38378906 105.47938538 C-111.94519871 103.0428746 -109.49617646 100.61714539 -107.046875 98.19140625 C-105.34799853 96.49812866 -103.64978593 94.80418478 -101.95220947 93.10960388 C-97.4937874 88.66260747 -93.02642815 84.22469623 -88.55712891 79.78863525 C-83.99357694 75.25583307 -79.43856079 70.71447104 -74.8828125 66.17382812 C-65.95102893 57.27416853 -57.01006444 48.38379219 -48.0625 39.5 C-41.75038331 42.4195562 -37.08364486 47.87238258 -32.17016602 52.69213867 C-30.89167943 53.93746426 -29.60254892 55.17195646 -28.30297852 56.39526367 C-26.42053936 58.16793961 -24.57340021 59.97154519 -22.73046875 61.78515625 C-22.14726364 62.32302261 -21.56405853 62.86088898 -20.96318054 63.41505432 C-18.57457419 65.82946053 -17.11746759 67.34630083 -16.95159912 70.82766724 C-17.23217773 73.25268555 -17.23217773 73.25268555 -17.68186951 75.50639343 C-18.44500174 79.50340748 -16.8522736 82.97531175 -15.0625 86.5 C-12.83241422 89.13035759 -10.92754091 91.00711412 -7.93865967 92.71012878 C-6.0625 94.5 -6.0625 94.5 -5.52764893 97.51582336 C-5.51240173 98.75237167 -5.49715454 99.98891998 -5.48144531 101.26293945 C-5.46801086 101.94624329 -5.45457642 102.62954712 -5.44073486 103.33355713 C-5.40272296 105.59376069 -5.39492441 107.85277789 -5.390625 110.11328125 C-5.37777025 111.68646228 -5.36431362 113.25963849 -5.35028076 114.83280945 C-5.32632105 118.13238604 -5.31892017 121.43154372 -5.32128906 124.73120117 C-5.3216951 128.95221241 -5.26714719 133.17052478 -5.19820023 137.3908968 C-5.15363266 140.64159882 -5.1456147 143.89165341 -5.14772797 147.14262962 C-5.14301814 148.69798251 -5.12538158 150.25335353 -5.0943985 151.80840492 C-4.87399853 164.01564005 -4.87399853 164.01564005 -7.83752441 167.71688843 C-9.99902344 169.31323242 -9.99902344 169.31323242 -12.15570068 170.45744324 C-15.16274011 172.1015645 -15.95123392 174.36230754 -17.0625 177.5 C-18.46344989 182.45720731 -18.04356772 186.77099963 -16.0625 191.5 C-13.1294741 196.32747213 -9.63371764 199.4603463 -4.203125 201.12890625 C1.07481183 202.04387705 5.95826498 201.24015126 10.75 198.875 C15.80594972 195.10782177 17.87954627 191.14000698 18.875 185.0625 C19.18821101 180.34024163 18.43514538 176.54350041 15.9375 172.5 C14.76169901 171.7277526 13.56574558 170.98564119 12.35522461 170.26904297 C9.61823205 167.98124453 8.99043577 166.780792 8.3196106 163.22247314 C8.12589306 158.92577598 8.14983913 154.68034102 8.25390625 150.3828125 C8.26697323 148.79957269 8.27693221 147.21630444 8.28392029 145.63302612 C8.31056065 141.47958282 8.37924416 137.32787186 8.45684814 133.17510986 C8.52864682 128.93208245 8.560467 124.68877318 8.59570312 120.4453125 C8.6706227 112.12941613 8.78998348 103.81492396 8.9375 95.5 C14.87390648 100.56244687 20.70010422 105.70628087 26.375 111.0625 C27.29732422 111.88041016 28.21964844 112.69832031 29.16992188 113.54101562 C35.65826332 119.75080503 35.65826332 119.75080503 36.47900391 124.89208984 C36.44140625 128.37109375 36.44140625 128.37109375 36.12719727 131.58374023 C35.83695293 136.04573332 37.11348678 139.09834771 39.9375 142.5 C44.15687383 146.63823202 48.20866339 147.83735244 54.0625 148.0625 C59.3089248 147.85714751 61.96828646 146.84249561 65.9375 143.5 C66.5975 143.5 67.2575 143.5 67.9375 143.5 C71.02921773 137.75823851 72.9351747 132.07726281 71.9375 125.5 C70.16798496 120.2392796 67.72993252 116.46674394 62.9375 113.5 C60.04170355 112.12104931 57.90762967 111.33547075 54.70043945 111.87939453 C50.86658822 112.44016356 47.65594962 112.54877245 44.24536133 110.46728516 C40.36852489 107.48308744 36.95427881 104.0385186 33.57202148 100.51367188 C31.75127089 98.62631738 29.88093059 96.80170412 27.99804688 94.9765625 C19.42614899 86.42087967 19.42614899 86.42087967 18.18383789 81.53735352 C18.2109375 78.88671875 18.2109375 78.88671875 18.60302734 76.61206055 C19.19371609 72.88209825 17.7359756 69.72286828 15.9375 66.5 C12.74872745 62.62176311 9.69135163 60.14223965 4.9375 58.5 C4.13739502 58.62995361 3.33729004 58.75990723 2.51293945 58.89379883 C-1.68918014 59.54286557 -5.19688502 59.70833858 -8.89089966 57.31576538 C-13.78185284 53.30830622 -18.02355109 48.62966481 -22.3125 44 C-23.65210429 42.60013782 -24.99453044 41.20297027 -26.33984375 39.80859375 C-29.6141752 36.40267808 -32.84787963 32.96228966 -36.0625 29.5 C-33.79842416 24.13353044 -29.38664956 20.48987438 -25.32397461 16.44580078 C-23.88824621 15.01321719 -22.46632041 13.5678788 -21.04492188 12.12109375 C-8.83925029 -0.09316733 -8.83925029 -0.09316733 0 0 Z " fill="#DE4C37" transform="translate(128.0625,-0.5)"/>
</svg>
