<?xml version="1.0" encoding="UTF-8"?>
<svg version="1.1" xmlns="http://www.w3.org/2000/svg" width="256" height="256">
<path d="M0 0 C22.03852652 18.81159856 36.46579334 41.06373377 44.3515625 68.91015625 C44.69316406 70.08835937 45.03476563 71.2665625 45.38671875 72.48046875 C52.92056498 104.36791093 46.53869956 140.38566089 29.7109375 168.21484375 C19.22380228 184.89578124 5.20171214 199.62660904 -11.6484375 209.91015625 C-12.7209375 210.59335938 -13.7934375 211.2765625 -14.8984375 211.98046875 C-42.75922794 228.94201478 -78.25061189 233.92648545 -110.03027344 226.74707031 C-117.81941729 224.77736357 -125.2980262 222.14033195 -132.6484375 218.91015625 C-133.30263672 218.62688477 -133.95683594 218.34361328 -134.63085938 218.05175781 C-164.72593234 204.76588414 -188.43262339 179.18859339 -200.51953125 148.71386719 C-202.47890077 143.51521742 -204.1350825 138.25415274 -205.6484375 132.91015625 C-205.99003906 131.73195312 -206.33164063 130.55375 -206.68359375 129.33984375 C-214.21743998 97.45240157 -207.83557456 61.43465161 -191.0078125 33.60546875 C-172.71931393 4.51560818 -145.47270495 -14.79440926 -112.6484375 -24.08984375 C-111.47023438 -24.43144531 -110.29203125 -24.77304687 -109.078125 -25.125 C-71.91216204 -33.90596927 -29.43835184 -24.14652242 0 0 Z " fill="#000000" transform="translate(208.6484375,27.08984375)"/>
<path d="M0 0 C18.01027184 14.37473224 30.89731816 33.40555364 33.75 56.75 C34.54956997 67.74884637 34.06083124 78.16597724 30.75 88.75 C30.39808594 89.89984375 30.04617187 91.0496875 29.68359375 92.234375 C22.42889709 114.16606524 7.58735053 130.3499994 -12.7109375 141.046875 C-16.1374593 142.70890883 -18.40341888 143.80291132 -22.25 143.5625 C-24.25 142.75 -24.25 142.75 -25.25 141.75 C-25.35995086 139.62573434 -25.4059426 137.49811049 -25.42578125 135.37109375 C-25.46155273 133.39979492 -25.46155273 133.39979492 -25.49804688 131.38867188 C-25.53294164 129.29767033 -25.56237216 127.20722191 -25.57592773 125.1159668 C-25.63827131 117.07172735 -25.92566624 110.73280641 -30.25 103.75 C-30.25 103.09 -30.25 102.43 -30.25 101.75 C-29.64414063 101.65203125 -29.03828125 101.5540625 -28.4140625 101.453125 C-19.13475554 99.7971256 -9.42826785 97.37488666 -3.25 89.75 C3.75207456 77.93201896 5.6136033 66.30128341 3.21875 52.7421875 C2.10361855 49.16649427 0.89233961 46.92397064 -1.5 44 C-2.0775 43.2575 -2.655 42.515 -3.25 41.75 C-2.97103707 40.07337584 -2.62885955 38.40691108 -2.25 36.75 C-1.96615755 31.01471287 -2.0323117 25.38180838 -3.25 19.75 C-9.41766682 20.43008493 -14.23095931 21.44757925 -19.4375 24.9375 C-22.65411435 27.03440682 -24.57608856 28.1924538 -28.4375 27.6875 C-29.695625 27.378125 -30.95375 27.06875 -32.25 26.75 C-40.82058559 25.31815992 -50.41082139 24.42640774 -58.875 26.8125 C-64.09553344 28.26264818 -67.32946473 26.87928989 -71.9375 24.3125 C-76.92938258 21.71521974 -81.7053347 20.54040973 -87.25 19.75 C-88.59022107 25.94852246 -89.2233411 33.12762259 -87.5625 39.30859375 C-87.1413591 42.59875701 -88.14272002 43.65567966 -90.125 46.25 C-95.93000919 53.91801215 -95.17326527 64.49545959 -94.25 73.75 C-92.11807695 82.74634769 -88.51575528 90.42994901 -80.5859375 95.4296875 C-73.97900918 98.99777024 -67.69489529 100.89999227 -60.25 101.75 C-60.55035156 102.49765625 -60.85070312 103.2453125 -61.16015625 104.015625 C-61.78504894 105.58345613 -62.40211329 107.15457357 -62.99609375 108.734375 C-63.6644382 110.44110771 -64.455803 112.09807023 -65.25 113.75 C-70.9621935 115.6540645 -77.06225095 115.74067882 -82.5625 113.25 C-85.4108148 110.60040484 -87.577384 107.86139248 -89.7578125 104.65234375 C-91.92525181 101.88914233 -93.93011987 100.06551879 -97.390625 99.23828125 C-99.34375 99.07552083 -101.296875 98.91276042 -103.25 98.75 C-102.54875 99.41 -101.8475 100.07 -101.125 100.75 C-96.62527983 105.27521433 -92.86767318 110.19656048 -90.1875 116 C-88.09519731 120.40939822 -85.40678072 122.69423321 -81.015625 124.84375 C-77.69028473 125.93340952 -74.92926159 125.94554064 -71.4375 125.875 C-70.27605469 125.85695312 -69.11460938 125.83890625 -67.91796875 125.8203125 C-67.03753906 125.79710937 -66.15710938 125.77390625 -65.25 125.75 C-65.19617894 128.37527189 -65.15641687 130.99944713 -65.125 133.625 C-65.10824219 134.37136719 -65.09148437 135.11773437 -65.07421875 135.88671875 C-65.0566041 137.84194461 -65.14679811 139.79742021 -65.25 141.75 C-65.91 142.41 -66.57 143.07 -67.25 143.75 C-78.42600605 142.99093601 -89.2182437 135.01682713 -97.25 127.75 C-98.00796875 127.08484375 -98.7659375 126.4196875 -99.546875 125.734375 C-112.49455459 113.67963883 -119.57923638 97.83889281 -123.25 80.75 C-123.43433594 79.99074219 -123.61867187 79.23148437 -123.80859375 78.44921875 C-127.39733476 56.50390866 -120.82820108 35.82374326 -108.375 17.875 C-82.42499281 -15.71919536 -35.40954759 -25.60869066 0 0 Z " fill="#FBFBFB" transform="translate(173.25,63.25)"/>
</svg>
