<?xml version="1.0" encoding="UTF-8"?>
<svg version="1.1" xmlns="http://www.w3.org/2000/svg" width="600" height="600">
<path d="M0 0 C198 0 396 0 600 0 C600 198 600 396 600 600 C402 600 204 600 0 600 C0 402 0 204 0 0 Z " fill="#FEFEFE" transform="translate(0,0)"/>
<path d="M0 0 C3.10585251 2.89066643 4.50750568 5.84075747 4.95727539 10.08032227 C5.06154807 13.12618225 5.05368724 16.15197684 5.00390625 19.19921875 C4.99552734 20.31731934 4.98714844 21.43541992 4.97851562 22.58740234 C4.87324841 29.96979226 4.30702812 37.18622206 3.40795898 44.50732422 C1.96822189 57.42737713 2.52847324 70.59472418 2.69140625 83.57421875 C3.56458496 83.54231445 4.43776367 83.51041016 5.33740234 83.47753906 C6.49320801 83.45272461 7.64901367 83.42791016 8.83984375 83.40234375 C10.55179932 83.3544873 10.55179932 83.3544873 12.29833984 83.30566406 C17.65658336 83.72975874 21.63174328 86.15720513 25.69140625 89.57421875 C26.46291016 90.66476563 26.46291016 90.66476563 27.25 91.77734375 C27.72566406 92.3703125 28.20132812 92.96328125 28.69140625 93.57421875 C29.82578125 93.57421875 30.96015625 93.57421875 32.12890625 93.57421875 C35.69140625 93.57421875 35.69140625 93.57421875 37.69140625 95.51171875 C38.35140625 96.19234375 39.01140625 96.87296875 39.69140625 97.57421875 C40.78453125 97.65671875 41.87765625 97.73921875 43.00390625 97.82421875 C47.78696011 98.79704326 48.81864226 100.75949652 51.7421875 104.46484375 C53.88851882 106.78752694 55.91596757 108.01692878 58.69140625 109.51171875 C65.88340962 113.52916964 70.58725783 119.98630039 73.69140625 127.57421875 C74.51765426 131.02265663 74.8268703 134.21963768 74.81640625 137.76171875 C74.81253906 139.2003125 74.81253906 139.2003125 74.80859375 140.66796875 C74.69752779 143.42240451 74.35318847 146.03891386 73.94140625 148.76171875 C73.4106021 153.273554 74.34454347 155.94126244 76.68359375 159.78515625 C78.84957103 163.63018569 78.69737942 166.88966654 78.47363281 171.25952148 C78.05475666 177.75811706 78.05475666 177.75811706 79.8828125 183.86328125 C80.91453286 184.95447422 81.98437164 186.01093812 83.08984375 187.02734375 C87.60420187 191.38755305 88.95085738 197.2383324 89.19140625 203.32421875 C88.71507741 215.80403427 83.80427802 227.33108774 75.19140625 236.32421875 C71.1562399 240.68679991 69.41902314 245.70140792 67.2265625 251.15625 C64.40285451 257.44313167 59.80680831 264.14362735 53.69140625 267.57421875 C46.28101728 268.32781763 38.27329895 267.16708678 31.69140625 263.57421875 C31.98917969 264.40566406 32.28695313 265.23710937 32.59375 266.09375 C33.75704763 269.78235564 34.55657936 273.46516121 35.25390625 277.26171875 C35.44243164 278.22754883 35.44243164 278.22754883 35.63476562 279.21289062 C37.5768849 289.61492212 37.87320461 300.01478208 37.87890625 310.57421875 C37.89115234 311.76789063 37.90339844 312.9615625 37.91601562 314.19140625 C37.93236314 324.15249102 36.91930637 333.29993065 33.19140625 342.57421875 C32.76859375 343.64671875 32.34578125 344.71921875 31.91015625 345.82421875 C30.69140625 348.57421875 30.69140625 348.57421875 28.69140625 351.57421875 C28.29969276 353.74424307 28.29969276 353.74424307 28.19921875 356.14453125 C28.13347656 357.04171875 28.06773437 357.93890625 28 358.86328125 C27.87914706 360.73007344 27.76440031 362.5972726 27.65625 364.46484375 C27.22775639 370.14036292 26.12992003 374.49034454 23.62255859 379.60058594 C22.46033708 382.06398361 21.89422591 384.45753575 21.44140625 387.13671875 C21.291875 387.98363281 21.14234375 388.83054687 20.98828125 389.703125 C20.84132813 390.62931641 20.84132813 390.62931641 20.69140625 391.57421875 C21.89796875 391.54328125 21.89796875 391.54328125 23.12890625 391.51171875 C25.69140625 391.57421875 25.69140625 391.57421875 26.69140625 392.57421875 C27.00463011 398.64122872 26.17387814 403.98989936 24.81640625 409.88671875 C24.27896904 412.28926215 23.74718539 414.69253583 23.22924805 417.09936523 C22.88317246 418.69181564 22.51885468 420.28046758 22.13208008 421.86352539 C20.13945258 430.94285801 20.21262531 440.19225505 20.15600586 449.44604492 C20.12879851 452.3984103 20.05364254 455.34734358 19.97851562 458.29882812 C19.96187788 460.1887783 19.94810475 462.07875634 19.9375 463.96875 C19.89271767 465.2813958 19.89271767 465.2813958 19.84703064 466.62055969 C19.8723966 470.15125584 19.90119564 472.58636909 22.15689087 475.40623474 C23.92927373 476.95623654 25.7230108 478.28515886 27.69140625 479.57421875 C28.42037109 480.09556396 29.14933594 480.61690918 29.90039062 481.15405273 C30.52236328 481.53891846 31.14433594 481.92378418 31.78515625 482.3203125 C32.49744385 482.76149414 33.20973145 483.20267578 33.94360352 483.65722656 C34.68537842 484.10420898 35.42715332 484.55119141 36.19140625 485.01171875 C37.37271118 485.72666504 37.37271118 485.72666504 38.57788086 486.45605469 C47.1502041 491.56091163 56.00257125 495.71001625 65.26171875 499.4140625 C66.03056396 499.72311523 66.79940918 500.03216797 67.59155273 500.35058594 C69.07619383 500.94197035 70.5651343 501.52271443 72.05883789 502.09082031 C76.06994085 503.67061893 78.97618517 505.18360349 81.69140625 508.57421875 C82.37890625 510.94921875 82.37890625 510.94921875 81.69140625 513.57421875 C78.02269 517.83161153 74.16565484 520.25917579 68.69140625 521.57421875 C64.75069031 521.86211288 60.82851884 521.85289107 56.87890625 521.82421875 C55.85603516 521.83195313 54.83316406 521.8396875 53.77929688 521.84765625 C47.75094676 521.83279895 41.89930293 521.39112533 35.9296875 520.5859375 C23.47924678 518.94836973 10.90833783 519.18891052 -1.62841797 519.11791992 C-4.85539803 519.09620308 -8.08181196 519.05682043 -11.30859375 519.015625 C-12.28062744 519.01550919 -13.25266113 519.01539337 -14.25415039 519.01527405 C-21.72014322 518.90766645 -28.37173689 518.01118508 -34.24609375 513.13671875 C-38.13977298 508.29911728 -38.86633583 504.79346994 -38.30859375 498.57421875 C-37.53735985 495.27015534 -36.4767476 492.09235589 -35.37109375 488.88671875 C-29.03274844 469.98933191 -30.56502069 453.50392706 -38.30859375 435.32421875 C-43.87165006 422.21806497 -46.97528679 406.81863021 -45.30859375 392.57421875 C-44.64859375 391.58421875 -43.98859375 390.59421875 -43.30859375 389.57421875 C-40.18359375 389.38671875 -40.18359375 389.38671875 -37.30859375 389.57421875 C-37.06882812 388.68992187 -36.8290625 387.805625 -36.58203125 386.89453125 C-35.18961763 383.26400494 -33.58869138 381.26309299 -30.93359375 378.44921875 C-30.16273438 377.62164062 -29.391875 376.7940625 -28.59765625 375.94140625 C-27.84226562 375.16023438 -27.086875 374.3790625 -26.30859375 373.57421875 C-25.59445312 372.81367188 -24.8803125 372.053125 -24.14453125 371.26953125 C-22.30859375 369.57421875 -22.30859375 369.57421875 -20.30859375 369.57421875 C-21.81168675 359.86104956 -23.43358054 350.68148329 -27.30859375 341.57421875 C-27.77007812 342.25226563 -28.2315625 342.9303125 -28.70703125 343.62890625 C-34.2107596 351.48205224 -40.34699122 359.89113778 -48.80859375 364.76171875 C-52.22737037 367.2403318 -52.33555014 369.54303807 -53.30859375 373.57421875 C-53.96472656 374.39792969 -54.62085938 375.22164063 -55.296875 376.0703125 C-58.4349739 380.6037497 -58.12416465 385.92475774 -58.37109375 391.26171875 C-59.03060465 404.21581557 -61.85892115 414.36839911 -67.68359375 425.94921875 C-76.1174358 442.50562228 -76.1174358 442.50562228 -79.58984375 460.55078125 C-79.62722656 461.46859375 -79.66460937 462.38640625 -79.703125 463.33203125 C-79.77372449 465.25129155 -79.84403467 467.17056251 -79.9140625 469.08984375 C-79.95144531 470.00507813 -79.98882812 470.9203125 -80.02734375 471.86328125 C-80.05763672 472.69553223 -80.08792969 473.5277832 -80.11914062 474.38525391 C-80.30859375 476.57421875 -80.30859375 476.57421875 -81.30859375 479.57421875 C-81.42045244 483.22262379 -81.2165661 486.86602662 -81.05859375 490.51171875 C-80.99297241 492.07744629 -80.99297241 492.07744629 -80.92602539 493.67480469 C-80.59872335 500.06142903 -79.76992996 505.85229893 -77.95703125 512 C-76.52240291 517.69530166 -76.22934099 523.27494113 -78.74609375 528.63671875 C-82.37101972 531.37751644 -85.88272232 531.91535116 -90.30859375 532.57421875 C-91.25863281 532.74824219 -92.20867187 532.92226563 -93.1875 533.1015625 C-105.33056413 534.94049962 -117.80869272 533.87234544 -127.99609375 526.51171875 C-130.9291803 524.14389513 -133.14315919 522.08015982 -133.57421875 518.15625 C-133.531969 510.66748221 -133.30071239 504.31974481 -128.99609375 498.01171875 C-125.68145122 493.09859477 -124.1620648 487.56632859 -122.421875 481.96484375 C-121.30859375 478.57421875 -121.30859375 478.57421875 -120.2265625 476.55859375 C-117.51856303 470.70470554 -118.11716159 463.37182829 -118.02734375 457.05859375 C-117.99972961 455.54292816 -117.99972961 455.54292816 -117.97155762 453.99664307 C-117.91312623 450.77255784 -117.86030079 447.54841833 -117.80859375 444.32421875 C-117.41423494 420.22041879 -117.41423494 420.22041879 -116.86328125 408.9765625 C-116.82908081 408.22594543 -116.79488037 407.47532837 -116.75964355 406.70196533 C-116.31424595 398.45787669 -114.58726179 390.63203263 -111.55859375 382.94921875 C-109.93585668 379.64904074 -109.93585668 379.64904074 -111.30859375 376.57421875 C-112.87107103 375.06761213 -112.87107103 375.06761213 -114.80859375 373.57421875 C-118.22917245 370.70044659 -120.89739321 367.67507567 -123.62109375 364.13671875 C-136.69089572 347.76578123 -154.25928862 343.59830079 -174.11621094 341.27050781 C-178.7276392 340.77458893 -183.34115137 340.42244006 -187.96875 340.11328125 C-189.73750488 339.99351929 -189.73750488 339.99351929 -191.54199219 339.87133789 C-193.86617208 339.71898203 -196.19105971 339.57694283 -198.51660156 339.44702148 C-218.29161321 338.17718699 -236.36127687 331.3304907 -250.12109375 316.69921875 C-254.16825638 311.99321569 -257.36000606 307.02290345 -260.30859375 301.57421875 C-261.14390625 300.12015625 -261.14390625 300.12015625 -261.99609375 298.63671875 C-265.53216836 290.38587799 -266.82300087 281.81496795 -267.74609375 272.94921875 C-269.73476826 255.77068192 -272.24340689 237.96988255 -283.85546875 224.4140625 C-285.30859375 222.57421875 -285.30859375 222.57421875 -286.30859375 219.57421875 C-292.66378368 223.20367355 -298.99450346 226.87373781 -305.30859375 230.57421875 C-306.01209961 230.98494629 -306.71560547 231.39567383 -307.44042969 231.81884766 C-319.79630651 239.08973469 -331.05314231 247.71889797 -342.30859375 256.57421875 C-342.90607422 257.04279297 -343.50355469 257.51136719 -344.11914062 257.99414062 C-353.56930698 265.44225408 -362.84561079 273.48604018 -370.80859375 282.52734375 C-372.30859375 283.57421875 -372.30859375 283.57421875 -374.43359375 283.37109375 C-376.30859375 282.57421875 -376.30859375 282.57421875 -377.30859375 280.57421875 C-380.3918289 253.83816535 -363.67780345 225.77885747 -347.92578125 205.5078125 C-330.98851695 184.52370818 -311.40280937 169.11461894 -288.30859375 155.57421875 C-287.49116699 155.09339844 -286.67374023 154.61257812 -285.83154297 154.1171875 C-273.11343688 146.66572902 -260.17661504 139.66489163 -247.04370117 132.97216797 C-245.22739774 132.0438315 -243.41752295 131.10280314 -241.61450195 130.14892578 C-232.55979155 125.44646218 -223.14201847 121.82639025 -213.62109375 118.19921875 C-212.76530731 117.87095093 -211.90952087 117.54268311 -211.02780151 117.20446777 C-197.69669427 112.09653504 -184.3018698 107.46086563 -170.63745117 103.31640625 C-168.52153108 102.64208011 -166.46350716 101.89487213 -164.39453125 101.08984375 C-159.15944758 99.07446564 -153.76236096 97.60883676 -148.37109375 96.07421875 C-134.16261035 92.34352995 -134.16261035 92.34352995 -121.30859375 85.57421875 C-117.5878201 83.79882422 -114.59623217 83.36381918 -110.49609375 83.26171875 C-105.170975 82.9293062 -102.42371891 81.66393449 -98.18359375 78.58984375 C-94.75039963 76.73019693 -92.01061592 77.71041358 -88.30859375 78.57421875 C-87.29732422 78.92419922 -87.29732422 78.92419922 -86.265625 79.28125 C-85.61980469 79.37792969 -84.97398437 79.47460938 -84.30859375 79.57421875 C-83.29796875 78.76984375 -82.28734375 77.96546875 -81.24609375 77.13671875 C-77.22658131 73.99701375 -73.98663339 74.27860416 -69.04296875 74.53125 C-65.17426357 74.59204394 -61.99677169 73.68763096 -58.30859375 72.57421875 C-57.2317944 63.15222446 -56.47613162 53.48011146 -57.8046875 44.0546875 C-58.64837432 37.76105598 -58.49290242 31.41219973 -58.49609375 25.07421875 C-58.50833984 23.79417969 -58.52058594 22.51414062 -58.53320312 21.1953125 C-58.55825786 5.04336228 -58.55825786 5.04336228 -53.74609375 -0.23828125 C-39.27782092 -10.71895693 -14.5820698 -8.67617932 0 0 Z " fill="#0A0B08" transform="translate(444.30859375,36.42578125)"/>
<path d="M0 0 C0.06316406 0.53625 0.12632812 1.0725 0.19140625 1.625 C2.23717244 14.71790362 8.29461442 29.2439788 19.08520508 37.3046875 C28.21216219 43.56327693 37.65072299 48.50439999 47.6875 53.125 C74.7435781 65.62290668 74.7435781 65.62290668 76.9597168 71.57958984 C77.20003833 73.22841178 77.38453035 74.88610922 77.51953125 76.546875 C78.27652778 80.4118654 80.71600972 82.45802612 83.41796875 85.1875 C85 87 85 87 85.8125 90.25 C87.34212566 93.79229101 88.61556539 93.97122616 92.125 95.375 C93.74251961 95.93861165 95.36560833 96.48736793 97 97 C95.43402493 103.72223445 93.62113445 110.31068052 91.5 116.875 C86.71271659 131.84620584 84.82162837 146.26408051 84.8125 161.9375 C84.80025391 163.04029297 84.78800781 164.14308594 84.77539062 165.27929688 C84.76421263 171.59486545 85.24137868 177.404541 86.66674805 183.56469727 C87.14105176 187.03076286 86.7454557 189.72734391 84.96850586 192.76098633 C84.55479736 193.27943115 84.14108887 193.79787598 83.71484375 194.33203125 C83.26689453 194.90244141 82.81894531 195.47285156 82.35742188 196.06054688 C81.88884766 196.63869141 81.42027344 197.21683594 80.9375 197.8125 C80.46505859 198.40998047 79.99261719 199.00746094 79.50585938 199.62304688 C78.34527494 201.08843126 77.17371168 202.54510876 76 204 C71.09891402 203.57990692 69.22275152 201.58908579 66 198 C65.55221191 197.5054834 65.10442383 197.0109668 64.64306641 196.50146484 C63.69317239 195.45186002 62.74655683 194.39928031 61.80297852 193.34399414 C47.15663533 177.06628103 31.10422787 168.63263183 9 167 C4.51989771 166.84038016 0.03912624 166.75596615 -4.44281006 166.66952515 C-25.27403991 166.23195475 -46.75250541 164.87633002 -62.75 149.6875 C-69.52836036 142.39996703 -73.55213197 134.27230224 -77 125 C-77.2990625 124.24589844 -77.598125 123.49179687 -77.90625 122.71484375 C-79.88401219 117.10788795 -80.38007359 111.56799238 -80.875 105.6875 C-82.4796251 86.98215594 -86.79111849 68.92615858 -97.64453125 53.375 C-99 51 -99 51 -99 47 C-98.34217529 46.65855957 -97.68435059 46.31711914 -97.0065918 45.96533203 C-93.89994305 44.35243587 -90.79368646 42.73878626 -87.6875 41.125 C-86.53902588 40.52856689 -85.39055176 39.93213379 -84.20727539 39.31762695 C-78.48287008 36.3419572 -72.76657759 33.35320123 -67.07177734 30.32128906 C-9.9941053 0 -9.9941053 0 0 0 Z " fill="#87CD02" transform="translate(265,203)"/>
<path d="M0 0 C4.23824824 0.71848399 8.13324165 2.02166055 12.1875 3.4375 C28.67913573 9.03451605 45.06941041 9.15090899 62.3125 9.0625 C64.03580598 9.05747105 65.75911339 9.05291063 67.48242188 9.04882812 C71.65498409 9.037942 75.82747568 9.02075565 80 9 C80.03303223 9.90878906 80.06606445 10.81757813 80.10009766 11.75390625 C80.56670289 21.15835275 82.10448398 29.83853499 84.375 39 C88.89841134 58.16345845 91.24828087 76.56373545 91.375 96.25 C91.38312714 97.00220825 91.39125427 97.7544165 91.39962769 98.52941895 C91.48909259 109.55065025 91.06081337 120.08206179 84.875 129.625 C84.35679687 130.44226563 83.83859375 131.25953125 83.3046875 132.1015625 C82 134 82 134 81 135 C81.0042375 136.72254497 81.01561336 138.44540664 81.06542969 140.16723633 C81.28965013 148.24192909 80.5249636 155.26530139 78 163 C77.66355469 164.03898438 77.32710937 165.07796875 76.98046875 166.1484375 C74.34513189 173.82743406 74.34513189 173.82743406 72 175 C58.96278179 177.05850814 40.55304044 178.18434681 28 174 C28.33752558 168.59959079 31.43071735 164.82480176 35 161 C38.84380031 157.96719931 42.09820886 156.79890088 47 157 C46.12891873 144.02389275 43.74313817 132.90806113 38.10498047 121.13037109 C35.94965836 116.51952568 35.94965836 116.51952568 36.1953125 113.984375 C36.46085937 113.32953125 36.72640625 112.6746875 37 112 C40.91026146 97.97942287 43.6453956 84.15443667 45.4609375 69.70703125 C46.32919232 63.73620641 47.64146491 57.87792848 49 52 C45.80574297 58.80988413 43.46240961 65.5387562 41.625 72.8125 C35.30457146 97.68108134 28.96443462 120.42799763 9 138 C7.88625 138.66 6.7725 139.32 5.625 140 C2.33864821 142.50388708 2.21330896 144.09148773 1.47265625 147.99609375 C0.51210695 152.06850524 -2.24883296 155.06306047 -4.81640625 158.265625 C-5.77353516 159.46445312 -5.77353516 159.46445312 -6.75 160.6875 C-7.67039062 161.80705078 -7.67039062 161.80705078 -8.609375 162.94921875 C-10.28061576 165.00086112 -10.28061576 165.00086112 -10 168 C-9.01 167.34 -8.02 166.68 -7 166 C-6.66161224 175.28686395 -6.85891876 183.16718508 -10 192 C-10.42539062 193.21171875 -10.85078125 194.4234375 -11.2890625 195.671875 C-13.28672149 201.2129517 -15.34545134 206.69628868 -17.875 212.01953125 C-22.3410657 221.44378474 -24.34570575 229.55655438 -25 240 C-25.04817871 240.70737305 -25.09635742 241.41474609 -25.14599609 242.14355469 C-25.3735713 245.48989312 -25.58274305 248.8336855 -25.75390625 252.18359375 C-26 255 -26 255 -27 256 C-35.84082702 256.59319097 -43.65860361 256.12911774 -52 253 C-52.13242736 243.21719144 -51.74372226 233.50765246 -51.125 223.75 C-51.07920807 223.0212265 -51.03341614 222.292453 -50.98623657 221.54159546 C-49.02131492 190.57359818 -46.00513806 162.00513806 -23 139 C-23.12950253 136.61728291 -23.12950253 136.61728291 -23.75 133.9375 C-23.93046875 133.03902344 -24.1109375 132.14054688 -24.296875 131.21484375 C-24.67030853 129.50742267 -25.05381635 127.80096452 -25.51000977 126.11376953 C-30.3734906 107.13850931 -27.3246693 85.51473897 -22.67480469 66.83056641 C-22.01860776 64.07805295 -21.48373299 61.32633252 -20.9765625 58.54296875 C-19.42616944 50.64270497 -18.23361729 45.0268513 -11.4375 40.0625 C-10.40109375 39.41796875 -9.3646875 38.7734375 -8.296875 38.109375 C-4.50263561 35.68178108 -1.40234753 32.94593474 1.8125 29.8125 C2.34625244 29.32467041 2.88000488 28.83684082 3.42993164 28.33422852 C6.01561592 25.79250819 6.99171461 24.5162437 7.05078125 20.8359375 C5.89872337 17.72666605 4.99078266 16.75609947 2.375 14.8125 C-0.18229111 12.5000005 -0.95054489 11.59994723 -1.23828125 8.109375 C-0.96656279 5.35690227 -0.58165256 2.70297366 0 0 Z " fill="#ECECEC" transform="translate(385,255)"/>
<path d="M0 0 C1.29647461 -0.0309375 1.29647461 -0.0309375 2.61914062 -0.0625 C8.54447626 -0.09827561 12.74508641 0.92005861 18.1875 3.25 C21.41008868 4.25862841 24.35296653 4.37887562 27.72265625 4.3828125 C28.77904297 4.38410156 29.83542969 4.38539063 30.92382812 4.38671875 C32.5702832 4.38091797 32.5702832 4.38091797 34.25 4.375 C35.35150391 4.37886719 36.45300781 4.38273438 37.58789062 4.38671875 C38.64298828 4.38542969 39.69808594 4.38414062 40.78515625 4.3828125 C41.74945557 4.38168457 42.71375488 4.38055664 43.70727539 4.37939453 C46.32113923 4.35343817 46.32113923 4.35343817 49.1875 3.25 C55.39160742 2.47922494 60.91433254 3.58875983 66.875 5.25 C77.79469115 8.22081732 87.73842163 8.20251025 98.6015625 4.953125 C108.25166282 2.32923065 114.69589584 4.91806903 123.11499023 9.62817383 C125.15388554 10.81272305 127.1739406 12.02298724 129.1875 13.25 C130.0640625 13.77207031 130.940625 14.29414063 131.84375 14.83203125 C139.74574179 20.10509116 143.57321383 28.55395218 145.71875 37.5703125 C146.59307872 42.56855837 147.13664738 47.08805319 145.0625 51.8125 C142.37286327 53.87455483 140.52131737 53.49016511 137.1875 53.25 C134.65234375 52.296875 134.65234375 52.296875 132.125 51 C120.61314041 45.48396428 110.0494093 43.5889539 97.375 43.8125 C96.672612 43.81865326 95.970224 43.82480652 95.24655151 43.83114624 C83.27805676 43.93833798 71.92129651 44.6243686 60.625 48.9375 C53.55910698 51.45041798 45.23599142 51.67795628 38.1640625 49.18359375 C32.23002151 46.06354641 26.89169709 41.98004929 21.59765625 37.88671875 C19.35759349 36.3655092 17.83008986 35.67305963 15.1875 35.25 C12.78411122 38.82277956 11.83978974 41.42204556 11.4375 45.6875 C10.05737456 55.13785044 5.49234111 64.09281456 -0.8125 71.25 C-6.73020137 75.59769897 -11.5376447 77.29243353 -18.8125 76.25 C-22.31551569 74.85852432 -25.56096599 73.15068794 -28.8125 71.25 C-28.37679687 71.5903125 -27.94109375 71.930625 -27.4921875 72.28125 C-16.71106854 81.055494 -11.64211387 93.06420157 -5.875 105.38671875 C-1.40728377 114.79700819 3.74940673 123.81190673 11.1875 131.25 C12.87029043 131.5487027 14.55912045 131.81363602 16.25 132.0625 C26.09616163 133.83886937 33.73008179 138.44010405 40.1875 146.25 C40.72620652 150.15562227 40.17252551 151.65571797 38.1328125 154.95703125 C33.9954358 160.3796877 28.1560782 165.0226087 22.1875 168.25 C18.27099393 168.57438784 15.42534377 168.59464549 12.1875 166.25 C11.754375 165.5075 11.32125 164.765 10.875 164 C8.93047192 160.83113942 6.71828302 159.03626381 3.80859375 156.77734375 C1.28479346 154.39949818 0.27846849 152.34889935 -0.0078125 148.890625 C0.01539063 148.10171875 0.03859375 147.3128125 0.0625 146.5 C0.08054687 145.70078125 0.09859375 144.9015625 0.1171875 144.078125 C0.14039063 143.47484375 0.16359375 142.8715625 0.1875 142.25 C-0.35132813 141.99992188 -0.89015625 141.74984375 -1.4453125 141.4921875 C-4.33606574 139.97525758 -6.97163975 138.18778691 -9.6875 136.375 C-15.91693584 132.28284949 -22.37085896 128.70736619 -28.9375 125.1875 C-46.28877883 115.84078427 -62.24700009 106.94649972 -68.8125 87.25 C-69.69554191 80.65728935 -69.66545659 75.6565779 -65.625 70.1875 C-64.98691406 69.37925781 -64.34882813 68.57101563 -63.69140625 67.73828125 C-59.22432148 61.82241222 -56.90474328 55.09625569 -55.25 47.9375 C-53.87432947 42.00444051 -52.33360122 38.4109439 -47.625 34.375 C-43.62165939 32.77366376 -40.06498759 32.55250204 -35.8125 33.25 C-32.4375 35.125 -32.4375 35.125 -29.8125 37.25 C-28.8225 37.91 -27.8325 38.57 -26.8125 39.25 C-29.79377544 34.12220625 -32.84603764 31.49730231 -37.8125 28.25 C-37.77370608 19.87051363 -34.88000078 15.45340773 -29.17578125 9.55859375 C-20.6901677 1.66637975 -11.18305042 0.06583105 0 0 Z " fill="#ECECEC" transform="translate(345.8125,126.75)"/>
<path d="M0 0 C-0.46019531 1.05767578 -0.46019531 1.05767578 -0.9296875 2.13671875 C-2.01594498 5.04265573 -2.6097058 7.75754152 -3.125 10.8125 C-3.37636719 12.27623047 -3.37636719 12.27623047 -3.6328125 13.76953125 C-3.75398437 14.50558594 -3.87515625 15.24164063 -4 16 C-5.19625 16.2475 -6.3925 16.495 -7.625 16.75 C-12.89552886 18.14186502 -16.53001088 19.67374222 -19.5625 24.47265625 C-22.9136895 30.83153833 -25.15624288 37.23568663 -26.9453125 44.1875 C-28.89304106 49.38144282 -32.41446737 51.43579566 -37.35379028 53.68757629 C-38.05043793 53.99434799 -38.74708557 54.30111969 -39.46484375 54.6171875 C-40.20209686 54.95098923 -40.93934998 55.28479095 -41.69894409 55.62870789 C-43.28387822 56.34548018 -44.87059322 57.05832515 -46.45889282 57.76760864 C-50.66093 59.64499353 -54.84920783 61.55265234 -59.0390625 63.45703125 C-60.30557396 64.03139168 -60.30557396 64.03139168 -61.59767151 64.61735535 C-69.38868367 68.1578197 -77.11425171 71.82520136 -84.8125 75.5625 C-85.71494446 76.00029282 -85.71494446 76.00029282 -86.63562012 76.44692993 C-94.38694726 80.21109676 -102.12325231 84.00500073 -109.8125 87.89453125 C-113.19630642 89.60427079 -116.59670106 91.27863281 -120 92.94921875 C-160.00193927 112.64795151 -196.73597001 136.08030459 -229 167 C-230.12028856 163.15043174 -229.69747783 160.66995729 -228.75 156.75 C-228.49734375 155.67234375 -228.2446875 154.5946875 -227.984375 153.484375 C-214.45733949 105.60296359 -174.65897575 75.02784546 -133.1796875 51.69140625 C-115.1352623 41.7106862 -96.70119021 32.031873 -77.22265625 25.16015625 C-74.54590314 24.19652513 -72.00912494 23.14516917 -69.4375 21.9375 C-64.42915692 19.625219 -59.18765149 18.01892647 -53.94140625 16.34375 C-50.97262217 15.36867446 -48.09139622 14.24511974 -45.19921875 13.0625 C-39.96051787 10.93933485 -34.64329442 9.18522543 -29.25 7.5 C-28.29496582 7.19956787 -27.33993164 6.89913574 -26.35595703 6.58959961 C-5.29978021 0 -5.29978021 0 0 0 Z " fill="#86CB01" transform="translate(305,139)"/>
<path d="M0 0 C2.89520813 1.32051249 4.43382364 2.41454259 6.8125 4.6875 C15.09290327 11.8532336 25.23030402 16.08057502 36.1875 15.5078125 C42.42770815 14.67663723 48.53846235 13.34295732 54.67578125 11.95703125 C59.47175706 10.87847139 64.08240625 10.17051296 69 10 C69.68078613 9.96890137 70.36157227 9.93780273 71.06298828 9.90576172 C87.63178153 9.21984746 102.62504447 11.63327833 118 18 C118.05498946 19.8329821 118.09323089 21.66646845 118.125 23.5 C118.14820313 24.5209375 118.17140625 25.541875 118.1953125 26.59375 C117.76644931 34.07312397 115.14678322 40.26468323 112.125 47 C105.53719914 62.30218485 103.3396151 76.42678306 103 93 C94.40125173 93.86434382 85.83115292 94.24504481 77.19189453 94.29516602 C75.81744091 94.30669285 74.4430323 94.32715639 73.06884766 94.35668945 C59.19942671 94.65245147 47.31721144 91.60658978 34.875 85.4375 C34.06546875 85.05142578 33.2559375 84.66535156 32.421875 84.26757812 C24.11817065 80.24589953 24.11817065 80.24589953 22 78 C20.953125 74.85546875 20.953125 74.85546875 20.25 71.1875 C20.00765625 69.98480469 19.7653125 68.78210938 19.515625 67.54296875 C18.5877987 61.16767741 18.5877987 61.16767741 19 58 C20.96875 56.1015625 20.96875 56.1015625 23.5 54.625 C24.3353125 54.12226563 25.170625 53.61953125 26.03125 53.1015625 C26.6809375 52.73804688 27.330625 52.37453125 28 52 C27.09378906 51.99742187 26.18757813 51.99484375 25.25390625 51.9921875 C9.00166858 51.47624345 1.68987912 42.10044347 -9 31 C-7.99930085 28.99389989 -6.9953395 26.99099555 -5.96484375 25 C-5.62582031 24.34 -5.28679687 23.68 -4.9375 23 C-4.59589844 22.34 -4.25429688 21.68 -3.90234375 21 C-1.46128333 15.5895111 -1.61861297 9.86916413 -1.28125 4.01953125 C-1 1 -1 1 0 0 Z " fill="#EDEDED" transform="translate(363,167)"/>
<path d="M0 0 C3.10585251 2.89066643 4.50750568 5.84075747 4.95727539 10.08032227 C5.06154807 13.12618225 5.05368724 16.15197684 5.00390625 19.19921875 C4.99133789 20.87636963 4.99133789 20.87636963 4.97851562 22.58740234 C4.87324841 29.96979226 4.30702812 37.18622206 3.40795898 44.50732422 C1.96802586 57.42913632 2.54124951 70.59400247 2.69140625 83.57421875 C6.98140625 83.57421875 11.27140625 83.57421875 15.69140625 83.57421875 C15.69140625 84.23421875 15.69140625 84.89421875 15.69140625 85.57421875 C17.1146984 86.48919227 18.54072243 87.40020503 19.98046875 88.2890625 C21.94048184 89.76130978 23.20644145 91.37962199 24.69140625 93.32421875 C26.10937412 95.16929598 26.10937412 95.16929598 27.69140625 96.57421875 C30.77506496 96.82443445 30.77506496 96.82443445 33.69140625 96.57421875 C34.28953125 97.23421875 34.88765625 97.89421875 35.50390625 98.57421875 C38.13135353 100.97645626 38.98520177 100.84578633 42.44140625 100.82421875 C43.85907682 100.76019492 45.27647074 100.68305994 46.69140625 100.57421875 C47.35140625 102.22421875 48.01140625 103.87421875 48.69140625 105.57421875 C40.52024412 106.26582181 35.11092945 105.96253002 28.28515625 101.30859375 C20.50611633 96.10694658 12.18271213 91.83033424 2.69140625 93.57421875 C-0.53588174 94.50885413 -3.68976295 95.5301166 -6.83984375 96.69921875 C-13.75834631 98.4444266 -19.93109731 97.92487841 -26.67382812 95.796875 C-39.76064129 91.72444365 -52.82227424 92.25172467 -66.36206055 92.75976562 C-75.4279242 93.03216026 -82.26942372 92.64440302 -90.61401367 88.74731445 C-94.52836598 87.04318626 -98.07200831 86.78963835 -102.30859375 86.57421875 C-98.3852103 82.4672852 -94.55473292 80.54778947 -88.87109375 80.19921875 C-85.33708737 79.93460929 -83.61989344 79.3115005 -80.93359375 77.01171875 C-77.10349105 73.90142653 -73.81219735 74.2875187 -69.04296875 74.53125 C-65.17426357 74.59204394 -61.99677169 73.68763096 -58.30859375 72.57421875 C-57.2317944 63.15222446 -56.47613162 53.48011146 -57.8046875 44.0546875 C-58.64837432 37.76105598 -58.49290242 31.41219973 -58.49609375 25.07421875 C-58.50833984 23.79417969 -58.52058594 22.51414062 -58.53320312 21.1953125 C-58.55825786 5.04336228 -58.55825786 5.04336228 -53.74609375 -0.23828125 C-39.27782092 -10.71895693 -14.5820698 -8.67617932 0 0 Z " fill="#0A0B0A" transform="translate(444.30859375,36.42578125)"/>
<path d="M0 0 C0.93114624 0.21221191 0.93114624 0.21221191 1.88110352 0.42871094 C9.93723736 2.09574982 17.7301677 2.29941695 25.9375 2.25 C27.21818359 2.25773437 28.49886719 2.26546875 29.81835938 2.2734375 C36.86367447 2.25908128 43.52368818 1.80462648 50.44067383 0.44091797 C54.01477623 -0.17482456 57.38294109 -0.13911765 61 0 C60.81824219 0.83917969 60.81824219 0.83917969 60.6328125 1.6953125 C59.35763533 7.7965448 58.36665961 13.90765342 57.53320312 20.08447266 C57.1995231 22.53482075 56.85282247 24.98347075 56.48681641 27.42919922 C54.84295728 39.1092509 54.56404198 50.71835229 54.375 62.5 C54.33670675 64.4987128 54.29764901 66.49741111 54.2578125 68.49609375 C54.16308534 73.33060781 54.07861986 78.16519829 54 83 C54.82636963 83.40750488 54.82636963 83.40750488 55.66943359 83.82324219 C60.3736833 86.19852855 64.98929343 88.74436416 69.625 91.25 C70.66785156 91.81074219 71.71070313 92.37148438 72.78515625 92.94921875 C77.64922954 95.57861167 82.43716894 98.24802542 87.12109375 101.1875 C92.00902337 104.15755523 97.00831431 106.00971926 102.4375 107.75 C104.18743283 108.3243762 105.93619 108.90235003 107.68359375 109.484375 C108.82139282 109.85127441 108.82139282 109.85127441 109.98217773 110.22558594 C112 111 112 111 115 113 C114.75 115.375 114.75 115.375 114 118 C106.18341889 123.79006008 90.13751994 121.76879164 80.95947266 120.61914062 C77.69861207 120.12021114 74.44268585 119.5971932 71.1875 119.0625 C57.44476726 116.80701333 43.87493593 116.4657208 29.97338867 116.41625977 C29.15745743 116.40841461 28.34152618 116.40056946 27.50086975 116.39248657 C25.97093322 116.37866526 24.44081565 116.37705297 22.91087341 116.39022827 C18.20707156 116.34230969 14.97504122 115.52825676 11 113 C8.45775253 109.18662879 8.30673669 106.40426102 9 102 C10.66492141 96.8734794 12.58746367 91.82507267 15 87 C16.4469757 68.15634684 15.62368821 49.86902813 6.11328125 33.140625 C3.50395945 28.12340272 2.40333316 22.70698788 1.375 17.1875 C1.24311279 16.48625 1.11122559 15.785 0.9753418 15.0625 C0.05946106 9.93783053 -0.27782488 5.18606443 0 0 Z " fill="#86CB01" transform="translate(404,433)"/>
<path d="M0 0 C0.12117188 0.64066406 0.24234375 1.28132812 0.3671875 1.94140625 C1.35679227 7.04928933 2.48510951 12.02250269 4 17 C2.88072113 17.38829735 2.88072113 17.38829735 1.73883057 17.78443909 C-1.09170218 19.0406997 -2.64773801 20.27321359 -4.82128906 22.44897461 C-5.53263 23.15408676 -6.24397095 23.85919891 -6.97686768 24.5856781 C-7.73215759 25.35017776 -8.48744751 26.11467743 -9.265625 26.90234375 C-10.45487579 28.09084679 -10.45487579 28.09084679 -11.66815186 29.30335999 C-13.34601223 30.98355982 -15.02018279 32.66745126 -16.69091797 34.35473633 C-19.21824676 36.90545292 -21.75840464 39.44280738 -24.30078125 41.97851562 C-32.31292907 50.00474768 -40.09645257 57.98575649 -47 67 C-47.97480832 68.20560261 -48.95233896 69.40901341 -49.93359375 70.609375 C-58.49648362 81.2868658 -66.32144299 92.25701311 -72.5 104.5 C-72.82637451 105.14630371 -73.15274902 105.79260742 -73.48901367 106.45849609 C-75.49430643 110.58010129 -76.86171924 114.58347066 -78 119 C-79.53248729 116.24198504 -80.26612675 114.11646416 -80.45703125 110.97265625 C-80.51479736 110.19083984 -80.57256348 109.40902344 -80.63208008 108.60351562 C-80.69161865 107.76498047 -80.75115723 106.92644531 -80.8125 106.0625 C-82.43870546 87.23384639 -86.7158195 69.03404967 -97.64453125 53.375 C-99 51 -99 51 -99 47 C-98.34217529 46.65855957 -97.68435059 46.31711914 -97.0065918 45.96533203 C-93.89994305 44.35243587 -90.79368646 42.73878626 -87.6875 41.125 C-86.53902588 40.52856689 -85.39055176 39.93213379 -84.20727539 39.31762695 C-78.48287008 36.3419572 -72.76657759 33.35320123 -67.07177734 30.32128906 C-9.9941053 0 -9.9941053 0 0 0 Z " fill="#517B00" transform="translate(265,203)"/>
<path d="M0 0 C7.79379161 -0.5566994 12.25010358 1.55820699 18.6875 5.75 C23.15147976 10.09333166 26.79996205 15.55748649 27.16796875 21.890625 C27.20383334 28.05933402 26.94594143 33.16217571 25 39 C24.15574177 43.70372443 26.24146533 46.37354182 28.80859375 50.1328125 C31.32009588 54.06887158 31.18318401 57.935921 31.1875 62.4375 C31.20167969 63.75621094 31.21585938 65.07492188 31.23046875 66.43359375 C30.90953483 71.39991012 30.90953483 71.39991012 29 74 C27.08984375 75.4140625 27.08984375 75.4140625 24.9375 76.625 C21.8842328 78.2426718 21.8842328 78.2426718 20 81 C20.9590625 80.505 20.9590625 80.505 21.9375 80 C26.03581133 78.66177589 29.7281256 78.36425826 34 79 C37.60091793 81.1452277 39.46968346 83.14064908 41 87 C41.80523929 94.81186688 41.20461385 101.83448343 38 109 C37.45472656 110.25103516 37.45472656 110.25103516 36.8984375 111.52734375 C35.01444046 115.56882127 33.18721635 118.98916468 30.0625 122.1875 C27.00221573 125.47360678 25.64209357 129.15878479 24.125 133.3125 C21.43982575 140.59094823 17.834277 148.07544693 10.953125 152.23828125 C5.03443371 154.54657085 -0.13684398 152.44139169 -5.66796875 150.16796875 C-11.51850735 147.2377995 -11.51850735 147.2377995 -12.828125 143.87109375 C-13.28248351 141.25011829 -13.68243908 138.64135966 -14 136 C-14.11988281 135.11957031 -14.23976563 134.23914063 -14.36328125 133.33203125 C-14.8450624 127.08776962 -14.8450624 127.08776962 -12.50390625 124.07421875 C-7.42139108 119.64683028 -3.53417019 118.7882853 3.125 118.4375 C3.87910156 118.39431641 4.63320313 118.35113281 5.41015625 118.30664062 C7.27321888 118.2005168 9.13658524 118.09974999 11 118 C10.53554334 113.23931921 9.84548571 110.10782198 7 106.25 C3.6307765 101.61731769 2.87576434 98.55391651 2.9375 92.8125 C2.94652344 91.72582031 2.95554687 90.63914062 2.96484375 89.51953125 C2.97644531 88.68808594 2.98804688 87.85664063 3 87 C4.98 86.01 4.98 86.01 7 85 C7 84.34 7 83.68 7 83 C5.96875 82.9175 4.9375 82.835 3.875 82.75 C-0.52975387 81.89746699 -2.48512937 80.65758511 -6 78 C-4.69071729 73.74324994 -3.00058153 70.00111019 -0.9375 66.0625 C1.60448449 60.77176672 2.38554175 56.67818461 2.4375 50.9375 C2.59720024 44.48294869 2.59720024 44.48294869 4.53125 42.1640625 C6.95593457 40.76291281 9.18228146 40 12 40 C12.5852769 26.13218892 11.91703968 15.85839312 2.48828125 4.875 C1 3 1 3 0 0 Z " fill="#EAEAEA" transform="translate(486,146)"/>
<path d="M0 0 C1.38419764 2.76839528 0.39548156 4.3411373 -0.53808594 7.15380859 C-0.77301758 7.84555176 -1.00794922 8.53729492 -1.25 9.25 C-6.19499886 24.43821079 -8.17822277 39.00849079 -8.1875 54.9375 C-8.19974609 56.04029297 -8.21199219 57.14308594 -8.22460938 58.27929688 C-8.23578737 64.59486545 -7.75862132 70.404541 -6.33325195 76.56469727 C-5.85894824 80.03076286 -6.2545443 82.72734391 -8.03149414 85.76098633 C-8.44520264 86.27943115 -8.85891113 86.79787598 -9.28515625 87.33203125 C-9.73310547 87.90244141 -10.18105469 88.47285156 -10.64257812 89.06054688 C-11.11115234 89.63869141 -11.57972656 90.21683594 -12.0625 90.8125 C-12.53494141 91.40998047 -13.00738281 92.00746094 -13.49414062 92.62304688 C-14.65472506 94.08843126 -15.82628832 95.54510876 -17 97 C-21.90108598 96.57990692 -23.77724848 94.58908579 -27 91 C-27.44778809 90.5054834 -27.89557617 90.0109668 -28.35693359 89.50146484 C-29.30682761 88.45186002 -30.25344317 87.39928031 -31.19702148 86.34399414 C-47.65363468 68.05437571 -64.90529273 62.07053991 -89 59 C-86.07060573 57.4141625 -83.06823775 56.29226077 -79.92578125 55.20043945 C-63.22907452 49.31845866 -48.18066777 40.51516879 -34 30 C-33.39317383 29.55011719 -32.78634766 29.10023438 -32.16113281 28.63671875 C-20.62083653 19.99239536 -10.07437358 10.30866133 0 0 Z " fill="#517B00" transform="translate(358,310)"/>
<path d="M0 0 C0.95132812 -0.01611328 1.90265625 -0.03222656 2.8828125 -0.04882812 C10.45583895 -0.05401513 16.82946464 1.10340424 23.25 5.25 C27.40597655 9.53585082 26.45529056 15.35234043 26.40234375 21 C25.41800394 55.557649 25.41800394 55.557649 17.1875 65.6875 C12.3762621 69.98690408 8.1188793 69.52535961 2 69.5625 C1.16597656 69.583125 0.33195312 69.60375 -0.52734375 69.625 C-6.03480325 69.65958373 -9.9488427 69.10145252 -14.75 66.3125 C-19.84319966 59.83236497 -20.58555402 51.33229287 -21.390625 43.40234375 C-21.56119951 40.40602916 -21.56119951 40.40602916 -22.75 38.3125 C-23.53348844 28.21274144 -24.03215858 15.95595562 -20.75 6.3125 C-18.4375 3.6875 -18.4375 3.6875 -15.75 2.3125 C-15.09128906 1.96058594 -14.43257813 1.60867187 -13.75390625 1.24609375 C-9.19465893 -0.17088949 -4.74618005 -0.0158206 0 0 Z " fill="#EBEBEB" transform="translate(415.75,37.6875)"/>
<path d="M0 0 C5.71035203 1.5391964 5.71035203 1.5391964 7.375 4.1875 C8.11666499 7.52499244 8.13365916 10.59169153 8 14 C6.68 13.67 5.36 13.34 4 13 C4.76699878 15.66782183 5.53848993 18.33421175 6.3125 21 C6.63250977 22.11568359 6.63250977 22.11568359 6.95898438 23.25390625 C8.05220446 27.00675132 9.22542097 30.67787406 10.63671875 34.32421875 C12.09282566 38.25028352 12.64965213 40.85846769 12 45 C9.625 46.875 9.625 46.875 7 48 C6.01 48.495 6.01 48.495 5 49 C-8.5135988 49.59476433 -20.0727147 49.97598435 -31 41 C-32.77122626 37.45754748 -32.6308058 33.85904725 -32 30 C-28.68476333 23.11645516 -21.75908979 17.37954489 -15 14 C-16.98 14 -18.96 14 -21 14 C-21.54781352 10.86963705 -21.33480584 8.68432842 -19.93359375 5.8203125 C-14.7460336 -1.48647648 -8.37027177 -1.17241465 0 0 Z " fill="#E9E9E9" transform="translate(349,514)"/>
<path d="M0 0 C0.33 0 0.66 0 1 0 C1.03440186 0.71913574 1.06880371 1.43827148 1.10424805 2.17919922 C1.96712048 19.30554484 3.46008883 36.28644917 5.5 53.3125 C5.6612587 54.67287384 5.6612587 54.67287384 5.82577515 56.06072998 C7.27667387 68.60640249 7.27667387 68.60640249 9.60766602 81.01025391 C11.29398565 89.56252835 9.6195821 94.83050006 5 102 C3.72216099 104.183415 2.45150365 106.37104651 1.1875 108.5625 C0.135625 110.356875 -0.91625 112.15125 -2 114 C3.28 114 8.56 114 14 114 C14 114.33 14 114.66 14 115 C-12.15429234 115.28190255 -12.15429234 115.28190255 -19 113 C-18.66247442 107.59959079 -15.56928265 103.82480176 -12 100 C-8.15619969 96.96719931 -4.90179114 95.79890088 0 96 C-0.87108127 83.02389275 -3.25686183 71.90806113 -8.89501953 60.13037109 C-11.05034164 55.51952568 -11.05034164 55.51952568 -10.8046875 52.984375 C-10.53914063 52.32953125 -10.27359375 51.6746875 -10 51 C-6.05286744 36.84721839 -3.23074836 22.78930467 -1.4296875 8.20703125 C-1.05850746 5.43667841 -0.58644366 2.73159282 0 0 Z " fill="#8E8E8E" transform="translate(432,316)"/>
<path d="M0 0 C2.51680344 0.99322128 3.61841911 2.22310432 5.4140625 4.2421875 C11.36445124 10.4620278 18.84267847 15.88556822 26.34765625 20.1015625 C29.03163909 22.80414106 29.29527449 26.11582319 29.8515625 29.7421875 C30.03972534 30.87321899 30.03972534 30.87321899 30.23168945 32.02709961 C31.19176986 38.40395499 31.059003 44.42698729 30.0390625 50.8046875 C28.66328889 50.68851106 27.28845205 50.56122973 25.9140625 50.4296875 C25.14835937 50.36007812 24.38265625 50.29046875 23.59375 50.21875 C16.3356371 49.04235861 13.37328109 46.57931854 9.05078125 40.82421875 C1.49497831 29.4831786 -3.77159067 16.04685553 -6.9609375 2.8046875 C-2.55564133 -0.25454595 -2.55564133 -0.25454595 0 0 Z " fill="#85C901" transform="translate(343.9609375,207.1953125)"/>
<path d="M0 0 C4.57657473 1.25005076 8.30586862 2.85832645 12.359375 5.34765625 C23.75561496 11.20089746 40.82161298 16.72304533 53.51171875 14.453125 C58.42765951 12.49751353 62.93513979 9.95148919 67.5 7.296875 C70.10185721 6.20561062 72.45381535 6.02868953 75.26171875 5.828125 C76.2465625 5.75335938 77.23140625 5.67859375 78.24609375 5.6015625 C78.99375 5.55257812 79.74140625 5.50359375 80.51171875 5.453125 C80.51171875 6.113125 80.51171875 6.773125 80.51171875 7.453125 C81.9350109 8.36809852 83.36103493 9.27911128 84.80078125 10.16796875 C86.76079434 11.64021603 88.02675395 13.25852824 89.51171875 15.203125 C90.92968662 17.04820223 90.92968662 17.04820223 92.51171875 18.453125 C95.59537746 18.7033407 95.59537746 18.7033407 98.51171875 18.453125 C99.10984375 19.113125 99.70796875 19.773125 100.32421875 20.453125 C102.95166603 22.85536251 103.80551427 22.72469258 107.26171875 22.703125 C108.67938932 22.63910117 110.09678324 22.56196619 111.51171875 22.453125 C112.50171875 24.928125 112.50171875 24.928125 113.51171875 27.453125 C105.34055662 28.14472806 99.93124195 27.84143627 93.10546875 23.1875 C85.32642883 17.98585283 77.00302463 13.70924049 67.51171875 15.453125 C64.28443076 16.38776038 61.13054955 17.40902285 57.98046875 18.578125 C51.06196619 20.32333285 44.88921519 19.80378466 38.14648438 17.67578125 C25.05967121 13.6033499 11.99803826 14.13063092 -1.54174805 14.63867188 C-10.6076117 14.91106651 -17.44911122 14.52330927 -25.79370117 10.6262207 C-29.70805348 8.92209251 -33.25169581 8.6685446 -37.48828125 8.453125 C-34.1337808 5.01381976 -32.02111377 3.59505394 -27.11328125 3.140625 C-21.57434428 3.61811957 -17.74868713 6.01202794 -13.48828125 9.453125 C-14.47828125 7.803125 -15.46828125 6.153125 -16.48828125 4.453125 C-11.18563582 -0.84952043 -7.2703408 -1.5978771 0 0 Z " fill="#7FC101" transform="translate(379.48828125,114.546875)"/>
<path d="M0 0 C2.79238709 1.27583203 4.80249205 2.62116417 7 4.75 C11.70813616 8.93272053 17.32782262 11.37347451 23 14 C22.566875 14.40089844 22.13375 14.80179688 21.6875 15.21484375 C18.65927399 18.3061578 16.5298524 20.83126553 16.1875 25.25 C16.61105629 31.46568857 20.49858061 36.08065044 24 41 C24.99197217 42.51251202 25.97287355 44.03240288 26.9375 45.5625 C27.33839844 46.18253906 27.73929687 46.80257812 28.15234375 47.44140625 C29 49 29 49 29 51 C13.51044271 52.10202384 13.51044271 52.10202384 7.40625 47.265625 C1.79353218 41.98092315 -3.65270807 36.55266445 -9 31 C-7.99930085 28.99389989 -6.9953395 26.99099555 -5.96484375 25 C-5.62582031 24.34 -5.28679687 23.68 -4.9375 23 C-4.59589844 22.34 -4.25429688 21.68 -3.90234375 21 C-1.46128333 15.5895111 -1.61861297 9.86916413 -1.28125 4.01953125 C-1 1 -1 1 0 0 Z " fill="#8E8E8E" transform="translate(363,167)"/>
<path d="M0 0 C2 0 2 0 4.25 2.1875 C5.99698718 3.97419143 7.71803309 5.78691757 9.40234375 7.6328125 C14.0155683 11.4167331 19.62832345 10.76399857 25.3125 10.6875 C26.40240234 10.71521484 27.49230469 10.74292969 28.61523438 10.77148438 C35.44360109 10.75095411 39.6753188 9.71588673 45.08666992 5.48364258 C46.97878563 4.01645014 48.83100835 2.99914409 51 2 C51.23303424 5.56139065 51.37461781 9.12082446 51.5 12.6875 C51.60054688 14.19860352 51.60054688 14.19860352 51.703125 15.74023438 C51.78102162 18.69056893 51.7498813 21.14220688 51 24 C47.2926839 27.87342587 42.26620717 29.82162757 36.97265625 30.23828125 C31.86186489 29.93173428 27.32737927 28.64310797 22.4375 27.1875 C21.51775391 26.92646484 20.59800781 26.66542969 19.65039062 26.39648438 C11.51127716 24.02672093 5.49329312 21.62184349 0.28125 14.6953125 C-2.01938172 9.85556894 -1.02840489 5.10745624 0 0 Z " fill="#E6E6E6" transform="translate(391,99)"/>
<path d="M0 0 C0.93114624 0.21221191 0.93114624 0.21221191 1.88110352 0.42871094 C9.93723736 2.09574982 17.7301677 2.29941695 25.9375 2.25 C27.21818359 2.25773437 28.49886719 2.26546875 29.81835938 2.2734375 C36.86367447 2.25908128 43.52368818 1.80462648 50.44067383 0.44091797 C54.01477623 -0.17482456 57.38294109 -0.13911765 61 0 C60.34 3.3 59.68 6.6 59 10 C57.35686339 10.48833406 55.71028534 10.96508966 54.0625 11.4375 C53.14597656 11.70433594 52.22945313 11.97117187 51.28515625 12.24609375 C42.25061023 14.31942001 33.1607543 14.18299426 23.9375 14.1875 C22.60090962 14.19967 21.26432104 14.21203857 19.92773438 14.22460938 C6.97176774 14.24407252 6.97176774 14.24407252 1 12 C-0.34704161 7.95887516 -0.06113241 4.21813605 0 0 Z " fill="#85CA01" transform="translate(404,433)"/>
<path d="M0 0 C0 3.3 0 6.6 0 10 C-3.5 10.5 -3.5 10.5 -7 11 C-8.0835376 11.1738623 -9.1670752 11.34772461 -10.28344727 11.52685547 C-14.03315113 12.00422038 -17.62380552 12.12941126 -21.40234375 12.1328125 C-22.08373917 12.13376923 -22.76513458 12.13472595 -23.46717834 12.13571167 C-24.89828586 12.13638754 -26.32939655 12.13457498 -27.76049805 12.13037109 C-29.9282941 12.12502271 -32.09588222 12.13033206 -34.26367188 12.13671875 C-40.91395369 12.13958834 -47.42620353 12.07991963 -54 11 C-54.33 12.32 -54.66 13.64 -55 15 C-55.66 10.71 -56.32 6.42 -57 2 C-55.98292969 2.16113281 -54.96585937 2.32226562 -53.91796875 2.48828125 C-47.40629627 3.2970513 -40.8641265 3.18426463 -34.3125 3.1875 C-33.02666016 3.19974609 -31.74082031 3.21199219 -30.41601562 3.22460938 C-20.1099171 3.24023257 -9.96887118 0 0 0 Z " fill="#609200" transform="translate(462,443)"/>
<path d="M0 0 C0.68449219 0.47050781 1.36898438 0.94101562 2.07421875 1.42578125 C5.39547559 3.21278593 8.08517732 3.69805359 11.8125 4.1875 C14.8753125 4.5896875 14.8753125 4.5896875 18 5 C18.495 13.415 18.495 13.415 19 22 C4.425 22.4125 4.425 22.4125 -1 19 C-3.49143957 15.26284065 -3.52843512 12.32704117 -3 8 C-2.18120238 5.21230175 -1.14834054 2.67946126 0 0 Z " fill="#5D8D00" transform="translate(416,527)"/>
<path d="M0 0 C-0.33 4.29 -0.66 8.58 -1 13 C-1.33 13 -1.66 13 -2 13 C-2 11.35 -2 9.7 -2 8 C-2.58305908 8.13712402 -3.16611816 8.27424805 -3.7668457 8.41552734 C-12.87699579 10.32921567 -21.91964602 10.44429238 -31.1875 10.625 C-32.82358641 10.66327103 -34.45965465 10.70232771 -36.09570312 10.7421875 C-40.06365081 10.837175 -44.03169216 10.92155856 -48 11 C-51 4.375 -51 4.375 -51 1 C-50.15397217 1.16153564 -49.30794434 1.32307129 -48.4362793 1.48950195 C-42.94639994 2.30508545 -37.44485547 2.18595173 -31.90698242 2.18530273 C-29.83556137 2.18747581 -27.76468556 2.205629 -25.69335938 2.22460938 C-18.67906663 2.2533164 -12.01387845 1.92918946 -5.14331055 0.4309082 C-3 0 -3 0 0 0 Z " fill="#609200" transform="translate(460,460)"/>
<path d="M0 0 C3.465 1.485 3.465 1.485 7 3 C6.93039062 4.30324219 6.93039062 4.30324219 6.859375 5.6328125 C6.49054117 14.5520679 6.49054117 14.5520679 11 22 C15 26.77777778 15 26.77777778 15 30 C13.89140625 30.04898437 12.7828125 30.09796875 11.640625 30.1484375 C10.17705935 30.22349215 8.71351888 30.29903881 7.25 30.375 C6.15558594 30.42140625 6.15558594 30.42140625 5.0390625 30.46875 C1.17008241 30.67978528 -1.62577514 31.12907766 -5 33 C-4.17395727 4.17395727 -4.17395727 4.17395727 0 0 Z " fill="#F2F2F2" transform="translate(477,231)"/>
<path d="M0 0 C5.31985868 5.31985868 5.16532682 14.51325731 5.20654297 21.63500977 C5.17894103 25.42532225 5.10701025 29.21104459 5 33 C-3.83916284 30.09059633 -3.83916284 30.09059633 -7 27 C-9.06150383 20.74599961 -10.83056473 13.59785691 -10 7 C-8.06640625 5.13671875 -8.06640625 5.13671875 -5.5625 3.6875 C-4.73878906 3.19636719 -3.91507812 2.70523438 -3.06640625 2.19921875 C-2.38449219 1.80347656 -1.70257813 1.40773437 -1 1 C-0.67 0.67 -0.34 0.34 0 0 Z " fill="#909090" transform="translate(392,218)"/>
<path d="M0 0 C6.82575125 2.51774902 14.16225379 1.64590298 21.31777954 1.45239258 C35.07983061 1.10479996 47.71922388 1.23532204 60.96875 5.41796875 C68.03308749 7.53542727 74.78676372 7.06556804 81.66796875 4.51171875 C89.05757979 1.76918269 95.83876879 1.23994435 103.16015625 4.375 C104.79759975 5.17148809 106.42535495 5.98819239 108.04296875 6.82421875 C108.87054688 7.22833984 109.698125 7.63246094 110.55078125 8.04882812 C113.63559795 9.5787977 116.53614061 11.03088163 119.28271484 13.12109375 C121.57004116 14.80830052 123.1082253 14.99261997 125.91796875 15.19921875 C127.11679687 15.29783203 127.11679687 15.29783203 128.33984375 15.3984375 C128.943125 15.43582031 129.54640625 15.47320312 130.16796875 15.51171875 C130.16796875 15.84171875 130.16796875 16.17171875 130.16796875 16.51171875 C125.93154105 17.48459359 121.97070916 18.36135814 117.921875 16.453125 C116.45668364 15.41808156 115.00813131 14.35920891 113.57421875 13.28125 C105.67118756 7.46944298 98.03280188 4.01272095 88.16796875 5.51171875 C86.40882685 5.97853752 84.65845506 6.47954642 82.91796875 7.01171875 C72.32085746 10.15327373 62.25374827 8.85232228 51.82666016 5.94628906 C45.45907344 4.20178797 39.49872779 3.40146574 33.16796875 5.51171875 C29.31838098 5.77179941 25.46290069 5.74320678 21.60546875 5.76171875 C20.55810547 5.78234375 19.51074219 5.80296875 18.43164062 5.82421875 C10.8562867 5.86188365 4.00895887 4.93221381 -2.83203125 1.51171875 C-5.54465241 1.27945415 -8.23976251 1.0923564 -10.95703125 0.94921875 C-11.71113281 0.90603516 -12.46523438 0.86285156 -13.2421875 0.81835938 C-15.10525013 0.71223555 -16.96861649 0.61146874 -18.83203125 0.51171875 C-18.83203125 0.18171875 -18.83203125 -0.14828125 -18.83203125 -0.48828125 C-16.52197511 -0.74089608 -14.2087029 -0.96416083 -11.89453125 -1.17578125 C-10.60675781 -1.30339844 -9.31898438 -1.43101563 -7.9921875 -1.5625 C-4.89260272 -1.68157517 -2.84404035 -1.19852478 0 0 Z " fill="#1D2313" transform="translate(358.83203125,126.48828125)"/>
<path d="M0 0 C0.66 0 1.32 0 2 0 C2 3.3 2 6.6 2 10 C-4.89378697 14.44532834 -9.78018635 15.82625877 -17.9375 15.625 C-18.90880859 15.61098145 -19.88011719 15.59696289 -20.88085938 15.58251953 C-30.06986392 15.27115913 -35.98744679 13.06743128 -42.625 6.6875 C-43.40875 5.800625 -44.1925 4.91375 -45 4 C-44.67 3.01 -44.34 2.02 -44 1 C-43.56679443 1.49588623 -43.13358887 1.99177246 -42.68725586 2.50268555 C-38.71553523 6.55056086 -35.79936503 8.48392868 -30.06640625 8.89453125 C-27.89828465 8.9037461 -25.72972284 8.87559799 -23.5625 8.8125 C-22.48162109 8.83119141 -21.40074219 8.84988281 -20.28710938 8.86914062 C-11.570215 8.76870339 -6.12386459 6.12386459 0 0 Z " fill="#8B8B8B" transform="translate(440,101)"/>
<path d="M0 0 C2.0944425 0.68263311 4.18400921 1.37639582 6.26953125 2.0859375 C8.1743553 2.72360392 10.0895724 3.33068734 12.01171875 3.9140625 C12.99785156 4.23117187 13.98398437 4.54828125 15 4.875 C16.3921875 5.30425781 16.3921875 5.30425781 17.8125 5.7421875 C20 7 20 7 20.8125 9.6328125 C20.874375 10.41398438 20.93625 11.19515625 21 12 C14.86724418 16.14862894 9.15759118 16.12340674 2 16 C2.33 15.46375 2.66 14.9275 3 14.375 C4.29617187 11.29659181 4.39874003 9.32283362 4 6 C2.11586085 2.67191761 2.11586085 2.67191761 0 0 Z " fill="#5B8A00" transform="translate(498,538)"/>
<path d="M0 0 C4.07729712 0.781658 8.01613614 1.82827534 12 3 C11.01 3.495 11.01 3.495 10 4 C9.56846183 6.22134442 9.56846183 6.22134442 9.4375 8.8125 C9.20718875 11.99455538 8.86713747 14.9256035 8 18 C4.06732285 16.3977982 1.4767515 14.46745209 -1 11 C-1.12678646 7.24923378 -0.65247627 3.68875197 0 0 Z " fill="#8D8D8D" transform="translate(385,255)"/>
<path d="M0 0 C0.33 0 0.66 0 1 0 C1.20625 1.299375 1.4125 2.59875 1.625 3.9375 C2.66683744 8.75124524 4.77249371 12.11504032 7.66015625 16.0546875 C9 18 9 18 10 21 C9.01 21 8.02 21 7 21 C7 20.34 7 19.68 7 19 C5.96875 18.9175 4.9375 18.835 3.875 18.75 C-0.52975387 17.89746699 -2.48512937 16.65758511 -6 14 C-4.50829734 9.0276578 -2.39542583 4.58154261 0 0 Z " fill="#898989" transform="translate(486,210)"/>
<path d="M0 0 C5.05008278 0.47344526 9.03898636 2.97459002 13 6 C13.99 7.485 13.99 7.485 15 9 C16.670625 8.9690625 16.670625 8.9690625 18.375 8.9375 C22.82070726 9.01415013 23.04894175 9.95672118 26 13 C27.155 13.165 28.31 13.33 29.5 13.5 C33.45434149 14.06490593 34.54569818 14.95666574 37 18 C36.505 19.485 36.505 19.485 36 21 C35.690625 20.34 35.38125 19.68 35.0625 19 C33.23071883 16.78922745 33.23071883 16.78922745 30.9375 16.875 C30.15375 16.91625 29.37 16.9575 28.5625 17 C26.140625 17.125 26.140625 17.125 24 17 C21.8125 15 21.8125 15 20 13 C18.58267578 13.07154297 18.58267578 13.07154297 17.13671875 13.14453125 C14 13 14 13 11.875 11.13671875 C11.25625 10.32847656 10.6375 9.52023438 10 8.6875 C6.87843315 4.86958363 4.59944737 2.72479276 0 1 C0 0.67 0 0.34 0 0 Z " fill="#171B10" transform="translate(458,121)"/>
<path d="M0 0 C0 0.99 0 1.98 0 3 C-0.9075 3.2475 -1.815 3.495 -2.75 3.75 C-6.10351489 5.03981342 -7.67708236 6.31971042 -10 9 C-9.01 10.65 -8.02 12.3 -7 14 C-9.15734891 12.99837372 -10.93653061 12.05440233 -12.75 10.5 C-15.99545416 8.33636389 -19.19635404 7.82412329 -23 7 C-23 6.67 -23 6.34 -23 6 C-22.43152344 5.98582031 -21.86304688 5.97164063 -21.27734375 5.95703125 C-15.78674414 5.61787902 -12.93681097 4.52534594 -8.70703125 1.078125 C-5.89449319 -0.69821483 -3.20047352 -0.32657893 0 0 Z " fill="#141B07" transform="translate(374,111)"/>
<path d="M0 0 C0.86141602 0.26184082 1.72283203 0.52368164 2.61035156 0.79345703 C3.56167969 1.07060547 4.51300781 1.34775391 5.49316406 1.63330078 C6.48574219 1.93623047 7.47832031 2.23916016 8.50097656 2.55126953 C18.93481766 6.02128062 18.93481766 6.02128062 29.55175781 4.61767578 C30.380625 4.16263672 31.20949219 3.70759766 32.06347656 3.23876953 C32.90523438 2.78630859 33.74699219 2.33384766 34.61425781 1.86767578 C35.67193359 1.27792969 35.67193359 1.27792969 36.75097656 0.67626953 C37.41097656 0.34626953 38.07097656 0.01626953 38.75097656 -0.32373047 C38.49316406 1.53564453 38.49316406 1.53564453 37.75097656 3.67626953 C31.81910347 8.14586693 24.85294615 8.25877267 17.75097656 7.67626953 C13.61802249 6.90324668 9.60549935 5.82742932 5.56347656 4.67626953 C4.51611328 4.39009766 3.46875 4.10392578 2.38964844 3.80908203 C-0.16027354 3.11047327 -2.70598676 2.39946262 -5.24902344 1.67626953 C-2.24902344 -0.32373047 -2.24902344 -0.32373047 0 0 Z " fill="#242F10" transform="translate(404.2490234375,122.32373046875)"/>
<path d="M0 0 C5.22624733 1.93084081 10.22051415 2.1153222 15.75 2.25 C16.71099609 2.28416016 17.67199219 2.31832031 18.66210938 2.35351562 C21.00378927 2.43506667 23.34513863 2.50450966 25.6875 2.5625 C25.6875 2.8925 25.6875 3.2225 25.6875 3.5625 C21.2325 4.0575 21.2325 4.0575 16.6875 4.5625 C16.6875 4.8925 16.6875 5.2225 16.6875 5.5625 C9.57693316 5.95753149 3.108039 4.7727695 -3.3125 1.5625 C-6.02512116 1.3302354 -8.72023126 1.14313765 -11.4375 1 C-12.19160156 0.95681641 -12.94570313 0.91363281 -13.72265625 0.86914062 C-15.58571888 0.7630168 -17.44908524 0.66224999 -19.3125 0.5625 C-19.3125 0.2325 -19.3125 -0.0975 -19.3125 -0.4375 C-17.00244386 -0.69011483 -14.68917165 -0.91337958 -12.375 -1.125 C-11.08722656 -1.25261719 -9.79945313 -1.38023438 -8.47265625 -1.51171875 C-5.30130875 -1.63043229 -2.96922366 -1.10100019 0 0 Z " fill="#3E4A28" transform="translate(359.3125,126.4375)"/>
<path d="M0 0 C1.04929687 0.46921875 2.09859375 0.9384375 3.1796875 1.421875 C16.13517442 7.69767442 16.13517442 7.69767442 18.4375 10 C19.95219448 10.23192865 21.47504562 10.41215238 23 10.5625 C23.82628906 10.64628906 24.65257812 10.73007813 25.50390625 10.81640625 C26.14199219 10.87699219 26.78007812 10.93757812 27.4375 11 C27.4375 11.33 27.4375 11.66 27.4375 12 C23.2010723 12.97287484 19.24024041 13.84963939 15.19140625 11.94140625 C13.72987837 10.90895077 12.28780444 9.84856625 10.86328125 8.765625 C8.10851865 6.7605482 5.28679609 5.23023735 2.25 3.6875 C1.28707031 3.19636719 0.32414062 2.70523438 -0.66796875 2.19921875 C-3.65486571 0.96173242 -6.36398457 0.40277602 -9.5625 0 C-5.82067538 -2.54762527 -4.0015112 -1.79028997 0 0 Z " fill="#2D3224" transform="translate(461.5625,131)"/>
<path d="M0 0 C0.66 0.66 1.32 1.32 2 2 C1.01902344 1.84660156 0.03804688 1.69320312 -0.97265625 1.53515625 C-5.11808732 0.94295181 -9.25870695 0.67071718 -13.4375 0.4375 C-14.16904297 0.39431641 -14.90058594 0.35113281 -15.65429688 0.30664062 C-17.43604715 0.20183179 -19.21800402 0.10054479 -21 0 C-21 -0.33 -21 -0.66 -21 -1 C-18.62556577 -1.22354724 -16.25174905 -1.429163 -13.875 -1.625 C-13.20984375 -1.68945312 -12.5446875 -1.75390625 -11.859375 -1.8203125 C-7.41293983 -2.16905251 -4.0906168 -1.78433433 0 0 Z " fill="#3C3E3A" transform="translate(361,127)"/>
<path d="M0 0 C1.33877662 4.01632987 0.49049413 6.09632491 -1 10 C-3.08203125 11.21484375 -3.08203125 11.21484375 -5 12 C-4.54738642 10.56068883 -4.08767021 9.12361001 -3.625 7.6875 C-3.24214844 6.48673828 -3.24214844 6.48673828 -2.8515625 5.26171875 C-2 3 -2 3 0 0 Z " fill="#3F3F3F" transform="translate(434,306)"/>
<path d="M0 0 C0.33 0.99 0.66 1.98 1 3 C-6.28571429 7.57142857 -6.28571429 7.57142857 -11 7 C-8.62463329 5.41642219 -6.23494336 3.88406307 -3.8125 2.375 C-2.73935547 1.70597656 -2.73935547 1.70597656 -1.64453125 1.0234375 C-1.10183594 0.68570313 -0.55914062 0.34796875 0 0 Z " fill="#2E3325" transform="translate(442,122)"/>
<path d="M0 0 C0.9590625 0.4640625 0.9590625 0.4640625 1.9375 0.9375 C5.92049104 2.31935403 9.81650849 2.6536543 14 3 C14 3.33 14 3.66 14 4 C12.41986783 4.25028811 10.83557694 4.47440946 9.25 4.6875 C8.36828125 4.81511719 7.4865625 4.94273437 6.578125 5.07421875 C3.41693303 4.98321474 2.22937052 4.19290886 0 2 C0 1.34 0 0.68 0 0 Z " fill="#243209" transform="translate(475,139)"/>
<path d="M0 0 C2.26171875 0.4609375 2.26171875 0.4609375 4.6875 1.375 C5.49574219 1.67148438 6.30398438 1.96796875 7.13671875 2.2734375 C7.75160156 2.51320313 8.36648438 2.75296875 9 3 C4.47907032 4.45606519 1.48351204 3.27032841 -3 2 C-2.01 1.34 -1.02 0.68 0 0 Z " fill="#1B2607" transform="translate(402,122)"/>
<path d="M0 0 C2.64 0 5.28 0 8 0 C8 0.33 8 0.66 8 1 C6.02 1 4.04 1 2 1 C2.33 1.99 2.66 2.98 3 4 C2.01 4 1.02 4 0 4 C0 2.68 0 1.36 0 0 Z " fill="#3C3C3C" transform="translate(484,145)"/>
</svg>
