<?xml version="1.0" encoding="UTF-8"?>
<svg version="1.1" xmlns="http://www.w3.org/2000/svg" width="571" height="644">
<path d="M0 0 C3.03773833 1.73980787 5.978988 3.58553124 8.88574219 5.53613281 C12.56629151 7.94923264 16.39085878 10.09750573 20.20898438 12.28393555 C23.31385625 14.06611836 26.40112805 15.87552159 29.484375 17.69482422 C34.54129798 20.67664799 39.61247911 23.6324283 44.6953125 26.56982422 C45.44893066 27.00593018 46.20254883 27.44203613 46.97900391 27.89135742 C51.40215132 30.4497723 55.82910157 33.00152175 60.2578125 35.55029297 C71.91117973 42.25956294 83.53960021 49.0073396 95.1328125 55.81982422 C105.06343759 61.65472363 115.02847466 67.42375886 125.0390625 73.12060547 C134.36805785 78.43196547 143.65447527 83.81772122 152.95019531 89.18701172 C156.35101071 91.15004396 159.75339084 93.11033719 163.15625 95.06982422 C173.22178492 100.86731089 183.28050157 106.67361502 193.28369141 112.578125 C198.26183884 115.51507441 203.2553628 118.42447175 208.2578125 121.31982422 C209.02746338 121.76600098 209.79711426 122.21217773 210.59008789 122.671875 C215.33155941 125.41666071 220.0852129 128.13892196 224.84765625 130.84716797 C258.83753754 150.21095309 258.83753754 150.21095309 262.3203125 161.13232422 C264.15760532 169.30158087 264.6096824 177.30275676 264.58100891 185.64927673 C264.58483446 186.85092187 264.58866001 188.05256701 264.59260148 189.29062563 C264.60107133 192.59052504 264.60072224 195.89028016 264.59642088 199.19018304 C264.59393768 202.76286293 264.6029874 206.33551748 264.61045837 209.90818787 C264.62316275 216.89333137 264.62500446 223.87843635 264.62265811 230.86358946 C264.62087024 236.54445076 264.62263461 242.22530044 264.62688255 247.90616035 C264.62747774 248.71673728 264.62807293 249.52731421 264.62868616 250.36245408 C264.62989799 252.00947916 264.63111212 253.65650425 264.63232853 255.30352933 C264.64318736 270.72479533 264.64104927 286.14603942 264.63494369 301.56730665 C264.62977431 315.65481668 264.64103348 329.74225757 264.66004191 343.82975393 C264.6794433 358.32035215 264.68767238 372.8109177 264.68391865 387.30152899 C264.68201032 395.42671426 264.68445836 403.55184068 264.69863319 411.6770153 C264.71057725 418.59300254 264.71191799 425.50889468 264.69984303 432.4248833 C264.69397589 435.94857769 264.69279445 439.47209838 264.70484543 442.99578094 C264.71534123 446.82680927 264.70718883 450.65737594 264.6945343 454.48838806 C264.70190859 455.58627448 264.70928287 456.68416091 264.71688062 457.81531662 C264.63881469 469.10945002 263.14760726 480.50302786 255.3203125 489.13232422 C248.25211707 495.64680718 240.63935745 500.55019832 232.1953125 505.06982422 C229.97450084 506.285886 227.75444942 507.50333717 225.53515625 508.72216797 C224.4663623 509.30595215 223.39756836 509.88973633 222.29638672 510.49121094 C218.40777721 512.63552867 214.57457289 514.86319341 210.7578125 517.13232422 C210.10312988 517.5204126 209.44844727 517.90850098 208.77392578 518.30834961 C207.39254369 519.12727162 206.01136553 519.94653771 204.63037109 520.76611328 C191.62101044 528.46008731 178.53908465 536.03066036 165.40869141 543.51586914 C143.55322815 555.95282619 143.55322815 555.95282619 121.93237305 568.7902832 C116.44013038 572.10468681 110.84999834 575.24035622 105.2578125 578.38232422 C97.62250475 582.67288989 90.03691634 587.03295202 82.5078125 591.50732422 C66.4593774 601.04048698 50.3227305 610.42320272 33.96411133 619.41503906 C26.89497658 623.3229276 19.95301675 627.44219881 13.01660156 631.58007812 C11.27133036 632.6200685 9.51956787 633.64924905 7.76123047 634.66699219 C5.3516213 636.06285676 5.3516213 636.06285676 3.33642578 637.5859375 C-4.37014925 642.85725762 -13.6774343 642.34343402 -22.6796875 642.38232422 C-23.57328979 642.38868896 -24.46689209 642.39505371 -25.38757324 642.40161133 C-42.11484642 642.36718845 -52.16307509 638.44782436 -65.62792969 628.31396484 C-70.59302717 624.76451595 -75.89903799 621.85604303 -81.23016357 618.89767456 C-84.22059658 617.23349404 -87.19112057 615.53451618 -90.1640625 613.83935547 C-91.28103516 613.20465332 -92.39800781 612.56995117 -93.54882812 611.91601562 C-97.81231587 609.48705107 -102.06100233 607.03318198 -106.3046875 604.56982422 C-113.75630158 600.24562253 -121.21614054 595.9359017 -128.6796875 591.63232422 C-149.48360454 579.63283627 -170.25359082 567.57700389 -190.98046875 555.44482422 C-200.13220468 550.09143509 -209.28774347 544.75538634 -218.54736328 539.59057617 C-225.45980471 535.72154129 -232.28847263 531.70999563 -239.1262207 527.7109375 C-246.69338099 523.28676838 -254.2743913 518.88735105 -261.8671875 514.50732422 C-262.94355469 513.88615723 -264.01992188 513.26499023 -265.12890625 512.625 C-270.35997532 509.60969399 -275.5973325 506.60617706 -280.84765625 503.62451172 C-281.81227783 503.07617676 -282.77689941 502.5278418 -283.77075195 501.96289062 C-285.57383945 500.93919612 -287.37828125 499.91788188 -289.18432617 498.89941406 C-290.38472534 498.21806396 -290.38472534 498.21806396 -291.609375 497.52294922 C-292.64940674 496.93562012 -292.64940674 496.93562012 -293.71044922 496.33642578 C-295.82335362 495.04447878 -297.78700453 493.73223693 -299.6796875 492.13232422 C-299.6796875 491.47232422 -299.6796875 490.81232422 -299.6796875 490.13232422 C-300.3396875 490.13232422 -300.9996875 490.13232422 -301.6796875 490.13232422 C-306.66284248 485.06863289 -307.27106975 479.50519006 -307.35306662 472.68305445 C-307.34259513 471.45503784 -307.33212365 470.22702123 -307.32133484 468.96179199 C-307.32781921 467.62826666 -307.33647708 466.29475045 -307.34710914 464.96125174 C-307.36985473 461.31185684 -307.36156396 457.66310196 -307.34796989 454.01368594 C-307.33869883 450.07220624 -307.35821688 446.13085202 -307.37394714 442.18940735 C-307.40001438 434.47407237 -307.39895223 426.75897056 -307.38790896 419.04360831 C-307.37934564 412.7723921 -307.38018518 406.50124328 -307.38770485 400.23002625 C-307.38875974 399.33697827 -307.38981463 398.44393029 -307.39090148 397.52382025 C-307.39307244 395.70952735 -307.39525921 393.89523448 -307.39746163 392.08094162 C-307.41688484 375.0741353 -307.40489966 358.06745974 -307.38267568 341.06066412 C-307.36442361 326.4726413 -307.3753314 311.88487157 -307.40698242 297.296875 C-307.44374872 280.35031531 -307.46076568 263.40391367 -307.44757015 246.45731401 C-307.44622906 244.6497501 -307.44492008 242.84218616 -307.44364357 241.03462219 C-307.4430129 240.14530017 -307.44238224 239.25597816 -307.44173246 238.33970699 C-307.4387061 232.07706504 -307.44996148 225.8145424 -307.46689415 219.55192566 C-307.4872231 211.91828753 -307.48634343 204.28500658 -307.45826175 196.6513871 C-307.44449314 192.75756252 -307.44029552 188.86436137 -307.46221161 184.97056007 C-307.48202243 181.40366142 -307.47397362 177.83793444 -307.44401727 174.27111655 C-307.43519399 172.37459674 -307.45576313 170.47800992 -307.47748584 168.58159399 C-307.37654609 160.95135603 -306.07870554 156.59342098 -300.6796875 151.13232422 C-299.91092285 150.30821045 -299.1421582 149.48409668 -298.35009766 148.63500977 C-292.09194491 142.9395626 -285.5207208 138.88166666 -278.0546875 134.94482422 C-276.25417864 133.97379395 -274.45671309 132.99729182 -272.6594696 132.02023315 C-271.44141703 131.35811164 -270.22259447 130.69740463 -269.00300598 130.03811646 C-263.13498123 126.8598357 -257.36873831 123.5164656 -251.6171875 120.13232422 C-249.64722827 118.97591603 -247.6771756 117.819667 -245.70703125 116.66357422 C-244.72331543 116.08607422 -243.73959961 115.50857422 -242.72607422 114.91357422 C-237.39184108 111.79459963 -232.03494832 108.71500607 -226.6796875 105.63232422 C-214.31923501 98.51185842 -201.99501126 91.3304887 -189.6796875 84.13232422 C-170.68523261 73.03028474 -151.67566729 61.95300325 -132.5546875 51.06982422 C-126.38230789 47.55255969 -120.25028506 43.9675688 -114.1171875 40.38232422 C-105.64785312 35.43145652 -97.15206319 30.53132541 -88.62597656 25.67895508 C-81.84568751 21.81393397 -75.1031844 17.88644192 -68.3671875 13.94482422 C-61.38861395 9.86510289 -54.4042575 5.79801167 -47.3671875 1.81982422 C-46.39881958 1.26935425 -46.39881958 1.26935425 -45.41088867 0.70776367 C-33.82137563 -5.8038945 -12.10451908 -5.91168763 0 0 Z " fill="#8AC300" transform="translate(306.6796875,2.86767578125)"/>
<path d="M0 0 C10.17540281 2.944933 19.16469166 8.26179723 28 14 C29.03003899 14.6420211 29.03003899 14.6420211 30.08088684 15.29701233 C32 17 32 17 32.51898193 19.04452515 C32.52786438 19.83597931 32.53674683 20.62743347 32.54589844 21.44287109 C32.57543106 22.81579063 32.57543106 22.81579063 32.6055603 24.21644592 C32.60681915 25.22525314 32.608078 26.23406036 32.609375 27.2734375 C32.62618317 28.34843002 32.64299133 29.42342255 32.66030884 30.5309906 C32.71075841 34.14573908 32.73136197 37.75995635 32.75 41.375 C32.77457719 43.91626939 32.80015298 46.4575293 32.82666016 48.9987793 C32.8795628 54.57616564 32.91671103 60.15339551 32.94433594 65.73095703 C32.97694614 72.22445318 33.03566645 78.71730439 33.11035156 85.21044922 C33.20137503 93.13714707 33.27300618 101.06373934 33.32181549 108.99081421 C33.34871126 113.33340995 33.38292307 117.67563699 33.4354248 122.01800537 C33.48431278 126.14229161 33.50843231 130.26601634 33.51408005 134.39058113 C33.52025648 135.91956631 33.53505573 137.44854404 33.55900955 138.97735405 C33.59052549 141.08037925 33.59083658 143.18122583 33.58349609 145.28442383 C33.59158295 146.46627762 33.5996698 147.64813141 33.60800171 148.86579895 C32.70581791 153.51648554 29.93056526 155.60695747 26.20507812 158.29516602 C25.65271484 158.61155029 25.10035156 158.92793457 24.53125 159.25390625 C23.88768555 159.62765381 23.24412109 160.00140137 22.58105469 160.38647461 C21.55093262 160.96860718 21.55093262 160.96860718 20.5 161.5625 C19.77458008 161.98088135 19.04916016 162.3992627 18.30175781 162.83032227 C15.87247184 164.22846694 13.43650655 165.61448083 11 167 C9.12993539 168.06983555 7.26015156 169.140162 5.390625 170.2109375 C0.95873583 172.74785138 -3.47329559 175.28447288 -7.92382812 177.78857422 C-10.13330164 179.03704315 -10.13330164 179.03704315 -12.609375 180.84765625 C-16.07255684 182.51700044 -19.27396277 182.61149408 -23 182 C-26.25390625 180.48828125 -26.25390625 180.48828125 -29.5625 178.3125 C-30.85306153 177.48710939 -32.14621859 176.66576849 -33.44140625 175.84765625 C-34.15312988 175.39535645 -34.86485352 174.94305664 -35.59814453 174.47705078 C-41.27001041 170.98906658 -47.14331206 167.83219094 -52.96704102 164.60668945 C-68.01808439 156.1907607 -68.01808439 156.1907607 -70 151 C-70.26742554 148.50257874 -70.26742554 148.50257874 -70.29052734 145.66821289 C-70.30328705 144.60353287 -70.31604675 143.53885284 -70.32919312 142.44190979 C-70.33141876 141.29705612 -70.33364441 140.15220245 -70.3359375 138.97265625 C-70.3425943 137.79158798 -70.3492511 136.61051971 -70.35610962 135.3936615 C-70.3662331 132.89632729 -70.37092673 130.39896604 -70.37060547 127.90161133 C-70.37497947 124.08043914 -70.41130695 120.26042103 -70.44921875 116.43945312 C-70.45508673 114.01302478 -70.45905625 111.58659096 -70.4609375 109.16015625 C-70.47530853 108.01732681 -70.48967957 106.87449738 -70.50448608 105.69703674 C-70.45914191 97.82804211 -70.45914191 97.82804211 -68.30444336 93.94213867 C-65.85190669 91.87518993 -63.4909608 90.29109123 -60.66796875 88.765625 C-59.62850098 88.19553711 -58.5890332 87.62544922 -57.51806641 87.03808594 C-56.41897949 86.44801758 -55.31989258 85.85794922 -54.1875 85.25 C-51.92743441 84.01215144 -49.66831682 82.77257041 -47.41015625 81.53125 C-46.3133252 80.93054688 -45.21649414 80.32984375 -44.08642578 79.7109375 C-40.0484458 77.47251291 -36.07377083 75.14160164 -32.125 72.75 C-31.53227295 72.39196289 -30.9395459 72.03392578 -30.32885742 71.66503906 C-27.84944782 70.15760545 -25.41491177 68.60994118 -23 67 C-16.60479533 66.21462399 -12.79464468 67.72539987 -7.19921875 70.80859375 C-4.93206158 72.11922485 -4.93206158 72.11922485 -2 73 C-2.00523682 71.99138916 -2.01047363 70.98277832 -2.01586914 69.94360352 C-2.10199003 51.66512562 -2.10299063 33.39707858 -1.5625 15.125 C-1.5330278 14.05114548 -1.5330278 14.05114548 -1.50296021 12.95559692 C-1.44658731 10.95199683 -1.38173353 8.94864063 -1.31640625 6.9453125 C-1.27974854 5.81625488 -1.24309082 4.68719727 -1.20532227 3.52392578 C-1 1 -1 1 0 0 Z " fill="#66685F" transform="translate(370,215)"/>
<path d="M0 0 C2.71505526 1.02559407 5.09851679 2.41392564 7.5625 3.9375 C8.24940918 4.34355469 8.93631836 4.74960937 9.64404297 5.16796875 C11.07052326 6.01425781 12.49241192 6.86833293 13.90966797 7.72998047 C15.88948394 8.93285394 17.88094291 10.11273849 19.87890625 11.28515625 C26.26570867 15.04910299 32.56522396 18.9464997 38.8125 22.9375 C39.40562988 23.31519531 39.99875977 23.69289063 40.60986328 24.08203125 C42.95350548 25.59343569 45.02154123 27.02154123 47 29 C47.30107117 31.35734558 47.30107117 31.35734558 47.36987305 34.34838867 C47.39877121 35.46682663 47.42766937 36.58526459 47.45744324 37.7375946 C47.47535416 38.95211807 47.49326508 40.16664154 47.51171875 41.41796875 C47.53023392 42.6637117 47.54874908 43.90945465 47.56782532 45.19294739 C47.59992287 47.83524604 47.62606658 50.47702067 47.64526367 53.11938477 C47.66742845 55.82365062 47.71605294 58.52538952 47.78881836 61.22875977 C47.88630133 65.12593341 47.92430805 69.01973405 47.94921875 72.91796875 C47.98939621 74.12237106 48.02957367 75.32677338 48.07096863 76.56767273 C48.02928892 84.7526296 48.02928892 84.7526296 45.14929199 88.24282837 C42.8527528 90.07821887 40.56346498 91.56580113 38 93 C36.93281738 93.6496875 35.86563477 94.299375 34.76611328 94.96875 C33.79399902 95.4740625 32.82188477 95.979375 31.8203125 96.5 C30.72589844 97.0775 29.63148438 97.655 28.50390625 98.25 C26.83134766 99.11625 26.83134766 99.11625 25.125 100 C22.89620594 101.16239783 20.66961873 102.32903738 18.4453125 103.5 C17.36282227 104.06976563 16.28033203 104.63953125 15.16503906 105.2265625 C12.06557887 106.96325479 9.1750385 108.872775 6.2421875 110.875 C1.57009185 113.88528337 -2.37060764 115.70203071 -8 115 C-10.80864955 114.07685783 -13.14215113 112.7136038 -15.625 111.125 C-16.30667236 110.71515869 -16.98834473 110.30531738 -17.69067383 109.88305664 C-19.1069089 109.02874446 -20.51717811 108.16446628 -21.92138672 107.29052734 C-23.90352651 106.05989651 -25.90121071 104.86203029 -27.91015625 103.67578125 C-31.01467948 101.84031255 -34.10248397 99.9792731 -37.18310547 98.10400391 C-39.02617288 96.98409651 -40.87412934 95.8725866 -42.72265625 94.76171875 C-43.89866773 94.04985937 -45.07445871 93.33763556 -46.25 92.625 C-47.28640625 91.99851562 -48.3228125 91.37203125 -49.390625 90.7265625 C-53.66521784 87.89816425 -53.66521784 87.89816425 -55 86 C-56.77552285 76.75733948 -56.3002863 67.18413661 -56.35009766 57.81152344 C-56.36672591 55.51682441 -56.39410483 53.2221786 -56.43212891 50.92773438 C-56.48680717 47.60519793 -56.50874863 44.28386271 -56.5234375 40.9609375 C-56.54610687 39.93688812 -56.56877625 38.91283875 -56.59213257 37.85775757 C-56.57095516 30.73893149 -56.57095516 30.73893149 -53.625 26.92626953 C-42.36505775 18.66353289 -29.68989203 12.18391443 -17.49316406 5.41992188 C-15.98243868 4.55952442 -14.48830086 3.66766194 -13.03027344 2.72070312 C-8.76492741 -0.02630524 -4.97208229 -0.94838987 0 0 Z " fill="#FCFDF9" transform="translate(220,281)"/>
<path d="M0 0 C2.50355478 1.10683474 4.62746215 2.20784372 6.9375 3.625 C7.60064209 4.01526367 8.26378418 4.40552734 8.94702148 4.80761719 C10.44695323 5.69114094 11.94323915 6.58087287 13.43652344 7.47558594 C16.32017345 9.19039648 19.22457171 10.86630776 22.1328125 12.5390625 C24.27630989 13.77557681 26.41953979 15.01255495 28.5625 16.25 C29.58529053 16.83990723 30.60808105 17.42981445 31.66186523 18.03759766 C33.59381931 19.16278246 35.5180752 20.30132491 37.43310547 21.45507812 C39.01704414 22.40839407 40.61774473 23.33516653 42.24267578 24.21679688 C44.80745804 25.73888424 46.71314633 27.06809655 47.61352539 29.99316406 C47.87266275 32.37197809 47.85861462 34.61047828 47.75 37 C47.76546875 38.19109375 47.76546875 38.19109375 47.78125 39.40625 C47.70250198 43.34365082 47.40819463 45.43965266 45.05078125 48.67578125 C40.99049516 51.769085 36.78130446 54.51108126 32.4375 57.1875 C31.58736328 57.72052734 30.73722656 58.25355469 29.86132812 58.80273438 C19.75680639 65.10320087 19.75680639 65.10320087 16.25 64.625 C15.5075 64.41875 14.765 64.2125 14 64 C13.93941406 63.03578125 13.87882812 62.0715625 13.81640625 61.078125 C13.73261719 59.81484375 13.64882813 58.5515625 13.5625 57.25 C13.48128906 55.99703125 13.40007812 54.7440625 13.31640625 53.453125 C12.99875752 49.64464741 12.99875752 49.64464741 12 46 C9.75256244 44.84979475 9.75256244 44.84979475 7 44 C6.05125 43.46375 5.1025 42.9275 4.125 42.375 C-0.49175502 40.34362779 -3.7917154 40.18199214 -8.5625 41.94921875 C-13.52697242 44.23662828 -16.71221505 45.82507429 -19 51 C-19.43571578 54.44399375 -19.43571578 54.44399375 -19.3125 58.0625 C-19.30669922 59.87427734 -19.30669922 59.87427734 -19.30078125 61.72265625 C-19.00405789 64.9557848 -18.75531529 66.34730079 -17 69 C-14.51951201 70.76788938 -14.51951201 70.76788938 -11.49609375 72.3203125 C-9.80685791 73.23997803 -9.80685791 73.23997803 -8.08349609 74.17822266 C-7.48752625 74.4962384 -6.8915564 74.81425415 -6.27752686 75.14190674 C-4.42942297 76.12931541 -2.5899704 77.13124761 -0.75244141 78.13818359 C1.69014794 79.47617868 4.13457254 80.81065814 6.58154297 82.140625 C11.11358929 84.60570605 15.63665946 87.08115864 20.125 89.625 C20.82181885 90.00156738 21.5186377 90.37813477 22.23657227 90.76611328 C24.1328125 91.8515625 24.1328125 91.8515625 27 94 C27.67919922 96.63427734 27.67919922 96.63427734 28 99 C27.36497559 99.34256836 26.72995117 99.68513672 26.07568359 100.03808594 C23.17381972 101.60571694 20.27439954 103.17781614 17.375 104.75 C16.37597656 105.28882813 15.37695312 105.82765625 14.34765625 106.3828125 C13.37441406 106.91132813 12.40117187 107.43984375 11.3984375 107.984375 C10.44936523 108.49806641 9.50029297 109.01175781 8.52246094 109.54101562 C5.80727367 111.03456013 5.80727367 111.03456013 2.8515625 113.453125 C-1.37502402 115.74590344 -4.458284 115.33869586 -9 114 C-12.83867282 112.29464366 -16.4003889 110.22086887 -20 108.0625 C-20.99950684 107.47927979 -21.99901367 106.89605957 -23.02880859 106.29516602 C-25.0579969 105.10879901 -27.08328235 103.91572975 -29.10449219 102.71582031 C-31.75945418 101.14254267 -34.42636188 99.59321945 -37.1015625 98.0546875 C-38.60976033 97.182958 -40.11759766 96.31060436 -41.625 95.4375 C-42.64400391 94.84884155 -42.64400391 94.84884155 -43.68359375 94.24829102 C-44.31652344 93.87631592 -44.94945312 93.50434082 -45.6015625 93.12109375 C-46.14119629 92.8058374 -46.68083008 92.49058105 -47.23681641 92.16577148 C-53.79517861 87.82955167 -53.79517861 87.82955167 -54.66183472 84.31948853 C-54.6778775 83.29833954 -54.69392029 82.27719055 -54.71044922 81.22509766 C-54.75345657 79.48276352 -54.75345657 79.48276352 -54.79733276 77.70523071 C-54.79975983 76.4541452 -54.80218689 75.20305969 -54.8046875 73.9140625 C-54.81895782 72.62438568 -54.83322815 71.33470886 -54.84793091 70.00595093 C-54.87332878 67.27717197 -54.87863231 64.54919156 -54.87158203 61.8203125 C-54.86548719 58.33294401 -54.92332588 54.8499191 -54.99824333 51.36347389 C-55.05808123 48.02606641 -55.05242318 44.68950285 -55.0546875 41.3515625 C-55.0854538 40.10452545 -55.11622009 38.8574884 -55.1479187 37.57266235 C-55.03628089 29.13873471 -55.03628089 29.13873471 -52.15922546 25.97723389 C-49.84102081 24.40171187 -47.538845 23.18162805 -45 22 C-43.84883204 21.32645702 -42.70349665 20.64275668 -41.56665039 19.9453125 C-40.50438232 19.34460938 -39.44211426 18.74390625 -38.34765625 18.125 C-37.76261826 17.79258301 -37.17758026 17.46016602 -36.57481384 17.11767578 C-34.73914618 16.0752889 -32.90100733 15.0373687 -31.0625 14 C-29.23389671 12.96520711 -27.40586953 11.92942089 -25.57870483 10.89208984 C-24.39066203 10.21837167 -23.20140389 9.54679179 -22.01089478 8.87744141 C-18.44601911 6.8636498 -14.99892705 4.71763872 -11.55859375 2.5 C-7.51113738 0.0750011 -4.79063433 -0.87102442 0 0 Z " fill="#66685F" transform="translate(490,281)"/>
<path d="M0 0 C0.92047119 0.52924072 1.84094238 1.05848145 2.78930664 1.60375977 C3.82192627 2.18963867 4.8545459 2.77551758 5.91845703 3.37915039 C7.54255493 4.32757813 7.54255493 4.32757813 9.19946289 5.29516602 C10.31377686 5.93389648 11.42809082 6.57262695 12.57617188 7.23071289 C15.81314389 9.09235338 19.03888973 10.97209037 22.26196289 12.85766602 C23.08728516 13.33606934 23.91260742 13.81447266 24.76293945 14.30737305 C28.97658052 16.75173492 33.17284948 19.20852261 37.26196289 21.85766602 C37.93299545 22.16012238 38.60402802 22.46257874 39.2953949 22.77420044 C41.9413149 24.21216519 43.45080288 25.42823762 45.26196289 27.85766602 C46.41813015 33.51735945 46.19373964 39.09796613 46.04321289 44.84985352 C46.02828056 46.52276906 46.01689822 48.19571974 46.00891113 49.86868286 C45.97845363 54.25904977 45.89995053 58.64727862 45.8112793 63.0368042 C45.72924698 67.52106808 45.69286286 72.0056796 45.65258789 76.49047852 C45.56694578 85.28051915 45.43052148 94.06882619 45.26196289 102.85766602 C39.5555779 101.89714848 34.56606091 100.94430057 29.54321289 97.92407227 C28.59188477 97.3575293 27.64055664 96.79098633 26.66040039 96.20727539 C25.70391602 95.6175293 24.74743164 95.0277832 23.76196289 94.42016602 C22.77454102 93.83428711 21.78711914 93.2484082 20.76977539 92.64477539 C13.54828594 88.28715059 13.54828594 88.28715059 11.26196289 84.85766602 C11.04501427 82.15115823 10.93703337 79.53876539 10.91821289 76.83032227 C10.90359009 76.04499619 10.88896729 75.2596701 10.87390137 74.45054626 C10.82740666 71.94047107 10.79320656 69.43047462 10.76196289 66.92016602 C10.72079053 63.61909309 10.66709824 60.31857428 10.60571289 57.01782227 C10.59779724 55.88172264 10.59779724 55.88172264 10.58972168 54.72267151 C10.51908028 50.97971132 10.44704461 47.98430267 8.26196289 44.85766602 C3.97942126 41.70850024 -0.84512199 39.38656611 -6.23803711 39.60766602 C-12.08815364 40.96414446 -16.91541341 43.10545173 -20.73803711 47.85766602 C-22.07289746 53.90923669 -21.87196785 59.816554 -21.67553711 65.98266602 C-21.63432162 68.45222088 -21.60738312 70.92097106 -21.59535217 73.39083862 C-21.58397067 74.92148656 -21.55384661 76.45214601 -21.50218201 77.98196411 C-21.42137063 82.49925159 -21.87613445 85.31307446 -24.73803711 88.85766602 C-26.60400391 90.27978516 -26.60400391 90.27978516 -28.68725586 91.39282227 C-29.45360352 91.80983398 -30.21995117 92.2268457 -31.00952148 92.65649414 C-31.80680664 93.07350586 -32.6040918 93.49051758 -33.42553711 93.92016602 C-34.20348633 94.34104492 -34.98143555 94.76192383 -35.78295898 95.19555664 C-38.09091439 96.43711731 -40.41356539 97.64738742 -42.73803711 98.85766602 C-43.82205811 99.4510376 -43.82205811 99.4510376 -44.92797852 100.05639648 C-45.61424316 100.42265137 -46.30050781 100.78890625 -47.00756836 101.16625977 C-47.60802979 101.49295654 -48.20849121 101.81965332 -48.82714844 102.15625 C-51.20130639 103.0277149 -53.22619606 102.9039219 -55.73803711 102.85766602 C-55.87711783 93.16537945 -55.98369815 83.47343683 -56.04891014 73.78036976 C-56.08021056 69.27932783 -56.12265858 64.77896905 -56.19067383 60.27832031 C-56.25591429 55.93404629 -56.29175286 51.59042887 -56.30730057 47.24570274 C-56.3183787 45.58903351 -56.3400127 43.93239984 -56.37241745 42.27601051 C-56.41604759 39.95323978 -56.42196914 37.63317382 -56.41918945 35.31005859 C-56.44076111 34.62672958 -56.46233276 33.94340057 -56.48455811 33.23936462 C-56.44934058 30.51548924 -56.24386438 28.44895521 -54.43928719 26.33948612 C-51.56732747 23.90542893 -48.40911495 21.9146781 -45.12084961 20.09594727 C-43.85035767 19.38414307 -43.85035767 19.38414307 -42.55419922 18.65795898 C-41.66611572 18.1669873 -40.77803223 17.67601562 -39.86303711 17.17016602 C-32.3542591 12.95694739 -24.97070179 8.61279664 -17.71313477 3.97998047 C-6.92932646 -2.89097802 -6.92932646 -2.89097802 0 0 Z " fill="#66685F" transform="translate(85.738037109375,281.142333984375)"/>
<path d="M0 0 C4.85304969 2.12177173 10.15317391 4.43950366 13.32421875 8.8359375 C14.23236122 11.74409317 14.26419061 14.33111446 14.25 17.375 C14.25773437 19.02628906 14.25773437 19.02628906 14.265625 20.7109375 C13.91795651 25.01589144 13.30034236 28.54062296 10.37109375 31.828125 C5.6312152 35.31361145 1.07633746 38.4853879 -5 38 C-10.81373564 35.93091941 -17.08837005 33.57707075 -20.8515625 28.50390625 C-23.73693148 22.21301673 -23.97713762 15.38741043 -22.0625 8.75 C-16.49023964 1.32031952 -9.20050214 -2.07872308 0 0 Z " fill="#8EC609" transform="translate(220,321)"/>
<path d="M0 0 C11.9077223 5.66082995 11.9077223 5.66082995 13.85546875 9.83203125 C14.05830441 12.87456609 14.2109312 15.88687808 14.25 18.9375 C14.27578125 20.14277344 14.3015625 21.34804688 14.328125 22.58984375 C13.96867314 26.32557558 13.32490611 28.08237057 11 31 C6.54163375 34.13590237 0.72483262 36.96968516 -4.78125 37.3984375 C-10.05572854 36.45126002 -14.88698282 33.32838006 -19 30 C-22.07030367 23.98732198 -22.85433152 16.67369119 -22 10 C-17.67716341 2.07479958 -8.74924637 -2.15684764 0 0 Z " fill="#89C102" transform="translate(355,321)"/>
<path d="M0 0 C3.52920287 0.75245269 6.0822948 2.44939445 9.0703125 4.44140625 C9.0703125 8.73140625 9.0703125 13.02140625 9.0703125 17.44140625 C5.24907675 20.06850583 2.60398944 21.85772016 -2.1171875 21.44140625 C-6.07470441 20.40336903 -7.5410524 19.68994999 -9.9296875 16.44140625 C-11.1732725 12.71065124 -11.57711407 9.31090927 -10.9296875 5.44140625 C-7.98011637 1.01704956 -5.37730926 -0.31691366 0 0 Z " fill="#676B5B" transform="translate(486.9296875,327.55859375)"/>
</svg>
