<?xml version="1.0" encoding="UTF-8"?>
<svg version="1.1" xmlns="http://www.w3.org/2000/svg" width="600" height="600">
<path d="M0 0 C198 0 396 0 600 0 C600 198 600 396 600 600 C402 600 204 600 0 600 C0 402 0 204 0 0 Z " fill="#FEFEFE" transform="translate(0,0)"/>
<path d="M0 0 C5.4072838 0.36825197 10.32507794 1.50878976 15.5378418 3.01855469 C16.24782538 3.22238612 16.95780897 3.42621756 17.68930721 3.6362257 C20.02763044 4.30908116 22.36338599 4.99042903 24.69921875 5.671875 C26.36031168 6.1516946 28.02155987 6.63097696 29.68295288 7.10975647 C34.10794816 8.38652156 38.53079927 9.67056718 42.95326614 10.9560585 C47.51047349 12.27933815 52.06965096 13.59579293 56.62866211 14.9128418 C63.81238614 16.98898446 70.99505217 19.06874188 78.17675781 21.15185547 C86.46761928 23.55665464 94.76035269 25.95486361 103.0546875 28.34765625 C105.15665838 28.95409643 107.25862786 29.56054147 109.3605957 30.16699219 C110.32051422 30.44393921 111.28043274 30.72088623 112.2694397 31.00622559 C117.30992112 32.46126442 122.34949447 33.91944526 127.38876343 35.37867737 C131.59000893 36.59464447 135.79451644 37.79878531 140 39 C143.90407479 40.12090474 147.80750506 41.24404818 151.7109375 42.3671875 C152.9027916 42.71011337 154.09464569 43.05303925 155.32261658 43.40635681 C159.34012093 44.56242113 163.3575688 45.71868151 167.375 46.875 C168.06922939 47.07480343 168.76345879 47.27460686 169.47872543 47.48046494 C190.05997829 53.40393817 210.63845889 59.33698251 231.21484375 65.27734375 C232.29247231 65.58844841 233.37010086 65.89955307 234.48038483 66.22008514 C245.27951099 69.33778822 256.0784951 72.45598274 266.87721539 75.57509136 C270.96590887 76.75602202 275.05466695 77.93672891 279.14343452 79.11740303 C281.03747326 79.66439261 282.93148092 80.21148983 284.8254528 80.75871086 C295.37381059 83.80642074 305.92602521 86.84005465 316.48423481 89.85346699 C323.59277139 91.88249091 330.69802036 93.92267814 337.8013916 95.9697113 C339.85027813 96.56014757 341.8992518 97.15028069 343.94824219 97.74035645 C349.02792181 99.20328132 354.10746578 100.66667697 359.18701172 102.13006592 C364.2079363 103.57654232 369.22892848 105.02278375 374.25 106.46875 C375.30211103 106.77176151 375.30211103 106.77176151 376.37547684 107.08089447 C384.25537651 109.3500981 392.13699337 111.61300274 400.0234375 113.859375 C410.01558189 116.70746722 419.99587597 119.59645208 429.9765625 122.484375 C430.84385735 122.73531921 431.71115219 122.98626343 432.6047287 123.24481201 C440.75396052 125.60287044 448.90293575 127.96181504 457.05175781 130.32128906 C460.64227021 131.36090545 464.23292086 132.40004244 467.82366943 133.43884277 C471.36532814 134.46345581 474.90648543 135.48977773 478.44732666 136.51721191 C487.06794459 139.01582004 495.6958113 141.48270863 504.34277344 143.88867188 C506.77480674 144.5691189 509.20666952 145.25017238 511.63850021 145.93134308 C513.90643047 146.56294519 516.17714854 147.18368959 518.44815063 147.80413818 C519.81242495 148.18562569 521.1765592 148.56761458 522.54052734 148.95019531 C523.72141937 149.27546204 524.9023114 149.60072876 526.11898804 149.93585205 C528.90252849 150.96399733 530.25231639 151.64310082 532 154 C532.484375 156.35791016 532.484375 156.35791016 532 159 C530.015625 161.56787109 530.015625 161.56787109 527.25 164.2734375 C526.51269653 165.00368637 526.51269653 165.00368637 525.76049805 165.74868774 C524.18501566 167.30286217 522.59281034 168.83861074 521 170.375 C519.9585447 171.39993455 518.9181682 172.42596651 517.87890625 173.453125 C513.03750563 178.215596 508.10651245 182.83098266 502.953125 187.25634766 C498.96004859 190.82116662 495.25332434 194.68642968 491.5 198.5 C486.49079531 203.58960926 481.45977219 208.53004601 476.04101562 213.18164062 C472.01503106 216.76842688 468.28078502 220.65852822 464.5 224.5 C459.48072491 229.59984131 454.43954375 234.55183483 449.00976562 239.21289062 C445.1669081 242.63000884 441.60391313 246.33458665 438 250 C433.15359596 254.92910718 428.27002381 259.68972211 423.02734375 264.1953125 C419.18001943 267.62009831 415.60985315 271.32854526 412 275 C403.57808043 283.56563834 403.57808043 283.56563834 399.03125 287.46875 C394.26833486 291.56202757 389.90285874 296.02646937 385.5 300.5 C380.49079531 305.58960926 375.45977219 310.53004601 370.04101562 315.18164062 C366.01503106 318.76842688 362.28078502 322.65852822 358.5 326.5 C353.48072491 331.59984131 348.43954375 336.55183483 343.00976562 341.21289062 C339.1669081 344.63000884 335.60391313 348.33458665 332 352 C323.57808043 360.56563834 323.57808043 360.56563834 319.03125 364.46875 C314.26833486 368.56202757 309.90285874 373.02646937 305.5 377.5 C300.48072491 382.59984131 295.43954375 387.55183483 290.00976562 392.21289062 C286.1669081 395.63000884 282.60391313 399.33458665 279 403 C270.57808043 411.56563834 270.57808043 411.56563834 266.03125 415.46875 C261.26833486 419.56202757 256.90285874 424.02646937 252.5 428.5 C247.48072491 433.59984131 242.43954375 438.55183483 237.00976562 443.21289062 C233.1669081 446.63000884 229.60391313 450.33458665 226 454 C217.57808043 462.56563834 217.57808043 462.56563834 213.03125 466.46875 C208.26833486 470.56202757 203.90285874 475.02646937 199.5 479.5 C194.48072491 484.59984131 189.43954375 489.55183483 184.00976562 494.21289062 C180.1669081 497.63000884 176.60391313 501.33458665 173 505 C168.15064968 509.93210374 163.26445373 514.69672743 158.01806641 519.20458984 C154.23886934 522.56682251 150.73148851 526.20595212 147.1875 529.8125 C145.70417862 531.32132992 144.21859824 532.82794327 142.73046875 534.33203125 C141.76210083 535.31780151 141.76210083 535.31780151 140.77416992 536.32348633 C138.49098742 538.48099482 136.68949 539.87624538 133.5625 540.4375 C131 540 131 540 129.015625 538.19726562 C126.08372342 533.54656516 125.29150926 528.74833837 124.1875 523.40625 C123.67206782 521.04756413 123.15374449 518.68950855 122.6328125 516.33203125 C122.23304199 514.51082764 122.23304199 514.51082764 121.82519531 512.65283203 C120.51531591 506.8544842 119.04574231 501.09978843 117.5625 495.34375 C117.27084961 494.20647461 116.97919922 493.06919922 116.67871094 491.89746094 C115.78838859 488.43096986 114.8947558 484.9653492 114 481.5 C110.24613291 466.96144062 106.59534635 452.41796778 103.26708984 437.77563477 C100.41191114 425.29105965 97.20152811 412.89937523 94 400.5 C90.24613291 385.96144062 86.59534635 371.41796778 83.26708984 356.77563477 C80.41191114 344.29105965 77.20152811 331.89937523 74 319.5 C70.24613291 304.96144062 66.59534635 290.41796778 63.26708984 275.77563477 C60.41191114 263.29105965 57.20152811 250.89937523 54 238.5 C50.23444667 223.91618032 46.57275567 209.32709464 43.23303223 194.6394043 C40.54219659 182.86961703 37.52640937 171.18714884 34.5 159.5 C31.19571624 146.7397778 27.95396869 133.97875503 25.03125 121.125 C21.9361914 107.51819964 18.48841062 94.01045836 15 80.5 C11.16203891 65.6357483 7.40160673 50.76954212 4.03527832 35.79016113 C2.37773011 28.45120103 0.5263805 21.18593527 -1.61315918 13.97180176 C-2.83171158 9.63035344 -3.2612449 6.36534504 -2 2 C-1.34 1.34 -0.68 0.68 0 0 Z " fill="#070707" transform="translate(35,30)"/>
<path d="M0 0 C0.93981216 0.26851776 1.87962433 0.53703552 2.84791565 0.81369019 C3.81429805 1.08979944 3.81429805 1.08979944 4.80020332 1.37148666 C12.26202965 3.50343704 19.72385597 5.63538742 27.1856823 7.7673378 C28.32968058 8.09419445 29.47367886 8.4210511 30.65234375 8.7578125 C55.57300313 15.8780009 80.49366252 22.99818929 105.4143219 30.11837769 C106.28769196 30.36791199 107.16106201 30.61744629 108.06089783 30.87454224 C109.37393188 31.24969482 110.68696594 31.62484741 112 32 C110.38468385 35.4196967 108.58748974 37.65199177 105.875 40.3125 C104.78832031 41.38951172 104.78832031 41.38951172 103.6796875 42.48828125 C101.5749843 44.46105699 99.4435518 46.35086299 97.2578125 48.23046875 C92.61348323 52.26856679 88.31286333 56.61353832 84 61 C75.57808043 69.56563834 75.57808043 69.56563834 71.03125 73.46875 C66.26833486 77.56202757 61.90285874 82.02646937 57.5 86.5 C52.42127773 91.66024269 47.32115881 96.68402824 41.82617188 101.40087891 C39.09417929 103.79319861 36.54328287 106.34764998 34 108.9375 C33.51144531 109.43056641 33.02289063 109.92363281 32.51953125 110.43164062 C31.34396475 111.61873229 30.17161174 112.80900498 29 114 C28.34 113.67 27.68 113.34 27 113 C26.35253906 111.00537109 26.35253906 111.00537109 25.765625 108.2734375 C25.52827637 107.20609375 25.29092773 106.13875 25.04638672 105.0390625 C24.7835791 103.82992187 24.52077148 102.62078125 24.25 101.375 C20.4923335 84.64990668 16.24169528 68.05736685 11.96203613 51.45916748 C1.91011721 12.47298906 1.91011721 12.47298906 0 0 Z " fill="#FDFDFD" transform="translate(144,438)"/>
<path d="M0 0 C2 1 2 1 2.76959229 3.22312927 C3.01352722 4.20838089 3.25746216 5.19363251 3.50878906 6.20874023 C3.78958313 7.32598984 4.0703772 8.44323944 4.35968018 9.59434509 C4.80812286 11.43289818 4.80812286 11.43289818 5.265625 13.30859375 C5.58150574 14.57727798 5.89738647 15.84596222 6.22283936 17.15309143 C6.89687211 19.8615164 7.56552597 22.57119194 8.22998047 25.28198242 C9.06120636 28.6731021 9.9008819 32.06204188 10.74422264 35.4501667 C14.30056757 49.7413795 17.76374241 64.05050388 21.00836182 78.41636658 C22.65574435 85.67531919 24.4833174 92.87078119 26.52508545 100.02919006 C27.65755292 104.12733664 28.22732659 107.74765564 28 112 C17.94186119 110.25680593 8.24120093 107.31092713 -1.55078125 104.4765625 C-3.4558154 103.92817836 -5.36094304 103.3801189 -7.26615906 102.83236694 C-11.24838175 101.6865941 -15.22983812 100.53821006 -19.21069336 99.38769531 C-24.27951322 97.92277186 -29.34961937 96.46236556 -34.42023945 95.0036869 C-39.29754441 93.60039965 -44.17418321 92.19480403 -49.05078125 90.7890625 C-49.96433191 90.52592884 -50.87788258 90.26279518 -51.81911659 89.99168777 C-61.90832803 87.08391908 -71.98022326 84.14041733 -82 81 C-80.52199351 77.90818844 -79.02556628 75.77863536 -76.5859375 73.35546875 C-75.56693359 72.33936523 -75.56693359 72.33936523 -74.52734375 71.30273438 C-73.46193359 70.25569336 -73.46193359 70.25569336 -72.375 69.1875 C-71.68792969 68.50107422 -71.00085938 67.81464844 -70.29296875 67.10742188 C-66.97509057 63.8175558 -63.61499545 60.62677764 -60.0703125 57.58203125 C-55.30097741 53.46518801 -50.91715477 48.98805613 -46.5 44.5 C-41.49079531 39.41039074 -36.45977219 34.46995399 -31.04101562 29.81835938 C-27.01503106 26.23157312 -23.28078502 22.34147178 -19.5 18.5 C-14.35384919 13.27124644 -9.19401726 8.15745726 -3.61132812 3.39257812 C-2.36170254 2.31259868 -1.16788691 1.16788691 0 0 Z " fill="#FBFBFB" transform="translate(198,217)"/>
<path d="M0 0 C15.92236291 63.29760132 15.92236291 63.29760132 21.375 86.375 C21.55336395 87.12775208 21.73172791 87.88050415 21.91549683 88.65606689 C23.74940677 96.41053542 25.51789876 104.16937061 27 112 C20.25174477 111.37598829 14.04657218 109.75387987 7.55078125 107.859375 C6.43971512 107.54051834 5.32864899 107.22166168 4.18391418 106.8931427 C0.5584293 105.85116515 -3.06454163 104.8007252 -6.6875 103.75 C-9.19207687 103.02806754 -11.69679833 102.30663652 -14.20166016 101.58569336 C-19.30549664 100.11563863 -24.40828624 98.64205009 -29.51025391 97.16552734 C-36.54984281 95.12872192 -43.59286757 93.10403768 -50.63671875 91.08203125 C-53.73356109 90.19191643 -56.83028242 89.30138271 -59.9269104 88.41052246 C-61.88853209 87.846259 -63.8502627 87.28237405 -65.81210327 86.71887207 C-68.51854859 85.94089181 -71.22423077 85.16031632 -73.9296875 84.37890625 C-75.12406685 84.03627495 -75.12406685 84.03627495 -76.34257507 83.6867218 C-81.77081123 82.11459438 -81.77081123 82.11459438 -84 81 C-84 80.34 -84 79.68 -84 79 C-82.70703125 77.73046875 -82.70703125 77.73046875 -80.8125 76.1875 C-76.25689512 72.32777792 -72.08945803 68.15112133 -67.92114258 63.88354492 C-65.11536469 61.03347213 -62.25554342 58.32258693 -59.21875 55.71875 C-54.22262773 51.40152664 -49.63136002 46.70153214 -45 42 C-39.832238 36.75393857 -34.65815479 31.63489932 -29.06787109 26.84082031 C-24.80121173 23.04263713 -20.83071914 18.93217279 -16.8125 14.875 C-15.93658203 13.99457031 -15.06066406 13.11414063 -14.15820312 12.20703125 C-13.30806641 11.35238281 -12.45792969 10.49773437 -11.58203125 9.6171875 C-10.37861084 8.40820801 -10.37861084 8.40820801 -9.15087891 7.17480469 C-7.87290783 5.88261781 -6.60163918 4.58365476 -5.34521484 3.27050781 C-2.20244326 0 -2.20244326 0 0 0 Z " fill="#FBFBFB" transform="translate(329,254)"/>
<path d="M0 0 C7.0825168 1.92019293 14.15361472 3.87612937 21.21313477 5.87915039 C22.16737839 6.14947586 23.12162201 6.41980133 24.1047821 6.69831848 C32.78245735 9.15783895 41.45790492 11.62521473 50.13266087 14.0950098 C55.94846433 15.75077986 61.76498825 17.4039192 67.58325195 19.05102539 C73.23206903 20.65021925 78.87903722 22.25578632 84.52473259 23.86596489 C86.67435426 24.47785941 88.82462972 25.08746186 90.97555733 25.69474983 C93.96929288 26.54046154 96.96058551 27.39432502 99.95141602 28.25024414 C101.28926651 28.62511963 101.28926651 28.62511963 102.65414429 29.00756836 C103.46558395 29.24157852 104.27702362 29.47558868 105.11305237 29.71669006 C105.81960748 29.91743165 106.52616259 30.11817324 107.25412846 30.3249979 C109 31 109 31 111 33 C108.00428676 36.02510958 105.00265195 39.04427875 102 42.0625 C101.16082031 42.91005859 100.32164062 43.75761719 99.45703125 44.63085938 C95.1083092 48.99643694 90.69807244 53.18474383 86.0234375 57.19702148 C82.00365906 60.7788342 78.27521293 64.66418975 74.5 68.5 C69.49079531 73.58960926 64.45977219 78.53004601 59.04101562 83.18164062 C55.01503106 86.76842688 51.28078502 90.65852822 47.5 94.5 C32.48211509 109.75894246 32.48211509 109.75894246 28 112 C21.68788155 90.63590677 16.3370608 69.06055379 11.42333984 47.33520508 C8.81242514 35.93086131 5.85756652 24.61565622 2.89501953 13.29858398 C2.70319092 12.56268539 2.5113623 11.8267868 2.3137207 11.06858826 C1.95102068 9.67816848 1.58620927 8.28829726 1.21899414 6.89906311 C0 2.22397818 0 2.22397818 0 0 Z " fill="#FDFDFD" transform="translate(340,251)"/>
<path d="M0 0 C3.74510945 0.69628266 7.36391515 1.62690499 11.02319336 2.68310547 C12.22273148 3.02826706 13.42226959 3.37342865 14.65815735 3.72904968 C15.96873195 4.10838587 17.27929372 4.48776643 18.58984375 4.8671875 C19.96045533 5.26240532 21.33111783 5.65744663 22.701828 6.05232239 C26.36019533 7.10678082 30.01783495 8.16374251 33.67533112 9.22121811 C37.43857756 10.30882142 41.20248281 11.39413999 44.96630859 12.47973633 C52.99681887 14.79647128 61.02636328 17.11653987 69.05554962 19.43785858 C71.98149008 20.28374919 74.90750095 21.12939622 77.83349609 21.97509766 C88.22370597 24.97865862 98.61279335 27.98606856 109 31 C109 35 109 35 106.31640625 37.85546875 C105.07378441 38.97584879 103.82172563 40.08581433 102.5625 41.1875 C101.18480451 42.42930772 99.80991778 43.67423694 98.4375 44.921875 C97.71304688 45.57994141 96.98859375 46.23800781 96.2421875 46.91601562 C91.68502021 51.15164062 87.34689645 55.61115348 82.98852539 60.04956055 C79.78206572 63.29485344 76.55191752 66.43737282 73.08984375 69.41015625 C68.3102092 73.52642307 63.92232201 78.00669369 59.5 82.5 C54.43924891 87.64198305 49.35625788 92.63985142 43.87988281 97.33837891 C40.19244856 100.59768767 36.81966282 104.17928733 33.40625 107.72070312 C31.97301047 109.18281122 30.49037458 110.59617692 29 112 C28.34 112 27.68 112 27 112 C26.702146 110.73567139 26.40429199 109.47134277 26.09741211 108.16870117 C23.24914153 96.11923056 20.29311137 84.10064051 17.26422119 72.09542847 C13.68293634 57.89255177 10.16285442 43.68663686 6.93920898 29.39770508 C5.28138584 22.08667425 3.4441102 14.83558805 1.47119141 7.60327148 C0 2.18794411 0 2.18794411 0 0 Z " fill="#FDFDFD" transform="translate(79,176)"/>
<path d="M0 0 C8.01558838 1.94780626 15.95280586 4.08287537 23.8671875 6.40625 C25.52044037 6.88849281 25.52044037 6.88849281 27.20709229 7.38047791 C29.55390203 8.06530185 31.90041291 8.75115074 34.24664307 9.43795776 C37.91493293 10.51168861 41.58405082 11.58254477 45.25341797 12.65258789 C50.17506637 14.08797256 55.09645738 15.52423311 60.01757812 16.96142578 C68.90759256 19.55736726 77.7987165 22.14944351 86.69293213 24.73095703 C89.07556197 25.4231377 91.45746521 26.11777939 93.83935547 26.8125 C95.27046491 27.22801238 96.70161461 27.64338612 98.1328125 28.05859375 C99.34855957 28.41236084 100.56430664 28.76612793 101.81689453 29.13061523 C104.53706908 29.87356213 107.22766633 30.49305712 110 31 C108.54844106 34.33578513 106.72074062 36.52498603 104.1484375 39.08203125 C103.37886719 39.84966797 102.60929687 40.61730469 101.81640625 41.40820312 C100.60791016 42.59833008 100.60791016 42.59833008 99.375 43.8125 C98.59253906 44.59431641 97.81007813 45.37613281 97.00390625 46.18164062 C93.43966634 49.71928173 89.85090978 53.1787726 86.0390625 56.44921875 C81.09891062 60.70409203 76.57290923 65.35780427 72 70 C66.832238 75.24606143 61.65815479 80.36510068 56.06787109 85.15917969 C51.80121173 88.95736287 47.83071914 93.06782721 43.8125 97.125 C42.93658203 98.00542969 42.06066406 98.88585937 41.15820312 99.79296875 C40.30806641 100.64761719 39.45792969 101.50226563 38.58203125 102.3828125 C37.77975098 103.18879883 36.9774707 103.99478516 36.15087891 104.82519531 C34.87290783 106.11738219 33.60163918 107.41634524 32.34521484 108.72949219 C31.2647012 109.85392272 30.13856552 110.93439111 29 112 C28.34 112 27.68 112 27 112 C26.80067871 111.16718506 26.60135742 110.33437012 26.39599609 109.47631836 C20.76078668 85.99102339 14.87447825 62.57417663 8.87451172 39.17944336 C3.87139075 19.6514264 3.87139075 19.6514264 1.58203125 10.046875 C1.41684494 9.36175842 1.25165863 8.67664185 1.08146667 7.97076416 C0.4382361 5.22944922 0 2.82907313 0 0 Z " fill="#FDFDFD" transform="translate(47,45)"/>
<path d="M0 0 C4.0778267 -0.38229625 6.99806601 0.71592439 10.76626396 2.17217827 C14.47208896 3.54555561 18.26066073 4.60987248 22.05883789 5.69555664 C22.9265834 5.94637497 23.79432892 6.1971933 24.68836975 6.45561218 C27.53226927 7.27681914 30.37744131 8.09351965 33.22265625 8.91015625 C35.21235476 9.48372774 37.20197244 10.05757968 39.19151306 10.63169861 C44.41415743 12.13796698 49.637898 13.64039828 54.86187744 15.14202881 C60.16966485 16.66850227 65.47638268 18.19868459 70.78320312 19.72851562 C78.54510008 21.96555103 86.30742143 24.20110313 94.07055664 26.43383789 C94.87438782 26.66505341 95.67821899 26.89626892 96.50640869 27.13449097 C101.00302065 28.42740367 105.50084856 29.71595164 110 31 C108.58460657 34.2239517 106.88585072 36.35666792 104.375 38.8125 C103.74335937 39.43769531 103.11171875 40.06289062 102.4609375 40.70703125 C100.43876481 42.59118263 98.38379675 44.39787192 96.2890625 46.19921875 C91.63558845 50.24922414 87.32319752 54.60302778 83 59 C74.57808043 67.56563834 74.57808043 67.56563834 70.03125 71.46875 C65.26833486 75.56202757 60.90285874 80.02646937 56.5 84.5 C51.4090291 89.67268793 46.29555218 94.70525064 40.78613281 99.43212891 C37.35738173 102.44189373 34.26425599 105.77350501 31.1015625 109.05859375 C29 111 29 111 27 111 C24.28896352 101.0435386 21.75778581 91.06922484 19.5 81 C15.85559509 64.81087403 11.64093293 48.76137008 7.49414062 32.6953125 C7.21403137 31.6062561 6.93392212 30.51719971 6.64532471 29.3951416 C6.1177036 27.34431946 5.58787356 25.29406376 5.05535889 23.24450684 C3.50015012 17.19501384 2.17167338 11.13458574 1 5 C0.667979 3.3330714 0.33498679 1.66633512 0 0 Z " fill="#FDFDFD" transform="translate(438,158)"/>
<path d="M0 0 C2 1 2 1 2.68261719 2.81225586 C2.88532227 3.60510986 3.08802734 4.39796387 3.296875 5.21484375 C3.5340625 6.13201172 3.77125 7.04917969 4.015625 7.99414062 C4.25796875 8.96544922 4.5003125 9.93675781 4.75 10.9375 C4.976875 11.81212891 5.20375 12.68675781 5.4375 13.58789062 C7.06066816 19.94673823 8.53720803 26.33410648 9.99380493 32.73275757 C12.40824987 43.32400192 14.93961674 53.87448665 17.6484375 64.39453125 C18.10712219 66.17596779 18.10712219 66.17596779 18.57507324 67.99339294 C19.82807155 72.84764986 21.08570474 77.70068012 22.34814453 82.55249023 C23.28675923 86.16518649 24.21805 89.77970896 25.1484375 93.39453125 C25.43584808 94.49021927 25.72325867 95.58590729 26.01937866 96.71479797 C26.28030304 97.73164169 26.54122742 98.74848541 26.81005859 99.79614258 C27.15597549 101.12745964 27.15597549 101.12745964 27.50888062 102.485672 C28.01061489 105.05434385 28.08926372 107.38975951 28 110 C20.6769009 108.67510545 13.60093392 106.83908504 6.46875 104.7265625 C5.37455246 104.40638657 4.28035492 104.08621063 3.15299988 103.7563324 C-0.39910638 102.71628726 -3.94953148 101.67062075 -7.5 100.625 C-12.44082476 99.17639694 -17.3825094 97.73073836 -22.32421875 96.28515625 C-24.17759102 95.74238289 -24.17759102 95.74238289 -26.06840515 95.18864441 C-39.5848841 91.23449919 -53.12901635 87.37853492 -66.6796875 83.54345703 C-68.30338726 83.08236327 -69.92708529 82.6212634 -71.55078125 82.16015625 C-72.28456497 81.95361923 -73.01834869 81.74708221 -73.77436829 81.5342865 C-78.77427727 80.11286137 -78.77427727 80.11286137 -81 79 C-81 78.34 -81 77.68 -81 77 C-79.7421875 75.765625 -79.7421875 75.765625 -77.875 74.25 C-73.06658442 70.17739179 -68.68039977 65.73888398 -64.27685547 61.23925781 C-61.34138093 58.26114323 -58.36267835 55.40999228 -55.1875 52.6875 C-50.20029152 48.38254933 -45.62096475 43.69097937 -41 39 C-31.51428252 29.37055953 -31.51428252 29.37055953 -27.0546875 25.5546875 C-21.27232197 20.59795888 -16.02693513 15.08245047 -10.68359375 9.66308594 C-9.29367409 8.25517685 -7.90079023 6.85019602 -6.5078125 5.4453125 C-5.28022217 4.20031982 -5.28022217 4.20031982 -4.02783203 2.93017578 C-2 1 -2 1 0 0 Z " fill="#FAFAFA" transform="translate(425,161)"/>
<path d="M0 0 C3.46825304 12.50860573 6.85610539 25.01769225 9.6875 37.6875 C13.05746248 52.76053289 16.97718543 67.69442475 20.86206055 82.64135742 C21.37159015 84.61376743 21.88111196 86.58617946 22.390625 88.55859375 C22.7403109 89.89177643 22.7403109 89.89177643 23.09706116 91.25189209 C24.69636652 97.45637607 25.92896859 103.68351426 27 110 C21.37563094 109.34299989 16.13574954 108.0322717 10.70336914 106.45556641 C9.79836166 106.19689285 8.89335419 105.9382193 7.96092224 105.67170715 C4.98432582 104.81959095 2.00971719 103.96075476 -0.96484375 103.1015625 C-3.04308699 102.50451753 -5.12142198 101.90779187 -7.19984436 101.31137085 C-11.55066886 100.0617636 -15.90054987 98.80893943 -20.24975586 97.55371094 C-25.81075097 95.94892685 -31.37372996 94.35115333 -36.93739986 92.75567055 C-41.2284653 91.52447232 -45.51859696 90.29004672 -49.80844307 89.05460739 C-51.85860709 88.46449049 -53.90902322 87.8752487 -55.95969963 87.28691483 C-58.8320559 86.46220876 -61.70316149 85.63328217 -64.57397461 84.80322266 C-65.41318451 84.56310959 -66.25239441 84.32299652 -67.11703491 84.0756073 C-72.17968995 82.60593093 -77.08544763 80.90883426 -82 79 C-80.89973587 75.6992076 -80.17290663 75.07519718 -77.5625 72.9375 C-72.41800318 68.57247239 -67.73193809 63.80363413 -63 59 C-57.82828024 53.74992084 -52.6496079 48.62928228 -47.0546875 43.83203125 C-42.8501381 40.08310793 -38.95168016 36.0115541 -35 32 C-29.78676703 26.70777865 -24.56642493 21.54120446 -18.92480469 16.70654297 C-14.77441552 13.02678393 -10.97490081 8.97178479 -7.1171875 4.99023438 C-6.16585937 4.0224707 -6.16585937 4.0224707 -5.1953125 3.03515625 C-4.62828613 2.4512915 -4.06125977 1.86742676 -3.47705078 1.26586914 C-2 0 -2 0 0 0 Z " fill="#FBFBFB" transform="translate(167,86)"/>
<path d="M0 0 C1.96824183 7.8256922 3.93360848 15.65209944 5.89573765 23.47932625 C6.807858 27.11756671 7.72080866 30.75559368 8.63598633 34.39306641 C12.78792487 50.89815052 16.85775909 67.4158015 20.676651 84.00149536 C21.07055275 85.71174393 21.07055275 85.71174393 21.47241211 87.45654297 C21.72312469 88.54626404 21.97383728 89.63598511 22.23214722 90.75872803 C23.23957229 95.01128625 24.33675721 99.23894935 25.45484924 103.46365356 C26 106 26 106 26 110 C20.74022319 109.3652026 15.83205216 108.23540449 10.74829102 106.76269531 C9.55635887 106.42339493 9.55635887 106.42339493 8.34034729 106.07723999 C5.72689463 105.33202078 3.11539472 104.58019574 0.50390625 103.828125 C-1.33096028 103.30309861 -3.16592809 102.77842605 -5.00099182 102.25408936 C-8.8474292 101.15400425 -12.69297138 100.05086154 -16.5378418 98.9453125 C-21.42124005 97.54122055 -26.30623658 96.14279557 -31.19186306 94.74647903 C-34.98546564 93.66191417 -38.77845412 92.57521489 -42.57124519 91.48781586 C-44.36931405 90.97237978 -46.16750153 90.45735727 -47.96581841 89.94278717 C-52.87601673 88.53670736 -57.78211005 87.1177575 -62.68250656 85.6778717 C-64.24917508 85.21961787 -65.81716655 84.7658666 -67.38634109 84.31626892 C-69.6506111 83.66631479 -71.90970681 83.00072074 -74.16821289 82.33105469 C-74.8473622 82.13964527 -75.52651152 81.94823586 -76.22624111 81.75102615 C-78.09461975 81.18621826 -78.09461975 81.18621826 -81 80 C-81.33 79.01 -81.66 78.02 -82 77 C-81.30777344 76.41605469 -81.30777344 76.41605469 -80.6015625 75.8203125 C-74.77634401 70.82397886 -69.38340118 65.46496786 -64 60 C-58.82828024 54.74992084 -53.6496079 49.62928228 -48.0546875 44.83203125 C-43.8501381 41.08310793 -39.95168016 37.0115541 -36 33 C-30.79684713 27.71801148 -25.58664465 22.56300191 -19.95605469 17.73779297 C-15.57231967 13.84320662 -11.55541701 9.55072441 -7.47265625 5.34570312 C-6.45365234 4.31026367 -6.45365234 4.31026367 -5.4140625 3.25390625 C-4.50068115 2.31526733 -4.50068115 2.31526733 -3.56884766 1.35766602 C-2 0 -2 0 0 0 Z " fill="#FBFBFB" transform="translate(232,348)"/>
<path d="M0 0 C0.99 0.33 1.98 0.66 3 1 C3.85188293 3.03330994 3.85188293 3.03330994 4.53051758 5.74975586 C4.92156425 7.27547462 4.92156425 7.27547462 5.32051086 8.83201599 C5.59243759 9.94834915 5.86436432 11.06468231 6.14453125 12.21484375 C6.43680099 13.37254776 6.72907074 14.53025177 7.03019714 15.72303772 C7.96968815 19.45828864 8.89099321 23.19777648 9.8125 26.9375 C10.42140302 29.36291242 11.03141718 31.78804618 11.64257812 34.21289062 C14.89964499 47.19497365 18.00513582 60.20712533 20.98765564 73.25488281 C22.91866203 81.69655248 24.99268142 90.09047165 27.16015625 98.47460938 C27.40378906 99.43044922 27.64742188 100.38628906 27.8984375 101.37109375 C28.21820557 102.6075061 28.21820557 102.6075061 28.54443359 103.86889648 C29 106 29 106 29 109 C21.60418904 107.65521453 14.43319567 105.81327548 7.21484375 103.7265625 C6.09557999 103.40634125 4.97631622 103.08612 3.82313538 102.75619507 C0.19342664 101.71647118 -3.43456639 100.67089938 -7.0625 99.625 C-9.56699205 98.9060227 -12.07154988 98.18727448 -14.57617188 97.46875 C-35.74016237 91.39033533 -56.87932498 85.22715554 -78 79 C-78 75 -78 75 -76.58398438 73.41210938 C-75.92720703 72.89455078 -75.27042969 72.37699219 -74.59375 71.84375 C-69.5724044 67.69760372 -65.06468014 63.13794948 -60.5 58.5 C-55.49079531 53.41039074 -50.45977219 48.46995399 -45.04101562 43.81835938 C-41.01503106 40.23157312 -37.28078502 36.34147178 -33.5 32.5 C-28.47165319 27.39094136 -23.42233151 22.42494387 -17.98242188 17.75537109 C-14.32947251 14.52080139 -10.92810267 11.03186687 -7.5 7.5625 C-6.77296875 6.83095703 -6.0459375 6.09941406 -5.296875 5.34570312 C-3.52890501 3.56610176 -1.76333622 1.78419082 0 0 Z " fill="#FBFBFB" transform="translate(294,124)"/>
<path d="M0 0 C9.85530278 2.62452137 19.64895863 5.46556411 29.44918633 8.28691483 C32.546819 9.17866535 35.64472107 10.06947451 38.74269104 10.96005249 C45.30786702 12.84753552 51.87270256 14.73620087 58.4375 16.625 C66.07270057 18.82170924 73.70804066 21.01793139 81.34370613 23.21302414 C84.39502726 24.09047219 87.4461069 24.96875638 90.49717712 25.84707642 C92.36195752 26.38327966 94.22674879 26.91944506 96.09155273 27.45556641 C96.93885956 27.69972794 97.78616638 27.94388947 98.65914917 28.19544983 C99.43968155 28.41967117 100.22021393 28.64389252 101.0243988 28.87490845 C101.69961295 29.06919748 102.3748271 29.26348652 103.07050228 29.4636631 C105.03921186 30.01089961 107.01556711 30.51318155 109 31 C107.89513102 34.31460693 107.12376914 34.96976106 104.5 37.125 C99.73495917 41.16806494 95.37886412 45.54641124 91 50 C82.5776494 58.56607672 82.5776494 58.56607672 78.0625 62.4375 C73.11075644 66.69305783 68.57934943 71.35126648 64 76 C58.80692654 81.27175639 53.60686284 86.41520194 47.98730469 91.23095703 C43.37043543 95.34076472 39.13590607 99.87016545 34.828125 104.29882812 C34.10367188 105.03423828 33.37921875 105.76964844 32.6328125 106.52734375 C31.98199707 107.19499756 31.33118164 107.86265137 30.66064453 108.55053711 C29 110 29 110 27 110 C12.07818941 53.30827326 12.07818941 53.30827326 6.12133789 27.12475586 C4.47288334 19.91682912 2.67366358 12.77545115 0.6640625 5.66015625 C0 3 0 3 0 0 Z " fill="#FDFDFD" transform="translate(308,120)"/>
<path d="M0 0 C7.63369559 2.06304547 15.2458389 4.19373041 22.84765625 6.37109375 C23.96277084 6.68990005 25.07788544 7.00870636 26.22679138 7.33717346 C29.83887131 8.36999771 33.45068652 9.40374441 37.0625 10.4375 C39.55987654 11.15176015 42.05727255 11.86595227 44.5546875 12.58007812 C49.60050762 14.02297971 54.64623662 15.46619926 59.69189453 16.90966797 C69.3769247 19.68016873 79.06292307 22.44727863 88.74899292 25.21414185 C93.09312596 26.45509553 97.43718649 27.69630296 101.78125 28.9375 C103.19856734 29.34244919 104.61588501 29.74739726 106.03320312 30.15234375 C107.50176758 30.57193359 107.50176758 30.57193359 109 31 C105.06612928 35.70864382 100.97871555 40.17783311 96.625 44.5 C96.0990625 45.02980469 95.573125 45.55960937 95.03125 46.10546875 C92.18129703 48.94853778 89.26649803 51.66000571 86.2109375 54.28125 C81.22025757 58.60100459 76.62966777 63.30018575 72 68 C62.51461199 77.62910601 62.51461199 77.62910601 58.00390625 81.4921875 C52.09542245 86.55660219 46.76472553 92.22778314 41.33398438 97.79296875 C40.06844727 99.07494141 40.06844727 99.07494141 38.77734375 100.3828125 C37.65187134 101.53354248 37.65187134 101.53354248 36.50366211 102.70751953 C33.50435392 105.45383878 30.34528825 107.68919233 27 110 C23.715784 98.51855955 20.73710589 87.00324509 18.03314209 75.37210083 C13.55384692 56.12361615 8.73091012 36.9718234 3.75952148 17.8449707 C3.50844131 16.8738031 3.25736115 15.9026355 2.99867249 14.90203857 C2.52702824 13.07825621 2.05236747 11.25525037 1.57420349 9.4331665 C1.3658638 8.62643494 1.15752411 7.81970337 0.94287109 6.98852539 C0.75985443 6.28691788 0.57683777 5.58531036 0.38827515 4.86244202 C0 3 0 3 0 0 Z " fill="#FDFDFD" transform="translate(112,309)"/>
<path d="M0 0 C6.41941115 1.36737941 12.71205043 2.98105962 19.01782227 4.79736328 C19.97498642 5.07075531 20.93215057 5.34414734 21.9183197 5.62582397 C25.05173823 6.52148146 28.18407342 7.42086618 31.31640625 8.3203125 C33.50066117 8.94545216 35.68498329 9.57035711 37.86936951 10.19503784 C43.59593791 11.83337359 49.32159225 13.47488142 55.04705811 15.11706543 C60.89865883 16.79481487 66.75112391 18.46954349 72.60351562 20.14453125 C84.0698554 23.42674194 95.53523119 26.71230648 107 30 C107 34 107 34 105.4453125 35.7265625 C104.67960937 36.35304687 103.91390625 36.97953125 103.125 37.625 C96.95542381 42.91320816 91.29413826 48.64866835 85.59814453 54.43994141 C82.19232843 57.88302842 78.78082434 61.24717484 75.1015625 64.3984375 C69.9588277 68.81938496 65.25834664 73.6733844 60.5 78.5 C55.10648715 83.97089467 49.72131288 89.34396543 43.88476562 94.34228516 C40.60847757 97.22389084 37.56255263 100.33222936 34.5 103.4375 C33.86835938 104.07365234 33.23671875 104.70980469 32.5859375 105.36523438 C31.05494226 106.90782806 29.52712333 108.45357314 28 110 C27.34 109.67 26.68 109.34 26 109 C25.23335214 106.31353813 24.59517186 103.66408364 24 100.9375 C21.71425214 90.89985045 19.2422034 80.9163151 16.72396851 70.93515015 C13.33425758 57.49531775 10.03381349 44.0491362 6.98999023 30.52612305 C5.37572292 23.4236979 3.54511692 16.40682067 1.47143555 9.42431641 C0.49423188 6.08698957 0 3.52060576 0 0 Z " fill="#FDFDFD" transform="translate(211,214)"/>
<path d="M0 0 C7.97905255 1.94013641 15.88230684 4.06095741 23.76171875 6.37109375 C25.40300751 6.84930321 25.40300751 6.84930321 27.07745361 7.33717346 C30.61478119 8.36841813 34.15115089 9.40290546 37.6875 10.4375 C40.13544353 11.15187953 42.58344209 11.86607054 45.03149414 12.58007812 C51.1810962 14.37437964 57.32986939 16.17150102 63.47827148 17.96990967 C66.84413618 18.95441051 70.21013016 19.93846789 73.57617188 20.92236328 C85.05210748 24.27705348 96.52683243 27.63585526 108 31 C103.60514612 36.25739529 98.98296044 41.16979934 94.125 46 C93.12146484 47.00933594 93.12146484 47.00933594 92.09765625 48.0390625 C88.85107858 51.27938472 85.56608934 54.41731162 82.0859375 57.40625 C77.31055806 61.52645999 72.92190244 66.00711999 68.5 70.5 C63.49616902 75.58414929 58.47127438 80.52149245 53.05859375 85.16845703 C48.94765655 88.82598204 45.119635 92.77837893 41.25 96.6875 C40.41339844 97.52861328 39.57679688 98.36972656 38.71484375 99.23632812 C37.16581876 100.79399998 35.61783197 102.35270556 34.07128906 103.9128418 C33.38776367 104.601604 32.70423828 105.29036621 32 106 C31.29327148 106.74870361 30.58654297 107.49740723 29.85839844 108.26879883 C28 110 28 110 26 110 C22.99127985 98.17473014 20.05325596 86.34227897 17.375 74.4375 C13.94792837 59.27409674 10.01903115 44.23553857 6.13818359 29.18334961 C5.88106598 28.1844873 5.62394836 27.185625 5.35903931 26.15649414 C4.87511874 24.27778312 4.38984484 22.39941992 3.90292358 20.52148438 C2.83917988 16.39393188 1.80234144 12.26136962 0.83691406 8.10961914 C0.67483459 7.41316788 0.51275513 6.71671661 0.34576416 5.99916077 C0 4 0 4 0 0 Z " fill="#FDFDFD" transform="translate(179,83)"/>
<path d="M0 0 C5.71158315 1.39534823 11.36484834 2.92829824 17.01123047 4.56616211 C17.8741571 4.81522812 18.73708374 5.06429413 19.62615967 5.32090759 C22.45690559 6.13833114 25.28705406 6.95780242 28.1171875 7.77734375 C30.09958748 8.35033578 32.08202006 8.92321501 34.06448364 9.49598694 C38.21202578 10.69460863 42.35929446 11.89417019 46.50634766 13.09448242 C51.80036522 14.62675266 57.09486842 16.15733627 62.38955498 17.68729305 C66.48195138 18.86991805 70.57418234 20.05311464 74.66635513 21.23651314 C76.61740423 21.80072341 78.56848153 22.36483614 80.51958847 22.92884636 C83.25653821 23.72018639 85.99328814 24.51221365 88.72998047 25.30444336 C89.52302582 25.53363464 90.31607117 25.76282593 91.13314819 25.9989624 C96.7661353 27.63073745 102.38526972 29.3065204 108 31 C108 31.66 108 32.32 108 33 C106.58398438 34.39257812 106.58398438 34.39257812 104.59375 36.03125 C99.62112002 40.25973641 95.07614093 44.85040576 90.5 49.5 C85.48072491 54.59984131 80.43954375 59.55183483 75.00976562 64.21289062 C71.1669081 67.63000884 67.60391313 71.33458665 64 75 C55.57738058 83.56635013 55.57738058 83.56635013 51.0546875 87.44140625 C45.20563125 92.46544688 39.91962977 98.07321556 34.5390625 103.58789062 C33.724375 104.41353516 32.9096875 105.23917969 32.0703125 106.08984375 C31.33570801 106.84128662 30.60110352 107.59272949 29.84423828 108.36694336 C28 110 28 110 26 110 C25.72027344 108.80890625 25.44054687 107.6178125 25.15234375 106.390625 C22.70284583 96.01021334 20.17122368 85.65407219 17.5625 75.3125 C15.01948989 65.22947175 12.63872765 55.12117189 10.35327148 44.97705078 C8.03268922 34.83581997 5.3287995 24.80452655 2.53930664 14.78369141 C2.20922607 13.58019043 1.87914551 12.37668945 1.5390625 11.13671875 C1.24209473 10.07155029 0.94512695 9.00638184 0.63916016 7.90893555 C0.03564328 5.16221913 -0.12723687 2.79953397 0 0 Z " fill="#FDFDFD" transform="translate(244,347)"/>
<path d="M0 0 C0.66 0.33 1.32 0.66 2 1 C0.77313477 2.21115479 0.77313477 2.21115479 -0.47851562 3.44677734 C-3.50258336 6.4347316 -6.52009811 9.4292292 -9.53564453 12.42578125 C-10.84342578 13.72348514 -12.15299369 15.01939099 -13.46435547 16.31347656 C-15.34551501 18.17046398 -17.22022122 20.03375562 -19.09375 21.8984375 C-19.97963806 22.76884171 -19.97963806 22.76884171 -20.88342285 23.65682983 C-22.29408351 25.06709628 -23.65260316 26.52917142 -25 28 C-25 28.66 -25 29.32 -25 30 C-25.99 29.67 -26.98 29.34 -28 29 C-26.89994672 25.69984015 -26.17159108 25.07251034 -23.5625 22.93359375 C-18.43083449 18.5796963 -13.73244201 13.84219374 -9 9.0625 C-8.12988281 8.18787109 -7.25976562 7.31324219 -6.36328125 6.41210938 C-4.23986451 4.27702551 -2.11883622 2.13962795 0 0 Z " fill="#DBDBDB" transform="translate(243,173)"/>
<path d="M0 0 C0.66 0.33 1.32 0.66 2 1 C-2.08707305 5.13638802 -6.18057878 9.26625792 -10.28027344 13.39013672 C-11.67498149 14.79492308 -13.06789204 16.20149637 -14.45898438 17.60986328 C-16.45497031 19.63001713 -18.4572619 21.64372656 -20.4609375 23.65625 C-21.08495453 24.2905896 -21.70897156 24.9249292 -22.35189819 25.57849121 C-23.8637749 27.09076139 -25.42739652 28.5509829 -27 30 C-27.66 30 -28.32 30 -29 30 C-27.9022135 26.7066405 -27.19611693 26.09492195 -24.59375 23.96484375 C-19.27222935 19.44986608 -14.40873019 14.51760628 -9.5 9.5625 C-8.5821875 8.64017578 -7.664375 7.71785156 -6.71875 6.76757812 C-4.47684945 4.51400101 -2.237334 2.25810925 0 0 Z " fill="#DDDDDD" transform="translate(114,135)"/>
</svg>
